<svg width="128" height="128" viewBox="0 0 128 128" fill="none" xmlns="http://www.w3.org/2000/svg">
<path d="M119.004 26.2044C118.445 25.9242 117.822 25.7963 117.198 25.8338C116.574 25.8712 115.97 26.0727 115.449 26.4178L81.7778 48.96V29.3689C81.7789 28.6927 81.5871 28.0302 81.225 27.4591C80.8629 26.888 80.3454 26.432 79.7333 26.1446C79.1212 25.8572 78.4398 25.7504 77.7691 25.8365C77.0985 25.9227 76.4662 26.1983 75.9466 26.6311L47.9289 49.7778H35.5555V16.4267C35.5756 15.6048 35.3103 14.8013 34.8046 14.153C34.2989 13.5047 33.5843 13.0517 32.7822 12.8711L18.56 9.67111C18.0352 9.55336 17.4906 9.55618 16.9671 9.67936C16.4437 9.80253 15.9549 10.0428 15.5378 10.3822C15.1109 10.728 14.77 11.168 14.5417 11.6677C14.3134 12.1674 14.2041 12.7132 14.2222 13.2622V49.7778H10.6666C9.72365 49.7778 8.81928 50.1524 8.15248 50.8192C7.48569 51.486 7.11108 52.3903 7.11108 53.3333V110.222C7.11108 111.165 7.48569 112.07 8.15248 112.736C8.81928 113.403 9.72365 113.778 10.6666 113.778H117.333C118.276 113.778 119.181 113.403 119.847 112.736C120.514 112.07 120.889 111.165 120.889 110.222V29.3689C120.894 28.7196 120.721 28.0815 120.388 27.5236C120.056 26.9658 119.578 26.5096 119.004 26.2044ZM21.3333 17.7778L28.4444 19.3422V49.7778H21.3333V17.7778ZM113.778 106.667H14.2222V56.8889H49.1733C50.0041 56.8905 50.8092 56.6012 51.4489 56.0711L74.6666 36.8711V55.6444C74.6657 56.2904 74.8407 56.9244 75.1729 57.4783C75.5051 58.0323 75.9819 58.4853 76.5521 58.7887C77.1224 59.0921 77.7645 59.2345 78.4095 59.2004C79.0546 59.1664 79.6782 58.9573 80.2133 58.5956L113.778 36.0533V106.667Z" fill="#2A7224"/>
<path d="M21.3334 63.9645H49.7778V71.0756H21.3334V63.9645ZM21.3334 78.1867H49.7778V85.2978H21.3334V78.1867ZM21.3334 92.4089H49.7778V99.52H21.3334V92.4089ZM67.5556 67.52H74.6667V78.1867H67.5556V67.52ZM67.5556 88.8534H74.6667V99.52H67.5556V88.8534ZM81.7778 67.52H88.8889V78.1867H81.7778V67.52ZM81.7778 88.8534H88.8889V99.52H81.7778V88.8534ZM96 67.52H103.111V78.1867H96V67.52ZM96 88.8534H103.111V99.52H96V88.8534Z" fill="#2A7224"/>
</svg>
