<svg width="178" height="29" viewBox="0 0 178 29" fill="none" xmlns="http://www.w3.org/2000/svg">
<path d="M117.441 9.19029C118.215 9.7056 118.864 10.3193 119.388 11.0315C119.912 11.7437 120.3 12.5063 120.55 13.3194C120.801 14.1324 120.909 14.9829 120.875 15.871C120.841 16.759 120.636 17.6242 120.261 18.4666C119.863 19.3857 119.315 20.1833 118.616 20.8594C117.918 21.5355 117.125 22.0646 116.236 22.4466C115.348 22.8287 114.417 23.0428 113.444 23.0889C112.471 23.1351 111.499 22.9885 110.528 22.6491C109.452 23.3394 108.284 23.7828 107.027 23.9792C105.77 24.1756 104.515 24.0883 103.262 23.7174L100.974 29L99.1921 28.2584L101.48 22.9758C100.346 22.3539 99.4153 21.5315 98.686 20.5085C97.9566 19.4855 97.4666 18.3526 97.2159 17.1099C96.298 16.6742 95.5133 16.0954 94.8619 15.3732C94.2105 14.6511 93.721 13.846 93.3934 12.9579C93.0658 12.0699 92.9076 11.1448 92.9187 10.1829C92.9299 9.221 93.1318 8.274 93.5245 7.34193C93.891 6.49563 94.3816 5.75469 94.9965 5.11913C95.6113 4.48357 96.306 3.96717 97.0807 3.56992C97.8553 3.17266 98.6906 2.91345 99.5867 2.79228C100.483 2.67111 101.384 2.70245 102.29 2.88629C102.906 2.19751 103.607 1.62981 104.392 1.18319C105.177 0.736574 106.002 0.413792 106.866 0.214844C107.73 0.0158957 108.616 -0.044881 109.525 0.0325135C110.433 0.109908 111.321 0.323673 112.189 0.673808C113.052 1.03304 113.823 1.50423 114.502 2.08736C115.181 2.6705 115.75 3.34228 116.209 4.1027C116.669 4.86312 117.009 5.67067 117.231 6.52537C117.452 7.38006 117.523 8.26837 117.441 9.19029ZM110.861 20.7417C111.595 21.0468 112.345 21.1981 113.113 21.1955C113.881 21.1929 114.609 21.0554 115.297 20.7831C115.985 20.5107 116.61 20.1159 117.174 19.5987C117.738 19.0814 118.172 18.4569 118.478 17.725C118.79 17.0061 118.944 16.2702 118.941 15.5173C118.939 14.7644 118.798 14.0509 118.521 13.3769C118.243 12.7028 117.835 12.0876 117.298 11.5312C116.761 10.9749 116.129 10.5506 115.401 10.2584L115.359 10.241C115.35 10.2372 115.334 10.2359 115.311 10.2373C115.523 9.44474 115.586 8.65464 115.5 7.86699C115.413 7.07934 115.201 6.33041 114.862 5.6202C114.523 4.91 114.061 4.28264 113.475 3.73814C112.889 3.19363 112.208 2.75459 111.432 2.42102C110.652 2.09655 109.857 1.92141 109.047 1.89561C108.236 1.8698 107.455 1.97955 106.702 2.22485C105.949 2.47015 105.254 2.83598 104.616 3.32234C103.978 3.8087 103.44 4.40635 103.002 5.1153L102.96 5.09792C102.95 5.09406 102.939 5.08371 102.924 5.06689C102.177 4.76697 101.42 4.61831 100.652 4.62092C99.8839 4.62353 99.158 4.75646 98.4743 5.0197C97.7906 5.28294 97.1696 5.67967 96.6113 6.20989C96.053 6.74011 95.6182 7.36467 95.3069 8.08358C94.9916 8.81158 94.8373 9.54748 94.8439 10.2913C94.8505 11.035 94.9908 11.7485 95.2647 12.4317C95.5385 13.1149 95.9413 13.7281 96.4729 14.2715C97.0045 14.8149 97.6417 15.2411 98.3844 15.5501L99.011 15.8109C99.0328 16.3677 99.1235 16.9048 99.2829 17.4222C99.4423 17.9396 99.6612 18.4334 99.9396 18.9037C100.218 19.3739 100.548 19.8012 100.929 20.1854C101.311 20.5697 101.75 20.9083 102.248 21.2013L103.01 19.4404C102.538 19.1149 102.141 18.7294 101.819 18.284C101.496 17.8385 101.258 17.3636 101.104 16.8591C100.95 16.3547 100.889 15.8246 100.922 15.2689C100.954 14.7132 101.081 14.1806 101.302 13.671L103.084 14.4126C102.966 14.6856 102.893 14.9669 102.867 15.2565C102.84 15.546 102.856 15.8374 102.915 16.1306C102.975 16.4237 103.078 16.6921 103.224 16.9356C103.371 17.1792 103.561 17.409 103.797 17.6249L106.001 12.5335L107.784 13.2751L105.579 18.3666C105.888 18.3876 106.184 18.3606 106.469 18.2857C106.753 18.2107 107.026 18.0988 107.288 17.9499C107.55 17.8011 107.773 17.6147 107.957 17.3908C108.142 17.1669 108.3 16.9158 108.431 16.6376L110.214 17.3792C109.989 17.8979 109.686 18.3572 109.305 18.757C108.924 19.1568 108.494 19.4776 108.017 19.7194C107.54 19.9611 107.024 20.1277 106.47 20.2192C105.915 20.3106 105.356 20.2983 104.793 20.182L104.03 21.9429C104.573 22.0826 105.122 22.1553 105.678 22.1612C106.234 22.1671 106.779 22.1095 107.314 21.9882C107.849 21.867 108.363 21.6783 108.857 21.4222C109.352 21.1661 109.811 20.8523 110.235 20.4809L110.861 20.7417Z" fill="#0C2503"/>
<path d="M122.078 2.30159V27.6382H126.453V9.02916L139.898 27.6382H143.751V2.30159H139.416V20.9499L125.931 2.30159H122.078Z" fill="#0C2503"/>
<path d="M148.848 2.30159V27.6382H153.222V2.30159H148.848Z" fill="#0C2503"/>
<path d="M160.742 24.6088C162.936 26.8906 166.16 28.0316 170.414 28.0316C171.913 28.0316 173.277 27.9398 174.508 27.7562C175.766 27.5726 176.93 27.3103 178 26.9693V23.1925C176.903 23.6121 175.726 23.9268 174.468 24.1367C173.237 24.3203 172.006 24.4121 170.776 24.4121C167.752 24.4121 165.518 23.6515 164.073 22.1302C162.628 20.5827 161.906 18.3271 161.906 15.3633C161.906 12.1897 162.561 9.76355 163.872 8.08494C165.21 6.40632 167.485 5.56702 170.695 5.56702C172.033 5.56702 173.304 5.68505 174.508 5.9211C175.739 6.13093 176.89 6.44567 177.96 6.86532V3.12778C176.89 2.76059 175.726 2.47208 174.468 2.26225C173.237 2.02619 171.873 1.90817 170.374 1.90817C167.431 1.90817 165.01 2.45896 163.11 3.56055C161.21 4.63591 159.792 6.18338 158.855 8.20297C157.946 10.1963 157.491 12.5831 157.491 15.3633C157.491 19.2451 158.575 22.3269 160.742 24.6088Z" fill="#0C2503"/>
<path d="M3.25095 24.6088C5.44501 26.8906 8.6692 28.0316 12.9235 28.0316C14.4219 28.0316 15.7865 27.9398 17.0173 27.7562C18.2749 27.5726 19.4388 27.3103 20.5091 26.9693V23.1925C19.4121 23.6121 18.2348 23.9268 16.9772 24.1367C15.7464 24.3203 14.5156 24.4121 13.2847 24.4121C10.2612 24.4121 8.02704 23.6515 6.58217 22.1302C5.1373 20.5827 4.41487 18.3271 4.41487 15.3633C4.41487 12.1897 5.07041 9.76355 6.3815 8.08494C7.71934 6.40632 9.99366 5.56702 13.2045 5.56702C14.5423 5.56702 15.8133 5.68505 17.0173 5.9211C18.2481 6.13093 19.3987 6.44567 20.4689 6.86532V3.12778C19.3987 2.76059 18.2348 2.47208 16.9772 2.26225C15.7464 2.02619 14.3818 1.90817 12.8834 1.90817C9.94015 1.90817 7.51866 2.45896 5.61893 3.56055C3.71919 4.63591 2.30108 6.18338 1.3646 8.20297C0.454865 10.1963 0 12.5831 0 15.3633C0 19.2451 1.08365 22.3269 3.25095 24.6088Z" fill="#0C2503"/>
<path d="M58.2232 5.6457V27.6382H62.5979V5.6457H70.8257V2.30159H49.9554V5.6457H58.2232Z" fill="#0C2503"/>
<path d="M81.0342 5.6457V27.6382H85.4089V5.6457H93.6367V2.30159H72.7663V5.6457H81.0342Z" fill="#0C2503"/>
<path d="M36.0715 28.0316C31.9777 28.0316 28.9141 26.9824 26.8805 24.8842C24.847 22.7597 23.8303 19.4811 23.8303 15.0486C23.8303 10.4324 24.847 7.08826 26.8805 5.01622C28.9141 2.94419 31.9777 1.90817 36.0715 1.90817C40.192 1.90817 43.2556 2.94419 45.2623 5.01622C47.2958 7.08826 48.3126 10.4324 48.3126 15.0486C48.3126 19.4811 47.2958 22.7597 45.2623 24.8842C43.2556 26.9824 40.192 28.0316 36.0715 28.0316ZM36.0715 24.4121C38.7739 24.4121 40.7539 23.6908 42.0115 22.2482C43.2957 20.7794 43.9379 18.3796 43.9379 15.0486C43.9379 11.534 43.2957 9.08161 42.0115 7.69151C40.7539 6.27518 38.7739 5.56702 36.0715 5.56702C33.3958 5.56702 31.4158 6.27518 30.1315 7.69151C28.8739 9.08161 28.2451 11.534 28.2451 15.0486C28.2451 18.3796 28.8739 20.7794 30.1315 22.2482C31.4158 23.6908 33.3958 24.4121 36.0715 24.4121Z" fill="#0C2503"/>
</svg>
