<svg width="128" height="128" viewBox="0 0 128 128" fill="none" xmlns="http://www.w3.org/2000/svg">
<path d="M78.64 12C78.64 12 72.945 14 64 14C55.055 14 49.36 12 49.36 12C48.4601 12 47.5667 12.1522 46.7175 12.45L8 26L12.1575 48L24.3775 49.38C25.874 49.5494 27.2521 50.2753 28.2381 51.4137C29.2241 52.5521 29.7459 54.0197 29.7 55.525L28 116H100L98.3 55.525C98.2541 54.0197 98.7759 52.5521 99.7619 51.4137C100.748 50.2753 102.126 49.5494 103.622 49.38L115.842 48L120 26L81.2825 12.45C80.4333 12.1522 79.5399 12 78.64 12Z" stroke="#2A7224" stroke-width="5" stroke-linecap="round" stroke-linejoin="round"/>
<path d="M83.3275 13.165C82.1939 17.4254 79.6843 21.1919 76.189 23.8788C72.6937 26.5656 68.4086 28.0223 64 28.0223C59.5913 28.0223 55.3062 26.5656 51.8109 23.8788C48.3157 21.1919 45.8061 17.4254 44.6725 13.165" stroke="#2A7224" stroke-width="5" stroke-linecap="round" stroke-linejoin="round"/>
</svg>
