<svg width="121" height="128" viewBox="0 0 121 128" fill="none" xmlns="http://www.w3.org/2000/svg">
<path d="M106.113 40.564C109.462 42.8385 112.271 45.5474 114.539 48.6908C116.808 51.8342 118.484 55.2002 119.568 58.7889C120.652 62.3775 121.121 66.1316 120.974 70.0511C120.827 73.9706 119.94 77.7895 118.315 81.5079C116.592 85.5646 114.221 89.0851 111.2 92.0692C108.179 95.0532 104.746 97.3885 100.901 99.0748C97.0563 100.761 93.0284 101.706 88.8174 101.91C84.6064 102.114 80.401 101.466 76.2013 99.9683C71.5418 103.015 66.4917 104.972 61.051 105.839C55.6103 106.706 50.1796 106.321 44.7589 104.684L34.8606 128L27.1479 124.727L37.0462 101.41C32.1431 98.6657 28.1136 95.0357 24.9578 90.5203C21.802 86.0049 19.6817 81.0046 18.5969 75.5195C14.6249 73.5967 11.2295 71.0416 8.41066 67.8543C5.59181 64.667 3.47365 61.1135 2.05616 57.1936C0.638676 53.2738 -0.0459256 49.1911 0.00238868 44.9453C0.0507029 40.6996 0.924414 36.5197 2.62348 32.4058C4.20926 28.6703 6.33242 25.4 8.99297 22.5948C11.6535 19.7896 14.6597 17.5103 18.0115 15.7569C21.3633 14.0035 24.978 12.8594 28.8555 12.3245C32.733 11.7897 36.6329 11.928 40.5551 12.7395C43.2206 9.69933 46.2518 7.19362 49.6487 5.22235C53.0456 3.25108 56.6134 1.82639 60.3522 0.948276C64.091 0.0701605 67.9264 -0.198095 71.8585 0.143508C75.7906 0.485111 79.6331 1.42862 83.386 2.97405C87.1219 4.55964 90.4583 6.63935 93.3954 9.21319C96.3324 11.787 98.7952 14.7521 100.784 18.1085C102.772 21.4648 104.246 25.0292 105.204 28.8016C106.163 32.574 106.466 36.4949 106.113 40.564ZM77.642 91.5495C80.8155 92.8964 84.0639 93.5641 87.3874 93.5525C90.7109 93.541 93.8604 92.9342 96.8359 91.7322C99.8114 90.5301 102.519 88.7876 104.958 86.5045C107.396 84.2214 109.278 81.4647 110.602 78.2344C111.949 75.0613 112.617 71.8132 112.605 68.4902C112.594 65.1671 111.987 62.0179 110.784 59.0428C109.582 56.0676 107.819 53.3522 105.496 50.8965C103.172 48.4409 100.435 46.5682 97.2851 45.2785L97.1044 45.2018C97.0642 45.1847 96.9954 45.1793 96.898 45.1853C97.8142 41.6871 98.0857 38.1998 97.7127 34.7233C97.3396 31.2467 96.4199 27.9411 94.9536 24.8064C93.4872 21.6717 91.4864 18.9027 88.9511 16.4994C86.4157 14.096 83.4694 12.1582 80.1122 10.6859C76.7379 9.25373 73.297 8.48071 69.7897 8.36681C66.2825 8.25292 62.9005 8.73733 59.6438 9.82003C56.387 10.9027 53.3785 12.5174 50.6183 14.6641C47.858 16.8108 45.5293 19.4487 43.632 22.5779L43.4512 22.5012C43.411 22.4841 43.3593 22.4385 43.296 22.3642C40.0653 21.0404 36.7882 20.3843 33.4648 20.3958C30.1413 20.4073 27.0003 20.994 24.0418 22.1559C21.0833 23.3178 18.3962 25.0689 15.9804 27.4092C13.5647 29.7494 11.6833 32.5061 10.3362 35.6792C8.9721 38.8925 8.30433 42.1406 8.3329 45.4235C8.36147 48.7064 8.96833 51.8556 10.1535 54.8709C11.3386 57.8863 13.0814 60.5932 15.3818 62.9916C17.6822 65.39 20.4392 67.2712 23.6528 68.6351L26.3643 69.786C26.4588 72.2436 26.8509 74.6143 27.5408 76.898C28.2306 79.1817 29.1779 81.3613 30.3827 83.437C31.5875 85.5126 33.0151 87.3984 34.6656 89.0943C36.316 90.7903 38.2179 92.2848 40.3712 93.578L43.6706 85.8059C41.6257 84.3691 39.9065 82.6677 38.5129 80.7016C37.1194 78.7355 36.0893 76.6392 35.4226 74.4127C34.7559 72.1862 34.4928 69.8466 34.6333 67.3939C34.7738 64.9412 35.3215 62.5902 36.2763 60.3409L43.9891 63.6144C43.4775 64.8193 43.1638 66.0609 43.0479 67.3389C42.932 68.617 43.0024 69.9031 43.259 71.197C43.5156 72.491 43.9609 73.6755 44.595 74.7505C45.229 75.8254 46.0548 76.8395 47.0724 77.7928L56.6126 55.3201L64.3253 58.5936L54.7851 81.0663C56.1206 81.1591 57.4037 81.0401 58.6346 80.7092C59.8654 80.3784 61.047 79.8844 62.1793 79.2273C63.3116 78.5702 64.2771 77.7475 65.0759 76.7593C65.8747 75.771 66.5585 74.6629 67.1273 73.4348L74.84 76.7083C73.8681 78.9977 72.5572 81.0248 70.9073 82.7895C69.2573 84.5541 67.3999 85.97 65.335 87.0372C63.2701 88.1043 61.0379 88.8397 58.6384 89.2433C56.2388 89.647 53.8205 89.5923 51.3834 89.0794L48.0839 96.8515C50.4297 97.4678 52.806 97.7891 55.2128 97.8151C57.6195 97.8411 59.9795 97.5866 62.2927 97.0514C64.6058 96.5163 66.832 95.6835 68.9712 94.5531C71.1103 93.4227 73.0967 92.0379 74.9304 90.3986L77.642 91.5495Z" fill="#0C2503"/>
</svg>
