<svg width="426" height="72" viewBox="0 0 426 72" fill="none" xmlns="http://www.w3.org/2000/svg">
<path d="M280.909 23.3539C282.76 24.6113 284.313 26.1089 285.567 27.8467C286.821 29.5845 287.747 31.4453 288.346 33.4293C288.946 35.4132 289.205 37.4886 289.123 39.6555C289.042 41.8223 288.552 43.9336 287.653 45.9892C286.701 48.2319 285.391 50.1781 283.721 51.8279C282.051 53.4776 280.153 54.7686 278.028 55.7008C275.903 56.6331 273.676 57.1556 271.348 57.2682C269.021 57.3807 266.696 57.023 264.374 56.1948C261.799 57.8793 259.007 58.9612 256 59.4404C252.992 59.9196 249.99 59.7067 246.994 58.8017L241.522 71.6918L237.259 69.8821L242.731 56.992C240.02 55.4747 237.793 53.4679 236.048 50.9716C234.304 48.4753 233.132 45.711 232.532 42.6786C230.337 41.6156 228.46 40.2031 226.902 38.441C225.343 36.6789 224.173 34.7144 223.389 32.5474C222.606 30.3804 222.227 28.1232 222.254 25.776C222.281 23.4288 222.763 21.1181 223.703 18.8437C224.579 16.7786 225.753 14.9707 227.224 13.4198C228.694 11.869 230.356 10.6089 232.209 9.63957C234.062 8.67023 236.06 8.03773 238.203 7.74206C240.346 7.44638 242.502 7.52285 244.67 7.97146C246.144 6.29074 247.819 4.90549 249.697 3.8157C251.575 2.72591 253.547 1.93829 255.614 1.45283C257.68 0.967376 259.8 0.819074 261.974 1.00793C264.147 1.19678 266.271 1.71839 268.346 2.57275C270.411 3.44933 272.255 4.59907 273.879 6.02198C275.502 7.4449 276.864 9.08411 277.963 10.9396C279.062 12.7951 279.877 14.7657 280.407 16.8512C280.936 18.9367 281.104 21.1043 280.909 23.3539ZM265.171 51.5406C266.925 52.2852 268.721 52.6543 270.558 52.6479C272.395 52.6416 274.136 52.3061 275.781 51.6416C277.425 50.977 278.922 50.0137 280.27 48.7515C281.618 47.4893 282.658 45.9653 283.39 44.1795C284.135 42.4253 284.504 40.6296 284.497 38.7925C284.491 36.9554 284.156 35.2144 283.491 33.5696C282.827 31.9248 281.852 30.4237 280.568 29.0661C279.283 27.7085 277.77 26.6732 276.029 25.9602L275.929 25.9178C275.907 25.9084 275.869 25.9054 275.815 25.9087C276.321 23.9748 276.472 22.0469 276.265 20.1249C276.059 18.2029 275.551 16.3755 274.74 14.6425C273.93 12.9095 272.824 11.3787 271.422 10.05C270.021 8.72139 268.392 7.65009 266.536 6.83614C264.671 6.0444 262.769 5.61704 260.83 5.55408C258.892 5.49111 257.022 5.75891 255.222 6.35747C253.422 6.95603 251.759 7.84869 250.233 9.03546C248.707 10.2222 247.42 11.6806 246.371 13.4105L246.271 13.3681C246.249 13.3586 246.22 13.3334 246.185 13.2923C244.399 12.5605 242.588 12.1978 240.751 12.2041C238.914 12.2105 237.178 12.5349 235.542 13.1772C233.907 13.8195 232.421 14.7876 231.086 16.0814C229.751 17.3752 228.711 18.8992 227.966 20.6534C227.212 22.4298 226.843 24.2255 226.859 26.0404C226.874 27.8553 227.21 29.5963 227.865 31.2633C228.52 32.9303 229.484 34.4267 230.755 35.7527C232.027 37.0786 233.551 38.1186 235.327 38.8727L236.826 39.5089C236.878 40.8676 237.095 42.1781 237.476 43.4407C237.858 44.7032 238.381 45.9082 239.047 47.0557C239.713 48.2032 240.502 49.2457 241.415 50.1833C242.327 51.1209 243.378 51.9471 244.569 52.662L246.392 48.3653C245.262 47.571 244.312 46.6304 243.541 45.5434C242.771 44.4565 242.202 43.2976 241.833 42.0667C241.465 40.8358 241.319 39.5424 241.397 38.1865C241.474 36.8305 241.777 35.5308 242.305 34.2873L246.568 36.097C246.286 36.7631 246.112 37.4495 246.048 38.1561C245.984 38.8626 246.023 39.5736 246.165 40.289C246.307 41.0043 246.553 41.6592 246.903 42.2534C247.254 42.8477 247.71 43.4084 248.273 43.9354L253.546 31.5116L257.81 33.3213L252.536 45.7451C253.274 45.7964 253.984 45.7306 254.664 45.5477C255.344 45.3647 255.998 45.0917 256.623 44.7284C257.249 44.3651 257.783 43.9103 258.225 43.364C258.666 42.8177 259.044 42.205 259.359 41.5261L263.622 43.3358C263.085 44.6015 262.36 45.7221 261.448 46.6977C260.536 47.6733 259.509 48.456 258.368 49.046C257.226 49.6359 255.993 50.0425 254.666 50.2656C253.34 50.4888 252.003 50.4586 250.656 50.175L248.832 54.4717C250.129 54.8125 251.442 54.99 252.773 55.0044C254.103 55.0188 255.408 54.8781 256.686 54.5823C257.965 54.2864 259.195 53.826 260.378 53.2011C261.56 52.5762 262.658 51.8106 263.672 50.9043L265.171 51.5406Z" fill="#0C2503"/>
<path d="M292 6.54471V68.3687H302.464V22.9607L334.624 68.3687H343.84V6.54471H333.472V52.0487L301.216 6.54471H292Z" fill="#0C2503"/>
<path d="M356.031 6.54471V68.3687H366.495V6.54471H356.031Z" fill="#0C2503"/>
<path d="M384.481 60.9767C389.729 66.5447 397.441 69.3287 407.617 69.3287C411.201 69.3287 414.465 69.1047 417.409 68.6567C420.417 68.2087 423.201 67.5687 425.761 66.7367V57.5207C423.137 58.5447 420.321 59.3127 417.313 59.8247C414.369 60.2727 411.425 60.4967 408.481 60.4967C401.249 60.4967 395.905 58.6407 392.449 54.9287C388.993 51.1527 387.265 45.6487 387.265 38.4167C387.265 30.6727 388.833 24.7527 391.969 20.6567C395.169 16.5607 400.609 14.5127 408.289 14.5127C411.489 14.5127 414.529 14.8007 417.409 15.3767C420.353 15.8887 423.105 16.6567 425.665 17.6807V8.56073C423.105 7.66473 420.321 6.96073 417.313 6.44873C414.369 5.87272 411.105 5.58472 407.521 5.58472C400.481 5.58472 394.689 6.92873 390.145 9.61673C385.601 12.2407 382.209 16.0167 379.969 20.9447C377.793 25.8087 376.705 31.6327 376.705 38.4167C376.705 47.8887 379.297 55.4087 384.481 60.9767Z" fill="#0C2503"/>
<path d="M7.776 60.9767C13.024 66.5447 20.736 69.3287 30.912 69.3287C34.496 69.3287 37.76 69.1047 40.704 68.6567C43.712 68.2087 46.496 67.5687 49.056 66.7367V57.5207C46.432 58.5447 43.616 59.3127 40.608 59.8247C37.664 60.2727 34.72 60.4967 31.776 60.4967C24.544 60.4967 19.2 58.6407 15.744 54.9287C12.288 51.1527 10.56 45.6487 10.56 38.4167C10.56 30.6727 12.128 24.7527 15.264 20.6567C18.464 16.5607 23.904 14.5127 31.584 14.5127C34.784 14.5127 37.824 14.8007 40.704 15.3767C43.648 15.8887 46.4 16.6567 48.96 17.6807V8.56073C46.4 7.66473 43.616 6.96073 40.608 6.44873C37.664 5.87272 34.4 5.58472 30.816 5.58472C23.776 5.58472 17.984 6.92873 13.44 9.61673C8.896 12.2407 5.504 16.0167 3.264 20.9447C1.088 25.8087 0 31.6327 0 38.4167C0 47.8887 2.592 55.4087 7.776 60.9767Z" fill="#0C2503"/>
<path d="M139.265 14.7047V68.3687H149.729V14.7047H169.409V6.54471H119.489V14.7047H139.265Z" fill="#0C2503"/>
<path d="M193.827 14.7047V68.3687H204.291V14.7047H223.971V6.54471H174.051V14.7047H193.827Z" fill="#0C2503"/>
<path d="M86.28 69.3287C76.488 69.3287 69.16 66.7687 64.296 61.6487C59.432 56.4647 57 48.4647 57 37.6487C57 26.3847 59.432 18.2247 64.296 13.1687C69.16 8.11273 76.488 5.58472 86.28 5.58472C96.136 5.58472 103.464 8.11273 108.264 13.1687C113.128 18.2247 115.56 26.3847 115.56 37.6487C115.56 48.4647 113.128 56.4647 108.264 61.6487C103.464 66.7687 96.136 69.3287 86.28 69.3287ZM86.28 60.4967C92.744 60.4967 97.48 58.7367 100.488 55.2167C103.56 51.6327 105.096 45.7767 105.096 37.6487C105.096 29.0727 103.56 23.0887 100.488 19.6967C97.48 16.2407 92.744 14.5127 86.28 14.5127C79.88 14.5127 75.144 16.2407 72.072 19.6967C69.064 23.0887 67.56 29.0727 67.56 37.6487C67.56 45.7767 69.064 51.6327 72.072 55.2167C75.144 58.7367 79.88 60.4967 86.28 60.4967Z" fill="#0C2503"/>
</svg>
