<svg width="128" height="128" viewBox="0 0 128 128" fill="none" xmlns="http://www.w3.org/2000/svg">
<path d="M122.785 58.89L115.785 41.39C115.269 40.0882 114.373 38.9721 113.214 38.1872C112.054 37.4023 110.685 36.9851 109.285 36.99H91V32C91 31.2044 90.6839 30.4413 90.1213 29.8787C89.5587 29.3161 88.7956 29 88 29H12C10.1435 29 8.36301 29.7375 7.05025 31.0503C5.7375 32.363 5 34.1435 5 36V92C5 93.8565 5.7375 95.637 7.05025 96.9497C8.36301 98.2625 10.1435 99 12 99H21.3C21.9885 102.391 23.8282 105.439 26.5072 107.629C29.1863 109.819 32.5399 111.015 36 111.015C39.4601 111.015 42.8137 109.819 45.4928 107.629C48.1718 105.439 50.0115 102.391 50.7 99H77.3C77.9885 102.391 79.8282 105.439 82.5072 107.629C85.1863 109.819 88.5399 111.015 92 111.015C95.4601 111.015 98.8137 109.819 101.493 107.629C104.172 105.439 106.011 102.391 106.7 99H116C117.857 99 119.637 98.2625 120.95 96.9497C122.262 95.637 123 93.8565 123 92V60C122.999 59.6197 122.926 59.243 122.785 58.89ZM91 43H109.29C109.49 42.9998 109.686 43.0598 109.852 43.1721C110.018 43.2844 110.146 43.4439 110.22 43.63L115.57 57H91V43ZM11 36C11 35.7348 11.1054 35.4804 11.2929 35.2929C11.4804 35.1054 11.7348 35 12 35H85V69H11V36ZM36 105C34.22 105 32.4799 104.472 30.9999 103.483C29.5198 102.494 28.3663 101.089 27.6851 99.4442C27.0039 97.7996 26.8257 95.99 27.1729 94.2442C27.5202 92.4984 28.3774 90.8947 29.636 89.636C30.8947 88.3774 32.4984 87.5202 34.2442 87.1729C35.99 86.8257 37.7996 87.0039 39.4441 87.6851C41.0887 88.3663 42.4943 89.5198 43.4832 90.9999C44.4722 92.4799 45 94.22 45 96C45 98.3869 44.0518 100.676 42.364 102.364C40.6761 104.052 38.3869 105 36 105ZM77.3 93H50.7C50.0115 89.6091 48.1718 86.5606 45.4928 84.3709C42.8137 82.1812 39.4601 80.985 36 80.985C32.5399 80.985 29.1863 82.1812 26.5072 84.3709C23.8282 86.5606 21.9885 89.6091 21.3 93H12C11.7348 93 11.4804 92.8946 11.2929 92.7071C11.1054 92.5196 11 92.2652 11 92V75H85V82.74C83.0399 83.7772 81.3332 85.2348 80.0021 87.0085C78.671 88.7822 77.7483 90.8282 77.3 93ZM92 105C90.22 105 88.4799 104.472 86.9999 103.483C85.5198 102.494 84.3663 101.089 83.6851 99.4442C83.0039 97.7996 82.8257 95.99 83.1729 94.2442C83.5202 92.4984 84.3774 90.8947 85.636 89.636C86.8947 88.3774 88.4984 87.5202 90.2442 87.1729C91.99 86.8257 93.7996 87.0039 95.4442 87.6851C97.0887 88.3663 98.4943 89.5198 99.4832 90.9999C100.472 92.4799 101 94.22 101 96C101 98.3869 100.052 100.676 98.364 102.364C96.6761 104.052 94.3869 105 92 105ZM117 92C117 92.2652 116.895 92.5196 116.707 92.7071C116.52 92.8946 116.265 93 116 93H106.7C106.004 89.6141 104.162 86.5717 101.484 84.3857C98.8063 82.1998 95.4567 81.004 92 81C91.665 81 91.33 81 91 81.035V63H117V92Z" fill="#2A7224"/>
</svg>
