<svg width="175" height="175" viewBox="0 0 175 175" fill="none" xmlns="http://www.w3.org/2000/svg">
<path d="M6.25 143.75C6.25 143.75 31.25 118.75 87.5 118.75M87.5 118.75C143.75 118.75 168.75 143.75 168.75 143.75M87.5 118.75V168.75M31.25 168.75L75 119.125M143.75 168.75L100 119.125M44.25 93.75C44.0595 91.671 44.0595 89.579 44.25 87.5C44.25 75.8968 48.8594 64.7688 57.0641 56.5641C65.2688 48.3594 76.3968 43.75 88 43.75C99.6032 43.75 110.731 48.3594 118.936 56.5641C127.141 64.7688 131.75 75.8968 131.75 87.5C131.94 89.579 131.94 91.671 131.75 93.75M6.25 87.5H18.75M31.25 31.25L37.5 37.5M87.5 6.25V18.75M143.75 31.25L137.5 37.5M168.75 87.5H156.25" stroke="#FFCC17" stroke-width="2" stroke-linecap="round" stroke-linejoin="round"/>
</svg>
