<svg width="128" height="128" viewBox="0 0 128 128" fill="none" xmlns="http://www.w3.org/2000/svg">
<path d="M37.3333 80.0001V80.0534M90.6667 90.6667C90.6667 93.4957 91.7905 96.2088 93.7909 98.2092C95.7913 100.21 98.5044 101.333 101.333 101.333C104.162 101.333 106.875 100.21 108.876 98.2092C110.876 96.2088 112 93.4957 112 90.6667C112 87.8378 110.876 85.1247 108.876 83.1243C106.875 81.1239 104.162 80.0001 101.333 80.0001C98.5044 80.0001 95.7913 81.1239 93.7909 83.1243C91.7905 85.1247 90.6667 87.8378 90.6667 90.6667ZM90.6667 90.6667H56M16 80.0001C16 85.658 18.2476 91.0842 22.2484 95.085C26.2492 99.0858 31.6754 101.333 37.3333 101.333C42.9913 101.333 48.4175 99.0858 52.4183 95.085C56.4191 91.0842 58.6667 85.658 58.6667 80.0001C58.6667 74.3421 56.4191 68.9159 52.4183 64.9151C48.4175 60.9144 42.9913 58.6667 37.3333 58.6667C31.6754 58.6667 26.2492 60.9144 22.2484 64.9151C18.2476 68.9159 16 74.3421 16 80.0001Z" stroke="#2A7224" stroke-width="5" stroke-linecap="round" stroke-linejoin="round"/>
<path d="M106.667 81.0667V58.6667C106.667 57.2523 106.105 55.8957 105.105 54.8955C104.104 53.8953 102.748 53.3334 101.333 53.3334H69.3333L58.6666 26.6667H26.6666V61.3334" stroke="#2A7224" stroke-width="5" stroke-linecap="round" stroke-linejoin="round"/>
<path d="M95.9999 26.6667H90.6666C89.2521 26.6667 87.8955 27.2287 86.8953 28.2288C85.8952 29.229 85.3333 30.5856 85.3333 32.0001V53.3334" stroke="#2A7224" stroke-width="5" stroke-linecap="round" stroke-linejoin="round"/>
</svg>
