<svg width="800" height="1134" viewBox="0 0 800 1134" fill="none" xmlns="http://www.w3.org/2000/svg">
<path fill-rule="evenodd" clip-rule="evenodd" d="M19.1666 2.66676C19.1666 1.28606 20.2859 0.166763 21.6666 0.166763H53.6666C54.6889 0.166763 55.6082 0.789139 55.9878 1.73828L66.0259 26.8334H77.8333V8.00009C77.8333 5.92258 78.6586 3.93013 80.1276 2.46109C81.5966 0.992065 83.5891 0.166763 85.6666 0.166763H91C92.3807 0.166763 93.5 1.28606 93.5 2.66676C93.5 4.04747 92.3807 5.16676 91 5.16676H85.6666C84.9152 5.16676 84.1945 5.46527 83.6631 5.99663C83.1318 6.52798 82.8333 7.24864 82.8333 8.00009V26.8334H96.3333C98.4108 26.8334 100.403 27.6587 101.872 29.1278C103.341 30.5968 104.167 32.5892 104.167 34.6668V56.0837C104.687 56.4686 105.181 56.8935 105.644 57.3565C108.113 59.8258 109.5 63.1747 109.5 66.6668C109.5 70.1588 108.113 73.5078 105.644 75.977C103.174 78.4462 99.8253 79.8334 96.3333 79.8334C92.8413 79.8334 89.4923 78.4462 87.023 75.977C85.1515 74.1054 83.9015 71.7284 83.4061 69.1668H52.1996C51.327 70.4834 50.3195 71.7193 49.186 72.8528C44.7164 77.3224 38.6543 79.8334 32.3333 79.8334C26.0123 79.8334 19.9502 77.3224 15.4806 72.8528C11.011 68.3832 8.49995 62.3211 8.49995 56.0001C8.49995 49.6791 11.011 43.617 15.4806 39.1474C16.6141 38.0139 17.85 37.0063 19.1666 36.1338V2.66676ZM80.3333 31.8334H64.3333C63.311 31.8334 62.3918 31.2111 62.0121 30.2619L51.974 5.16676H24.1666V33.6096C26.7592 32.6639 29.5206 32.1668 32.3333 32.1668C38.6543 32.1668 44.7164 34.6778 49.186 39.1474C53.6556 43.617 56.1666 49.6791 56.1666 56.0001C56.1666 58.8127 55.6694 61.5741 54.7238 64.1668H83.4061C83.9015 61.6051 85.1515 59.2281 87.023 57.3565C89.4923 54.8873 92.8413 53.5001 96.3333 53.5001C97.2936 53.5001 98.2432 53.605 99.1666 53.8085V34.6668C99.1666 33.9153 98.8681 33.1946 98.3368 32.6633C97.8054 32.1319 97.0847 31.8334 96.3333 31.8334H80.3333ZM32.3333 37.1668C27.3384 37.1668 22.548 39.151 19.0161 42.6829C15.4842 46.2149 13.4999 51.0052 13.4999 56.0001C13.4999 60.995 15.4842 65.7853 19.0161 69.3173C22.548 72.8492 27.3384 74.8334 32.3333 74.8334C37.3282 74.8334 42.1185 72.8492 45.6505 69.3173C49.1824 65.7853 51.1666 60.995 51.1666 56.0001C51.1666 51.0052 49.1824 46.2149 45.6505 42.6829C42.1185 39.151 37.3282 37.1668 32.3333 37.1668ZM32.3333 53.5001C33.714 53.5001 34.8333 54.6194 34.8333 56.0001V56.0534C34.8333 57.4341 33.714 58.5534 32.3333 58.5534C30.9526 58.5534 29.8333 57.4341 29.8333 56.0534V56.0001C29.8333 54.6194 30.9526 53.5001 32.3333 53.5001ZM96.3333 58.5001C94.1674 58.5001 92.0901 59.3605 90.5586 60.8921C89.027 62.4236 88.1666 64.5008 88.1666 66.6668C88.1666 68.8327 89.027 70.9099 90.5586 72.4415C92.0901 73.973 94.1674 74.8334 96.3333 74.8334C98.4992 74.8334 100.576 73.973 102.108 72.4415C103.64 70.9099 104.5 68.8327 104.5 66.6668C104.5 64.5008 103.64 62.4236 102.108 60.8921C100.576 59.3605 98.4992 58.5001 96.3333 58.5001ZM777.005 344.204C776.445 343.924 775.822 343.796 775.198 343.834C774.574 343.871 773.97 344.073 773.449 344.418L739.778 366.96V347.369C739.779 346.693 739.587 346.03 739.225 345.459C738.863 344.888 738.345 344.432 737.733 344.145C737.121 343.857 736.44 343.75 735.769 343.836C735.099 343.923 734.466 344.198 733.947 344.631L705.929 367.778H693.556V334.427C693.576 333.605 693.31 332.801 692.805 332.153C692.299 331.505 691.584 331.052 690.782 330.871L676.56 327.671C676.035 327.553 675.491 327.556 674.967 327.679C674.444 327.802 673.955 328.043 673.538 328.382C673.111 328.728 672.77 329.168 672.542 329.668C672.313 330.167 672.204 330.713 672.222 331.262V367.778H668.667C667.724 367.778 666.819 368.152 666.153 368.819C665.486 369.486 665.111 370.39 665.111 371.333V428.222C665.111 429.165 665.486 430.07 666.153 430.736C666.819 431.403 667.724 431.778 668.667 431.778H775.333C776.276 431.778 777.181 431.403 777.848 430.736C778.514 430.07 778.889 429.165 778.889 428.222V347.369C778.894 346.72 778.721 346.081 778.388 345.524C778.056 344.966 777.578 344.51 777.005 344.204ZM679.333 335.778L686.444 337.342V367.778H679.333V335.778ZM771.778 424.667H672.222V374.889H707.173C708.004 374.89 708.809 374.601 709.449 374.071L732.667 354.871V373.644C732.666 374.29 732.841 374.924 733.173 375.478C733.505 376.032 733.982 376.485 734.552 376.789C735.122 377.092 735.765 377.234 736.41 377.2C737.055 377.166 737.678 376.957 738.213 376.595L771.778 354.053V424.667ZM707.778 381.964H679.333V389.076H707.778V381.964ZM707.778 396.187H679.333V403.298H707.778V396.187ZM707.778 410.409H679.333V417.52H707.778V410.409ZM732.667 385.52H725.556V396.187H732.667V385.52ZM732.667 406.853H725.556V417.52H732.667V406.853ZM746.889 385.52H739.778V396.187H746.889V385.52ZM746.889 406.853H739.778V417.52H746.889V406.853ZM761.111 385.52H754V396.187H761.111V385.52ZM761.111 406.853H754V417.52H761.111V406.853ZM722.89 1025.09C724.005 1024.7 725.178 1024.5 726.36 1024.5C726.64 1024.5 726.919 1024.55 727.184 1024.64L727.185 1024.64L727.187 1024.64L727.187 1024.64L727.188 1024.64L727.218 1024.65C727.249 1024.66 727.302 1024.68 727.375 1024.7C727.44 1024.72 727.522 1024.75 727.619 1024.78C727.682 1024.8 727.752 1024.82 727.829 1024.84C727.9 1024.86 727.977 1024.88 728.06 1024.9C728.676 1025.08 729.605 1025.31 730.808 1025.55C733.215 1026.02 736.713 1026.5 741 1026.5C745.287 1026.5 748.785 1026.02 751.192 1025.55C752.395 1025.31 753.324 1025.08 753.94 1024.9C754.248 1024.82 754.478 1024.75 754.625 1024.7C754.698 1024.68 754.751 1024.66 754.782 1024.65L754.812 1024.64L754.813 1024.64C755.079 1024.55 755.358 1024.5 755.64 1024.5C756.821 1024.5 757.994 1024.7 759.108 1025.09L759.11 1025.09L761.098 1025.79C761.123 1025.79 761.147 1025.8 761.172 1025.81C761.186 1025.82 761.2 1025.82 761.213 1025.83L797.826 1038.64C798.993 1039.05 799.686 1040.25 799.457 1041.46L795.299 1063.46C795.095 1064.54 794.213 1065.36 793.123 1065.48L780.904 1066.86L780.903 1066.86C780.03 1066.96 779.227 1067.39 778.652 1068.05C778.076 1068.71 777.772 1069.57 777.799 1070.45L777.799 1070.45L779.499 1130.93C779.518 1131.6 779.263 1132.26 778.792 1132.74C778.322 1133.23 777.675 1133.5 777 1133.5H705C704.325 1133.5 703.678 1133.23 703.208 1132.74C702.737 1132.26 702.482 1131.6 702.501 1130.93L704.201 1070.45L704.201 1070.45C704.228 1069.57 703.924 1068.71 703.348 1068.05C702.773 1067.39 701.97 1066.96 701.097 1066.86L701.096 1066.86L688.877 1065.48C687.787 1065.36 686.905 1064.54 686.701 1063.46L682.543 1041.46C682.314 1040.25 683.007 1039.05 684.174 1038.64L720.787 1025.83C720.825 1025.81 720.863 1025.8 720.902 1025.79L722.89 1025.09ZM720.103 1031.36L687.856 1042.65L691.271 1060.72L701.658 1061.9L701.659 1061.9C703.779 1062.14 705.731 1063.16 707.128 1064.78C708.524 1066.39 709.263 1068.47 709.199 1070.6L709.199 1070.6L707.571 1128.5H774.429L772.801 1070.6L772.801 1070.6C772.737 1068.46 773.477 1066.39 774.872 1064.78C776.269 1063.16 778.221 1062.14 780.341 1061.9L780.342 1061.9L790.729 1060.72L794.144 1042.65L761.897 1031.36C760.405 1035.1 757.93 1038.39 754.713 1040.86C750.78 1043.88 745.96 1045.52 741 1045.52C736.04 1045.52 731.22 1043.88 727.287 1040.86C724.07 1038.39 721.595 1035.1 720.103 1031.36ZM757.169 1029.72C756 1032.54 754.108 1035.02 751.665 1036.9C748.607 1039.25 744.858 1040.52 741 1040.52C737.142 1040.52 733.393 1039.25 730.335 1036.9C727.892 1035.02 726 1032.54 724.831 1029.72C725.213 1029.61 725.606 1029.54 726.003 1029.51C726.045 1029.52 726.09 1029.54 726.138 1029.55C726.194 1029.57 726.255 1029.59 726.319 1029.61C726.439 1029.64 726.573 1029.68 726.719 1029.72C727.45 1029.92 728.504 1030.19 729.843 1030.45C732.52 1030.98 736.342 1031.5 741 1031.5C745.658 1031.5 749.48 1030.98 752.157 1030.45C753.496 1030.19 754.55 1029.92 755.281 1029.72C755.441 1029.68 755.586 1029.63 755.715 1029.6C755.819 1029.57 755.913 1029.54 755.997 1029.51C756.394 1029.54 756.787 1029.61 757.169 1029.72ZM117.785 747.89L110.785 730.39C110.269 729.088 109.373 727.972 108.214 727.187C107.054 726.402 105.685 725.985 104.285 725.99H86V721C86 720.204 85.6839 719.441 85.1213 718.879C84.5587 718.316 83.7956 718 83 718H7C5.14348 718 3.36301 718.737 2.05025 720.05C0.737498 721.363 0 723.143 0 725V781C0 782.857 0.737498 784.637 2.05025 785.95C3.36301 787.263 5.14348 788 7 788H16.3C16.9885 791.391 18.8282 794.439 21.5072 796.629C24.1863 798.819 27.5399 800.015 31 800.015C34.4601 800.015 37.8137 798.819 40.4928 796.629C43.1718 794.439 45.0115 791.391 45.7 788H72.3C72.9885 791.391 74.8282 794.439 77.5072 796.629C80.1863 798.819 83.5399 800.015 87 800.015C90.4601 800.015 93.8137 798.819 96.4928 796.629C99.1718 794.439 101.011 791.391 101.7 788H111C112.857 788 114.637 787.263 115.95 785.95C117.262 784.637 118 782.857 118 781V749C117.999 748.62 117.926 748.243 117.785 747.89ZM86 732H104.29C104.49 732 104.686 732.06 104.852 732.172C105.018 732.284 105.146 732.444 105.22 732.63L110.57 746H86V732ZM6 725C6 724.735 6.10536 724.48 6.29289 724.293C6.48043 724.105 6.73478 724 7 724H80V758H6V725ZM31 794C29.22 794 27.4799 793.472 25.9999 792.483C24.5198 791.494 23.3663 790.089 22.6851 788.444C22.0039 786.8 21.8257 784.99 22.1729 783.244C22.5202 781.498 23.3774 779.895 24.636 778.636C25.8947 777.377 27.4984 776.52 29.2442 776.173C30.99 775.826 32.7996 776.004 34.4441 776.685C36.0887 777.366 37.4943 778.52 38.4832 780C39.4722 781.48 40 783.22 40 785C40 787.387 39.0518 789.676 37.364 791.364C35.6761 793.052 33.3869 794 31 794ZM72.3 782H45.7C45.0115 778.609 43.1718 775.561 40.4928 773.371C37.8137 771.181 34.4601 769.985 31 769.985C27.5399 769.985 24.1863 771.181 21.5072 773.371C18.8282 775.561 16.9885 778.609 16.3 782H7C6.73478 782 6.48043 781.895 6.29289 781.707C6.10536 781.52 6 781.265 6 781V764H80V771.74C78.0399 772.777 76.3333 774.235 75.0021 776.009C73.671 777.782 72.7483 779.828 72.3 782ZM87 794C85.22 794 83.4799 793.472 81.9999 792.483C80.5198 791.494 79.3663 790.089 78.6851 788.444C78.0039 786.8 77.8257 784.99 78.1729 783.244C78.5202 781.498 79.3774 779.895 80.636 778.636C81.8947 777.377 83.4984 776.52 85.2442 776.173C86.99 775.826 88.7996 776.004 90.4442 776.685C92.0887 777.366 93.4943 778.52 94.4832 780C95.4722 781.48 96 783.22 96 785C96 787.387 95.0518 789.676 93.364 791.364C91.6761 793.052 89.3869 794 87 794ZM112 781C112 781.265 111.895 781.52 111.707 781.707C111.52 781.895 111.265 782 111 782H101.7C101.004 778.614 99.1619 775.572 96.4841 773.386C93.8063 771.2 90.4567 770.004 87 770C86.665 770 86.33 770 86 770.035V752H112V781ZM59.7722 137.686C63.1558 141.277 68.6673 145.413 76.504 149.788C76.9862 150.057 77.5954 149.885 77.8646 149.403C78.1338 148.92 77.9611 148.311 77.4789 148.042C69.7387 143.721 64.4189 139.701 61.2278 136.314L59.7722 137.686ZM115 163.9C114.476 163.727 113.91 164.011 113.736 164.535C113.563 165.059 113.847 165.625 114.371 165.799C125.69 169.551 138.812 173.231 153.871 176.659C154.409 176.782 154.945 176.445 155.068 175.906C155.19 175.368 154.853 174.832 154.315 174.709C139.312 171.293 126.253 167.631 115 163.9ZM194.456 182.396C193.911 182.309 193.398 182.68 193.311 183.226C193.225 183.771 193.596 184.284 194.142 184.371C206.697 186.37 220.22 188.184 234.755 189.754C235.304 189.814 235.797 189.416 235.856 188.867C235.916 188.318 235.519 187.825 234.97 187.766C220.467 186.199 206.977 184.389 194.456 182.396ZM275.737 191.307C275.186 191.27 274.71 191.687 274.673 192.238C274.636 192.789 275.053 193.266 275.604 193.303C288.566 194.172 302.19 194.856 316.495 195.327C317.047 195.346 317.509 194.913 317.527 194.361C317.546 193.809 317.113 193.347 316.561 193.329C302.277 192.858 288.677 192.175 275.737 191.307ZM437.288 195.666C451.017 195.659 464.154 195.713 476.717 195.844C477.269 195.849 477.722 195.406 477.727 194.854C477.733 194.302 477.29 193.85 476.738 193.844C464.166 193.713 451.022 193.659 437.287 193.666C436.734 193.667 436.287 194.115 436.287 194.667C436.287 195.219 436.735 195.667 437.288 195.666ZM397.803 195.832C398.355 195.828 398.8 195.377 398.796 194.824C398.792 194.272 398.341 193.828 397.788 193.832C391.306 193.879 384.707 193.936 377.99 194C371.033 194.067 364.208 194.087 357.513 194.063C356.961 194.061 356.512 194.507 356.51 195.059C356.508 195.611 356.954 196.061 357.506 196.063C364.21 196.087 371.044 196.067 378.01 196C384.725 195.936 391.322 195.879 397.803 195.832ZM516.188 194.57C515.636 194.554 515.176 194.989 515.16 195.541C515.145 196.094 515.58 196.554 516.132 196.569C530.063 196.956 543.158 197.483 555.453 198.175C556.004 198.206 556.477 197.784 556.508 197.233C556.539 196.681 556.117 196.209 555.565 196.178C543.248 195.485 530.134 194.957 516.188 194.57ZM594.981 199.275C594.431 199.217 593.939 199.615 593.881 200.164C593.823 200.714 594.221 201.206 594.771 201.264C609.126 202.78 622.059 204.663 633.666 206.981C634.208 207.089 634.735 206.737 634.843 206.196C634.951 205.654 634.6 205.127 634.058 205.019C622.377 202.687 609.381 200.796 594.981 199.275ZM672.056 216.044C671.546 215.832 670.961 216.073 670.748 216.582C670.536 217.092 670.777 217.678 671.286 217.89C685.067 223.636 695.575 230.754 703.27 239.52C703.634 239.936 704.266 239.977 704.681 239.612C705.096 239.248 705.137 238.616 704.773 238.201C696.83 229.152 686.043 221.876 672.056 216.044ZM720.988 274.146C720.898 273.601 720.383 273.232 719.838 273.323C719.293 273.413 718.925 273.928 719.015 274.473C720.018 280.512 720.5 287.01 720.5 294H722.5C722.5 286.919 722.012 280.31 720.988 274.146ZM704.222 525.263C711.624 520.928 717.599 516.87 722.121 513.284L720.879 511.716C716.446 515.231 710.554 519.237 703.211 523.537C702.735 523.816 702.574 524.429 702.854 524.905C703.133 525.382 703.745 525.542 704.222 525.263ZM665.594 544.233C666.104 544.02 666.344 543.434 666.13 542.924C665.917 542.415 665.331 542.175 664.822 542.388C652.969 547.354 639.55 552.339 624.584 557.115C624.058 557.283 623.768 557.845 623.935 558.372C624.103 558.898 624.666 559.188 625.192 559.02C640.212 554.227 653.686 549.222 665.594 544.233ZM583.805 570.584C584.342 570.453 584.672 569.913 584.541 569.376C584.411 568.839 583.871 568.51 583.334 568.64C570.199 571.825 556.209 574.786 541.372 577.427C540.828 577.524 540.466 578.043 540.563 578.587C540.659 579.13 541.179 579.493 541.722 579.396C556.6 576.748 570.63 573.779 583.805 570.584ZM499.226 585.728C499.775 585.662 500.165 585.163 500.099 584.615C500.032 584.067 499.534 583.676 498.986 583.743C485.335 585.397 471.101 586.768 456.287 587.801C455.736 587.839 455.32 588.317 455.359 588.868C455.397 589.419 455.875 589.834 456.426 589.796C471.274 588.761 485.542 587.386 499.226 585.728ZM413.525 591.76C414.077 591.747 414.514 591.29 414.502 590.738C414.49 590.186 414.032 589.748 413.48 589.76C406.433 589.919 399.273 590 392 590C387.111 590 382.273 589.999 377.486 589.998L372.391 589.997C371.839 589.997 371.391 590.445 371.391 590.997C371.391 591.549 371.838 591.997 372.39 591.997L377.485 591.998C382.272 591.999 387.111 592 392 592C399.288 592 406.463 591.918 413.525 591.76ZM294.054 592.204C306.634 592.099 319.684 592.046 333.203 592.02C333.755 592.019 334.202 591.57 334.201 591.018C334.2 590.466 333.752 590.019 333.199 590.02C319.677 590.046 306.623 590.099 294.037 590.204C293.485 590.209 293.041 590.66 293.046 591.213C293.05 591.765 293.502 592.209 294.054 592.204ZM254.894 592.762C255.446 592.75 255.884 592.293 255.872 591.741C255.86 591.189 255.403 590.751 254.851 590.763C241.116 591.058 228.043 591.466 215.633 592.03C215.082 592.055 214.655 592.523 214.68 593.075C214.705 593.626 215.172 594.053 215.724 594.028C228.114 593.465 241.171 593.057 254.894 592.762ZM176.694 596.556C177.245 596.507 177.651 596.022 177.603 595.472C177.554 594.922 177.069 594.515 176.518 594.564C162.43 595.809 149.445 597.393 137.569 599.408C137.024 599.5 136.658 600.017 136.75 600.561C136.842 601.106 137.359 601.472 137.903 601.38C149.714 599.375 162.645 597.797 176.694 596.556ZM100.087 610.643C100.608 610.462 100.885 609.892 100.703 609.37C100.522 608.848 99.9522 608.572 99.4305 608.754C85.3539 613.643 73.8544 619.822 64.9919 627.645C64.5778 628.01 64.5384 628.642 64.9039 629.056C65.2694 629.47 65.9013 629.51 66.3154 629.144C74.928 621.542 86.1754 615.475 100.087 610.643ZM47.0304 661.739C47.1539 661.201 46.8175 660.665 46.2792 660.541C45.7409 660.418 45.2045 660.754 45.081 661.292C43.6922 667.35 43 673.906 43 681H45C45 674.036 45.6796 667.631 47.0304 661.739ZM43.2637 851.677C46.9515 855.69 51.7947 860.204 57.7834 865.023C58.2137 865.369 58.8432 865.301 59.1894 864.871C59.5356 864.44 59.4675 863.811 59.0372 863.465C53.11 858.695 48.3435 854.249 44.7363 850.323L43.2637 851.677ZM91.4416 885.24C90.9623 884.965 90.3513 885.132 90.077 885.611C89.8027 886.09 89.969 886.701 90.4483 886.976C100.748 892.869 112.463 898.8 125.589 904.498C126.096 904.717 126.685 904.485 126.905 903.978C127.125 903.472 126.892 902.883 126.386 902.663C113.326 896.994 101.676 891.096 91.4416 885.24ZM162.958 916.527C162.433 916.354 161.868 916.64 161.696 917.165C161.523 917.69 161.809 918.255 162.334 918.427C174.137 922.303 186.751 925.911 200.175 929.133C200.712 929.262 201.251 928.931 201.38 928.394C201.509 927.857 201.178 927.317 200.641 927.188C187.271 923.979 174.709 920.386 162.958 916.527ZM239 934.878C238.455 934.789 237.941 935.159 237.853 935.704C237.764 936.249 238.134 936.763 238.679 936.852C251.11 938.874 264.104 940.552 277.658 941.815C278.208 941.867 278.695 941.462 278.746 940.912C278.798 940.363 278.393 939.875 277.844 939.824C264.335 938.565 251.386 936.893 239 934.878ZM316.884 942.209C316.332 942.192 315.871 942.626 315.855 943.179C315.838 943.731 316.273 944.191 316.825 944.208C323.274 944.401 329.832 944.5 336.5 944.5C343.701 944.5 350.893 944.508 358.069 944.527C358.621 944.529 359.07 944.082 359.071 943.53C359.073 942.978 358.626 942.529 358.074 942.527C350.896 942.508 343.702 942.5 336.5 942.5C329.852 942.5 323.314 942.401 316.884 942.209ZM401.229 942.788C400.676 942.783 400.224 943.226 400.219 943.778C400.213 944.33 400.657 944.783 401.209 944.788C415.747 944.932 430.147 945.138 444.337 945.426C444.889 945.437 445.346 944.998 445.357 944.446C445.368 943.894 444.929 943.437 444.377 943.426C430.179 943.139 415.773 942.932 401.229 942.788ZM487.485 944.59C486.933 944.571 486.47 945.003 486.451 945.555C486.432 946.107 486.864 946.57 487.416 946.589C502.145 947.098 516.547 947.722 530.535 948.485C531.086 948.515 531.558 948.092 531.588 947.541C531.618 946.989 531.195 946.518 530.644 946.488C516.641 945.725 502.225 945.1 487.485 944.59ZM573.666 949.407C573.115 949.362 572.632 949.771 572.586 950.321C572.541 950.872 572.95 951.355 573.5 951.401C588.515 952.648 602.854 954.11 616.383 955.824C616.931 955.893 617.431 955.505 617.5 954.958C617.57 954.41 617.182 953.909 616.634 953.84C603.072 952.122 588.704 950.656 573.666 949.407ZM659.28 960.67C658.738 960.561 658.211 960.911 658.102 961.453C657.993 961.994 658.343 962.522 658.885 962.631C674.621 965.802 688.549 969.509 700.337 973.838C700.856 974.028 701.43 973.762 701.621 973.244C701.811 972.725 701.545 972.151 701.027 971.96C689.114 967.586 675.081 963.854 659.28 960.67ZM737.851 994.605C737.5 994.178 736.87 994.117 736.443 994.468C736.017 994.819 735.956 995.449 736.307 995.876C741.03 1001.62 743.5 1007.96 743.5 1015H745.5C745.5 1007.44 742.835 1000.66 737.851 994.605Z" fill="#2A7224"/>
</svg>
