<svg version="1.1" id="Layer_1" xmlns="http://www.w3.org/2000/svg" xmlns:xlink="http://www.w3.org/1999/xlink" x="0px" y="0px"
	 width="100%" viewBox="0 0 4088 4022" enable-background="new 0 0 4088 4022" xml:space="preserve">
<path fill="#32FE59" opacity="1.000000" stroke="none" 
	d="
M2949.842285,1215.975830 
	C2954.840332,1216.036865 2959.838623,1216.151489 2964.836670,1216.151611 
	C3319.120605,1216.160034 3673.404541,1216.256348 4027.688232,1215.961304 
	C4053.971436,1215.939453 4073.144287,1225.999390 4086.298584,1248.377686 
	C4086.755859,1249.155640 4087.809814,1249.582886 4089.292969,1250.086914 
	C4090.000000,2162.708496 4090.000000,3075.416992 4089.298340,3989.015625 
	C4087.683350,3990.815430 4086.476318,3991.570312 4085.902344,3992.658691 
	C4079.698730,4004.421875 4070.934570,4013.532227 4058.993652,4019.602783 
	C4057.608643,4020.307129 4056.979736,4022.498291 4056.000000,4024.000000 
	C2717.958252,4024.000000 1379.916382,4024.000000 40.983864,4023.295898 
	C39.470192,4021.839844 39.001411,4020.768066 38.201668,4020.382324 
	C22.531992,4012.816650 11.555945,4001.060059 5.618457,3984.602051 
	C5.202868,3983.449463 3.242170,3982.854492 1.999971,3982.000000 
	C2.000000,3074.625000 2.000000,2167.249756 2.000009,1258.937256 
	C3.479072,1256.558228 5.562161,1255.386841 6.346396,1253.634155 
	C17.817837,1227.996216 37.745308,1216.120972 65.565254,1216.124023 
	C528.635925,1216.173950 991.706665,1216.159912 1454.777344,1216.155273 
	C1459.440796,1216.155273 1464.104370,1216.092285 1470.625854,1216.102783 
	C1475.804077,1216.289551 1479.124268,1216.556641 1482.444458,1216.557007 
	C1640.320312,1216.577637 1798.196289,1216.578613 1956.072144,1216.551147 
	C1959.381470,1216.550537 1962.690918,1216.189209 1966.910400,1216.201660 
	C1976.552368,1216.315796 1985.284058,1216.224243 1994.929688,1216.356445 
	C2112.590820,1216.578613 2229.337891,1216.581421 2346.085205,1216.550781 
	C2349.390137,1216.549927 2352.695068,1216.192383 2356.879395,1216.219849 
	C2363.176025,1216.325562 2368.593506,1216.212280 2374.927246,1216.312866 
	C2498.248291,1216.543457 2620.653320,1216.563232 2743.058105,1216.556274 
	C2745.369629,1216.556152 2747.680908,1216.241455 2750.873535,1216.285400 
	C2757.171387,1216.349609 2762.588379,1216.202148 2768.920898,1216.273193 
	C2827.199463,1216.519653 2884.562988,1216.555664 2941.926270,1216.549805 
	C2944.564941,1216.549438 2947.203613,1216.175659 2949.842285,1215.975830 
M1553.000000,4007.843994 
	C2377.977295,4007.843994 3202.954346,4007.843994 4027.931641,4007.844238 
	C4030.264893,4007.844238 4032.610840,4008.000244 4034.929688,4007.816895 
	C4051.930176,4006.473389 4064.933105,3998.804688 4071.221680,3982.584961 
	C4073.539551,3976.607666 4074.048096,3969.622070 4074.048828,3963.096436 
	C4074.167236,3134.451660 4074.160645,2305.807129 4074.160156,1477.162476 
	C4074.160156,1474.495850 4074.318115,1471.815796 4074.099854,1469.166870 
	C4073.920166,1466.984375 4073.291260,1464.838867 4072.757812,1462.154297 
	C4067.549316,1462.154297 4062.911133,1462.154297 4058.272949,1462.154297 
	C2717.975342,1462.154297 1377.677612,1462.152832 37.379917,1462.168091 
	C18.279408,1462.168335 20.172485,1460.314575 20.172094,1479.255005 
	C20.155083,2305.899658 20.157408,3132.544434 20.157667,3959.189209 
	C20.157667,3962.522461 19.993942,3965.866699 20.217031,3969.185059 
	C20.393131,3971.804932 20.881968,3974.433838 21.515429,3976.988281 
	C26.303200,3996.295166 45.965324,4008.089844 64.039665,4008.079102 
	C559.692932,4007.784912 1055.346558,4007.843750 1553.000000,4007.843994 
M3459.000000,1445.845337 
	C3663.313965,1445.666870 3867.627930,1445.488770 4071.941895,1445.285400 
	C4072.201904,1445.285156 4072.469238,1444.918091 4072.718994,1444.705688 
	C4072.970947,1444.491089 4073.204834,1444.255493 4073.687500,1443.803589 
	C4073.830566,1442.068848 4074.135010,1440.093262 4074.135986,1438.117432 
	C4074.161865,1382.451050 4074.318848,1326.784058 4074.047852,1271.118896 
	C4073.977051,1256.590698 4066.123291,1246.078003 4053.830322,1238.829590 
	C4046.079834,1234.259888 4037.525879,1233.766479 4028.728027,1233.770142 
	C3665.065186,1233.923584 3301.402344,1234.009277 2937.739502,1234.071167 
	C2745.741455,1234.103760 2553.743164,1234.106567 2361.745117,1234.070312 
	C2064.415527,1234.014160 1767.085693,1233.867065 1469.755981,1233.841675 
	C1004.425537,1233.801758 539.095032,1233.831055 73.764595,1233.831177 
	C70.097954,1233.831177 66.431190,1233.813354 62.764683,1233.835938 
	C37.025566,1233.994629 20.184261,1250.768188 20.166925,1276.385010 
	C20.132414,1327.384644 20.145622,1378.384399 20.162678,1429.384033 
	C20.168793,1447.661865 18.710218,1445.832886 37.021202,1445.833130 
	C1177.014160,1445.846680 2317.007080,1445.845093 3459.000000,1445.845337 
z"/>
<path fill="#FFFDD0" opacity="1.000000" stroke="none" 
	d="
M2949.935059,1215.123291 
	C2947.203613,1216.175659 2944.564941,1216.549438 2941.926270,1216.549805 
	C2884.562988,1216.555664 2827.199463,1216.519653 2768.917969,1215.340332 
	C2768.658936,1204.275635 2769.534180,1194.370850 2769.931885,1184.447021 
	C2770.756104,1163.879639 2771.439209,1143.304810 2771.953125,1122.727417 
	C2772.219238,1112.074585 2772.166992,1101.406494 2771.968506,1090.750610 
	C2771.387451,1059.516113 2770.662354,1028.284546 2769.986572,997.051880 
	C2769.957764,995.721741 2769.909180,994.388428 2769.783691,993.064697 
	C2768.534180,979.895569 2767.122559,966.739807 2766.047852,953.556641 
	C2765.132568,942.329346 2765.073975,931.016296 2763.790771,919.838318 
	C2761.567139,900.467163 2758.860352,881.146240 2756.045166,861.849548 
	C2752.082764,834.687317 2748.804199,807.375305 2743.487305,780.472290 
	C2735.334717,739.217773 2726.600830,698.031433 2716.433838,657.234863 
	C2706.168701,616.045471 2694.224365,575.259033 2682.347656,534.490601 
	C2667.935791,485.019440 2651.019775,436.352814 2632.054932,388.454193 
	C2617.629883,352.021790 2602.493164,315.853973 2586.859375,279.922546 
	C2572.938721,247.928513 2558.711182,216.016724 2543.150146,184.800705 
	C2523.717041,145.817383 2502.889404,107.525505 2482.435303,69.056747 
	C2475.108887,55.277782 2466.971924,41.932198 2459.486572,28.234734 
	C2455.386963,20.733250 2451.875488,12.910356 2448.853027,5.007335 
	C2452.062744,4.647780 2454.534912,4.628736 2456.958008,4.274976 
	C2457.406494,4.209476 2457.657715,2.792974 2458.000000,2.000009 
	C2477.375244,2.000000 2496.750244,2.000000 2517.062744,2.000000 
	C2515.917236,5.671166 2518.946533,5.309484 2520.928711,5.628891 
	C2532.051025,7.420983 2543.275879,8.711550 2554.291016,11.009645 
	C2606.320557,21.864408 2654.060547,42.942692 2698.372070,72.086281 
	C2733.857666,95.425301 2765.442871,123.224342 2794.114502,154.517502 
	C2860.778564,227.276779 2907.562744,311.410736 2938.374268,404.818451 
	C2953.488770,450.639587 2964.021484,497.472687 2970.322021,545.285889 
	C2974.133545,574.208923 2977.777344,603.135132 2978.389160,632.365173 
	C2978.792725,651.625916 2979.847656,670.872620 2980.292969,690.132935 
	C2980.907715,716.733643 2981.673828,743.343506 2981.545654,769.945435 
	C2981.403320,799.532104 2980.426758,829.116943 2979.624268,858.697449 
	C2979.165039,875.625183 2978.561279,892.555664 2977.614502,909.462097 
	C2975.779541,942.241577 2973.984131,975.029175 2971.557861,1007.767883 
	C2969.281006,1038.493530 2966.629639,1069.204590 2963.384033,1099.841797 
	C2959.338623,1138.027710 2954.515381,1176.131470 2949.935059,1215.123291 
z"/>
<path fill="#FFFDD0" opacity="1.000000" stroke="none" 
	d="
M2448.098633,5.232440 
	C2451.875488,12.910356 2455.386963,20.733250 2459.486572,28.234734 
	C2466.971924,41.932198 2475.108887,55.277782 2482.435303,69.056747 
	C2502.889404,107.525505 2523.717041,145.817383 2543.150146,184.800705 
	C2558.711182,216.016724 2572.938721,247.928513 2586.859375,279.922546 
	C2602.493164,315.853973 2617.629883,352.021790 2632.054932,388.454193 
	C2651.019775,436.352814 2667.935791,485.019440 2682.347656,534.490601 
	C2694.224365,575.259033 2706.168701,616.045471 2716.433838,657.234863 
	C2726.600830,698.031433 2735.334717,739.217773 2743.487305,780.472290 
	C2748.804199,807.375305 2752.082764,834.687317 2756.045166,861.849548 
	C2758.860352,881.146240 2761.567139,900.467163 2763.790771,919.838318 
	C2765.073975,931.016296 2765.132568,942.329346 2766.047852,953.556641 
	C2767.122559,966.739807 2768.534180,979.895569 2769.783691,993.064697 
	C2769.909180,994.388428 2769.957764,995.721741 2769.986572,997.051880 
	C2770.662354,1028.284546 2771.387451,1059.516113 2771.968506,1090.750610 
	C2772.166992,1101.406494 2772.219238,1112.074585 2771.953125,1122.727417 
	C2771.439209,1143.304810 2770.756104,1163.879639 2769.931885,1184.447021 
	C2769.534180,1194.370850 2768.658936,1204.275635 2768.002686,1215.121826 
	C2762.588379,1216.202148 2757.171387,1216.349609 2750.875488,1215.365479 
	C2750.689453,1200.317749 2751.351807,1186.400024 2752.080566,1172.485840 
	C2753.363770,1147.981934 2755.414307,1123.490967 2755.781494,1098.974243 
	C2756.119385,1076.406616 2754.699707,1053.811035 2753.989258,1031.229858 
	C2753.362793,1011.312317 2752.653320,991.397400 2751.956055,971.482178 
	C2751.909668,970.158691 2751.645020,968.843567 2751.498291,967.522644 
	C2750.330811,957.006348 2749.037598,946.501892 2748.040527,935.969421 
	C2747.135254,926.404968 2746.978760,916.754761 2745.744629,907.239380 
	C2742.767822,884.286194 2739.608887,861.349915 2736.052002,838.480225 
	C2731.424561,808.726440 2727.121582,778.888306 2721.247803,749.371277 
	C2714.587891,715.903076 2707.171387,682.534912 2698.579346,649.514648 
	C2688.049561,609.047363 2676.139648,568.933899 2664.498779,528.762390 
	C2650.795410,481.473999 2634.368164,435.075287 2616.381348,389.286011 
	C2601.442871,351.255829 2585.369141,313.652588 2568.998779,276.209717 
	C2554.614990,243.310577 2539.647461,210.641098 2523.953125,178.348877 
	C2511.305664,152.326126 2497.482666,126.857613 2483.639648,101.437981 
	C2469.812988,76.048958 2455.259033,51.056736 2441.146240,25.822191 
	C2437.599854,19.481020 2433.327393,13.308005 2433.777832,5.477749 
	C2434.185303,4.647008 2434.593018,3.816286 2434.500488,2.492782 
	C2436.777832,2.000000 2439.555664,2.000000 2442.743408,2.556065 
	C2444.801758,3.818903 2446.450195,4.525676 2448.098633,5.232440 
z"/>
<path fill="#FFFDD0" opacity="1.000000" stroke="none" 
	d="
M1.999971,3982.937744 
	C3.242170,3982.854492 5.202868,3983.449463 5.618457,3984.602051 
	C11.555945,4001.060059 22.531992,4012.816650 38.201668,4020.382324 
	C39.001411,4020.768066 39.470192,4021.839844 40.046547,4023.295898 
	C27.473707,4024.000000 14.947413,4024.000000 2.000000,4024.000000 
	C2.000000,4010.628174 2.000000,3997.251709 1.999971,3982.937744 
z"/>
<path fill="#FFFDD0" opacity="1.000000" stroke="none" 
	d="
M4056.940918,4024.000000 
	C4056.979736,4022.498291 4057.608643,4020.307129 4058.993652,4019.602783 
	C4070.934570,4013.532227 4079.698730,4004.421875 4085.902344,3992.658691 
	C4086.476318,3991.570312 4087.683350,3990.815430 4089.298340,3989.952881 
	C4090.000000,4001.184082 4090.000000,4012.368408 4090.000000,4024.000000 
	C4079.298096,4024.000000 4068.590088,4024.000000 4056.940918,4024.000000 
z"/>
<path fill="#FFFDD0" opacity="1.000000" stroke="none" 
	d="
M2448.853027,5.007344 
	C2446.450195,4.525676 2444.801758,3.818903 2443.576660,2.556065 
	C2448.083252,2.000000 2452.166748,2.000000 2457.125000,2.000009 
	C2457.657715,2.792974 2457.406494,4.209476 2456.958008,4.274976 
	C2454.534912,4.628736 2452.062744,4.647780 2448.853027,5.007344 
z"/>
<path fill="#FFFDD0" opacity="1.000000" stroke="none" 
	d="
M2433.056152,5.780390 
	C2433.327393,13.308005 2437.599854,19.481020 2441.146240,25.822191 
	C2455.259033,51.056736 2469.812988,76.048958 2483.639648,101.437981 
	C2497.482666,126.857613 2511.305664,152.326126 2523.953125,178.348877 
	C2539.647461,210.641098 2554.614990,243.310577 2568.998779,276.209717 
	C2585.369141,313.652588 2601.442871,351.255829 2616.381348,389.286011 
	C2634.368164,435.075287 2650.795410,481.473999 2664.498779,528.762390 
	C2676.139648,568.933899 2688.049561,609.047363 2698.579346,649.514648 
	C2707.171387,682.534912 2714.587891,715.903076 2721.247803,749.371277 
	C2727.121582,778.888306 2731.424561,808.726440 2736.052002,838.480225 
	C2739.608887,861.349915 2742.767822,884.286194 2745.744629,907.239380 
	C2746.978760,916.754761 2747.135254,926.404968 2748.040527,935.969421 
	C2749.037598,946.501892 2750.330811,957.006348 2751.498291,967.522644 
	C2751.645020,968.843567 2751.909668,970.158691 2751.956055,971.482178 
	C2752.653320,991.397400 2753.362793,1011.312317 2753.989258,1031.229858 
	C2754.699707,1053.811035 2756.119385,1076.406616 2755.781494,1098.974243 
	C2755.414307,1123.490967 2753.363770,1147.981934 2752.080566,1172.485840 
	C2751.351807,1186.400024 2750.689453,1200.317749 2749.994629,1215.153809 
	C2747.680908,1216.241455 2745.369629,1216.556152 2743.058105,1216.556274 
	C2620.653320,1216.563232 2498.248291,1216.543457 2374.851562,1215.609497 
	C2368.706543,1206.985596 2363.766357,1199.125854 2358.360107,1191.600830 
	C2342.680664,1169.777344 2326.793457,1148.102905 2311.026855,1126.341797 
	C2296.812500,1106.723022 2282.677490,1087.046753 2268.455811,1067.433472 
	C2254.041016,1047.553955 2239.494385,1027.770142 2225.132080,1007.852905 
	C2210.186523,987.126099 2195.425781,966.265930 2180.523926,945.507263 
	C2162.140625,919.898499 2143.685547,894.341431 2125.280762,868.748169 
	C2111.328857,849.346863 2097.473145,829.875610 2083.453369,810.523499 
	C2066.323730,786.878784 2048.937012,763.419739 2031.897217,739.710815 
	C2008.072021,706.560913 1984.586792,673.166687 1960.734253,640.036621 
	C1929.906372,597.218201 1898.809814,554.593384 1867.925415,511.815430 
	C1848.692993,485.176544 1829.761230,458.320160 1810.475464,431.720306 
	C1784.570190,395.990936 1758.336670,360.499390 1732.458130,324.750824 
	C1702.687378,283.625397 1673.220581,242.279648 1643.375366,201.208633 
	C1641.030762,197.982391 1636.755859,196.158875 1633.378052,193.683472 
	C1643.914917,182.618134 1653.990479,171.063049 1665.096802,160.602264 
	C1681.772583,144.895874 1699.090576,129.886383 1718.815430,117.915291 
	C1744.092896,102.574333 1770.924072,91.436462 1800.521484,88.410759 
	C1828.578735,85.542480 1856.237183,88.492081 1883.285156,96.546303 
	C1911.467896,104.938461 1937.801514,117.466026 1962.921265,132.637054 
	C2008.271118,160.025970 2047.698242,194.671112 2083.552246,233.295593 
	C2129.227295,282.499695 2166.207031,338.069611 2199.427002,396.236328 
	C2228.289795,446.773407 2254.077148,498.891632 2279.476318,551.214539 
	C2280.425537,553.169678 2281.806641,554.914978 2282.986816,556.757996 
	C2283.604004,556.493347 2284.221191,556.228699 2284.838379,555.964050 
	C2283.686768,552.708435 2282.653320,549.405396 2281.365723,546.204529 
	C2267.723633,512.293518 2255.754639,477.777924 2247.448486,442.194336 
	C2241.430420,416.413727 2236.826660,390.269562 2232.543945,364.131622 
	C2230.461914,351.425201 2230.432129,338.368805 2229.708740,325.457642 
	C2229.077881,314.197662 2228.231201,302.909607 2228.428711,291.650574 
	C2229.153320,250.319336 2234.906738,209.710999 2248.045166,170.401321 
	C2262.882324,126.009140 2286.693359,87.076653 2322.366455,56.493763 
	C2352.166016,30.946125 2387.102539,15.170766 2425.833740,8.080394 
	C2428.048340,7.674964 2430.169678,6.760535 2433.056152,5.780390 
M2449.884277,837.478210 
	C2450.369629,837.471252 2450.855225,837.464355 2451.340576,837.457397 
	C2451.098877,836.773193 2450.856934,836.089050 2450.494629,834.977051 
	C2450.494629,834.977051 2449.901367,834.357483 2448.856201,833.310059 
	C2448.149658,832.634888 2447.443359,831.959717 2446.512207,830.151978 
	C2445.779785,829.334656 2445.047363,828.517273 2443.913330,826.449646 
	C2440.979980,822.904175 2438.046875,819.358704 2434.651855,814.819031 
	C2434.250732,814.207886 2433.849609,813.596741 2432.723633,811.802002 
	C2417.244141,789.372498 2401.807861,766.913086 2386.224609,744.556030 
	C2384.523926,742.115967 2381.978271,740.264587 2380.379395,736.811707 
	C2378.903809,734.556641 2377.428223,732.301575 2375.932129,728.689819 
	C2374.945801,727.302734 2373.959717,725.915649 2372.973389,724.528564 
	C2372.463623,725.017273 2371.953857,725.506042 2371.444092,725.994812 
	C2373.002686,727.280457 2374.561523,728.566101 2375.508789,731.164856 
	C2377.013184,733.441650 2378.517578,735.718445 2380.107910,739.410950 
	C2390.571045,755.453003 2400.800049,771.654785 2411.586914,787.476013 
	C2417.871582,796.693665 2425.050049,805.301758 2432.096191,815.395508 
	C2432.671875,815.961731 2433.247559,816.527954 2434.058105,818.327576 
	C2437.022705,821.830261 2439.987305,825.333008 2443.324707,829.939331 
	C2444.125977,830.726685 2444.927246,831.513977 2446.299561,833.581665 
	C2446.897705,834.291199 2447.495850,835.000732 2448.341064,836.200623 
	C2448.341064,836.200623 2448.808594,836.544556 2448.808594,836.544556 
	C2448.808594,836.544556 2449.389648,836.516541 2449.884277,837.478210 
M2354.200195,694.876404 
	C2354.592773,694.886292 2354.985107,694.896179 2355.377686,694.906128 
	C2354.902588,694.617981 2354.427490,694.329834 2354.065186,692.926819 
	C2353.637939,692.788574 2353.210693,692.650330 2352.783447,692.512207 
	C2353.196533,692.997803 2353.609619,693.483398 2354.200195,694.876404 
M2285.655029,563.302734 
	C2285.771484,563.679565 2285.887695,564.056396 2285.955322,565.839294 
	C2289.423828,572.588806 2292.892578,579.338318 2296.361084,586.087830 
	C2297.201416,585.665466 2298.041992,585.243164 2298.882324,584.820801 
	C2295.474365,577.911743 2292.066406,571.002625 2288.169189,563.002930 
	C2287.703613,562.389526 2287.238281,561.776123 2286.512451,559.646667 
	C2285.734375,559.059937 2284.956055,558.473206 2284.177979,557.886475 
	C2284.732666,559.302429 2285.287354,560.718384 2285.655029,563.302734 
M2333.711914,653.932922 
	C2332.733643,653.960266 2331.755615,653.987610 2330.777344,654.014893 
	C2332.337158,657.252563 2333.896729,660.490295 2335.456299,663.727966 
	C2336.164062,663.397766 2336.872070,663.067505 2337.580078,662.737305 
	C2336.509766,660.182495 2335.439209,657.627686 2333.711914,653.932922 
M2340.506836,672.865295 
	C2341.665771,674.468018 2342.824463,676.070679 2345.269287,679.452148 
	C2343.845215,672.439453 2343.845215,672.439453 2340.506836,672.865295 
M2301.714844,593.967041 
	C2301.365967,593.451050 2301.017334,592.935059 2300.668457,592.419006 
	C2300.745117,593.144775 2300.821777,593.870544 2301.714844,593.967041 
M2298.220459,588.980591 
	C2298.606445,589.131775 2298.992432,589.283020 2299.378662,589.434143 
	C2299.260254,589.009399 2299.141846,588.584595 2298.220459,588.980591 
M2339.047119,666.655457 
	C2339.047119,666.655457 2338.809814,667.148438 2338.809814,667.148438 
	C2338.809814,667.148438 2339.305176,667.049133 2339.047119,666.655457 
M2346.934814,681.693542 
	C2347.093994,681.526001 2347.368164,681.365906 2347.379639,681.188721 
	C2347.391357,681.011658 2347.140137,680.817505 2347.004150,680.630859 
	C2346.844971,680.798279 2346.685791,680.965759 2346.934814,681.693542 
M2349.592529,685.111450 
	C2349.202148,685.091003 2348.812012,685.070618 2348.421631,685.050110 
	C2348.604980,685.284790 2348.788330,685.519470 2349.592529,685.111450 
M2351.590576,688.956116 
	C2351.194580,688.923706 2350.798340,688.891296 2350.402344,688.858948 
	C2350.581543,689.101379 2350.760986,689.343811 2351.590576,688.956116 
M2453.079346,840.550659 
	C2453.079346,840.550659 2452.848389,841.064209 2452.848389,841.064209 
	C2452.848389,841.064209 2453.372559,840.946899 2453.079346,840.550659 
M2357.027832,698.161377 
	C2356.885254,698.575439 2356.742676,698.989502 2356.600098,699.403625 
	C2356.990967,699.276917 2357.381592,699.150269 2357.027832,698.161377 
M2359.464111,702.963501 
	C2359.175293,702.927795 2358.886475,702.892090 2358.597656,702.856445 
	C2358.719482,703.054138 2358.841553,703.251831 2359.464111,702.963501 
z"/>
<path fill="#FFFDD0" opacity="1.000000" stroke="none" 
	d="
M1966.000244,1215.996094 
	C1962.690918,1216.189209 1959.381470,1216.550537 1956.072144,1216.551147 
	C1798.196289,1216.578613 1640.320312,1216.577637 1482.444458,1216.557007 
	C1479.124268,1216.556641 1475.804077,1216.289551 1471.603149,1215.990601 
	C1458.938965,1198.156006 1446.830688,1180.684448 1435.433960,1162.760376 
	C1403.361694,1112.319092 1381.300537,1057.714478 1370.776367,998.888977 
	C1364.071533,961.412292 1362.963745,923.606323 1374.234253,886.527283 
	C1388.468628,839.697815 1418.879883,809.117004 1466.287109,795.651794 
	C1501.918091,785.531311 1537.762573,786.526733 1573.748169,792.820618 
	C1610.585693,799.263489 1645.697144,811.179443 1680.766724,827.328186 
	C1682.489502,827.653992 1683.019531,827.529175 1683.549561,827.404358 
	C1683.101318,826.870178 1682.652954,826.336060 1682.204590,825.801941 
	C1661.619263,800.212524 1640.152222,775.275146 1620.639038,748.892639 
	C1584.323730,699.792908 1554.081299,647.134338 1532.581177,589.732788 
	C1521.256836,559.498962 1512.433716,528.601929 1508.408081,496.509033 
	C1501.966919,445.159698 1507.536133,395.247162 1526.653198,346.945251 
	C1543.377441,304.689056 1568.528931,267.727722 1597.489136,233.141129 
	C1606.230591,222.701477 1615.487793,212.693832 1625.723633,202.475220 
	C1627.840820,203.423843 1628.867188,204.296921 1629.626953,205.360443 
	C1643.896118,225.334915 1658.032104,245.405167 1672.403076,265.305939 
	C1690.460815,290.312042 1708.778198,315.130707 1726.846924,340.128967 
	C1741.808838,360.829163 1756.537598,381.697815 1771.433350,402.446014 
	C1789.809082,428.041565 1808.239014,453.598145 1826.667969,479.155457 
	C1841.025269,499.066162 1855.442383,518.933838 1869.787109,538.853577 
	C1888.200439,564.423340 1906.550781,590.038574 1924.960327,615.611084 
	C1939.108154,635.263672 1953.319214,654.870667 1967.477905,674.515442 
	C1985.901001,700.077209 2004.285522,725.666931 2022.714111,751.224670 
	C2037.070557,771.135010 2051.485352,791.003357 2065.844482,810.911865 
	C2081.173096,832.164490 2096.453369,853.451721 2111.778809,874.706238 
	C2125.746582,894.077454 2139.762451,913.413818 2153.728027,932.786499 
	C2168.856689,953.772583 2183.935303,974.794861 2199.066406,995.779175 
	C2213.229004,1015.420715 2227.411133,1035.047974 2241.622070,1054.654541 
	C2255.831055,1074.258423 2270.118896,1093.805054 2284.312500,1113.420166 
	C2301.617920,1137.335693 2319.006348,1161.193237 2336.060547,1185.287231 
	C2343.106689,1195.242188 2349.376953,1205.746460 2356.000000,1216.000977 
	C2352.695068,1216.192383 2349.390137,1216.549927 2346.085205,1216.550781 
	C2229.337891,1216.581421 2112.590820,1216.578613 1994.852051,1215.646851 
	C1991.783447,1212.742920 1989.977295,1210.326904 1987.586426,1208.871460 
	C1966.018433,1195.741455 1944.400391,1182.691772 1922.694336,1169.791016 
	C1895.273438,1153.493774 1867.818970,1137.250610 1840.261108,1121.186035 
	C1818.155640,1108.300171 1795.905884,1095.660645 1773.662598,1083.012817 
	C1751.990723,1070.689697 1730.332397,1058.337891 1708.506470,1046.291870 
	C1689.869019,1036.005737 1670.994751,1026.149170 1652.238647,1016.077454 
	C1617.074585,997.194763 1581.958008,978.222839 1546.744995,959.431763 
	C1530.007202,950.499634 1513.176025,941.733459 1496.241211,933.181274 
	C1463.821777,916.809326 1431.305054,900.630127 1398.801147,884.426147 
	C1396.745972,883.401611 1394.437744,882.199585 1392.276978,882.254395 
	C1389.867310,882.315552 1386.151855,883.105225 1385.426147,884.687866 
	C1384.427246,886.866760 1384.742554,890.860413 1386.216797,892.685608 
	C1388.616699,895.656982 1392.171021,897.970459 1395.652466,899.751892 
	C1435.677979,920.232239 1475.800659,940.522461 1515.857422,960.942078 
	C1540.478271,973.492920 1565.053955,986.132751 1589.600098,998.829041 
	C1599.053833,1003.718872 1608.412720,1008.797363 1617.739990,1013.925781 
	C1650.077881,1031.706055 1682.395752,1049.523193 1714.696655,1067.370728 
	C1739.430908,1081.037476 1764.271973,1094.519287 1788.806030,1108.537598 
	C1821.406250,1127.164795 1853.802612,1146.151123 1886.194946,1165.139404 
	C1911.420532,1179.926514 1936.541138,1194.893921 1961.585815,1209.984863 
	C1963.551147,1211.169067 1964.551514,1213.954712 1966.000244,1215.996094 
z"/>
<path fill="#FFFFFF" opacity="1.000000" stroke="none" 
	d="
M2356.879395,1216.219849 
	C2349.376953,1205.746460 2343.106689,1195.242188 2336.060547,1185.287231 
	C2319.006348,1161.193237 2301.617920,1137.335693 2284.312500,1113.420166 
	C2270.118896,1093.805054 2255.831055,1074.258423 2241.622070,1054.654541 
	C2227.411133,1035.047974 2213.229004,1015.420715 2199.066406,995.779175 
	C2183.935303,974.794861 2168.856689,953.772583 2153.728027,932.786499 
	C2139.762451,913.413818 2125.746582,894.077454 2111.778809,874.706238 
	C2096.453369,853.451721 2081.173096,832.164490 2065.844482,810.911865 
	C2051.485352,791.003357 2037.070557,771.135010 2022.714111,751.224670 
	C2004.285522,725.666931 1985.901001,700.077209 1967.477905,674.515442 
	C1953.319214,654.870667 1939.108154,635.263672 1924.960327,615.611084 
	C1906.550781,590.038574 1888.200439,564.423340 1869.787109,538.853577 
	C1855.442383,518.933838 1841.025269,499.066162 1826.667969,479.155457 
	C1808.239014,453.598145 1789.809082,428.041565 1771.433350,402.446014 
	C1756.537598,381.697815 1741.808838,360.829163 1726.846924,340.128967 
	C1708.778198,315.130707 1690.460815,290.312042 1672.403076,265.305939 
	C1658.032104,245.405167 1643.896118,225.334915 1629.626953,205.360443 
	C1628.867188,204.296921 1627.840820,203.423843 1626.308105,202.167175 
	C1626.566040,198.222229 1625.873413,193.384430 1632.637939,193.638428 
	C1636.755859,196.158875 1641.030762,197.982391 1643.375366,201.208633 
	C1673.220581,242.279648 1702.687378,283.625397 1732.458130,324.750824 
	C1758.336670,360.499390 1784.570190,395.990936 1810.475464,431.720306 
	C1829.761230,458.320160 1848.692993,485.176544 1867.925415,511.815430 
	C1898.809814,554.593384 1929.906372,597.218201 1960.734253,640.036621 
	C1984.586792,673.166687 2008.072021,706.560913 2031.897217,739.710815 
	C2048.937012,763.419739 2066.323730,786.878784 2083.453369,810.523499 
	C2097.473145,829.875610 2111.328857,849.346863 2125.280762,868.748169 
	C2143.685547,894.341431 2162.140625,919.898499 2180.523926,945.507263 
	C2195.425781,966.265930 2210.186523,987.126099 2225.132080,1007.852905 
	C2239.494385,1027.770142 2254.041016,1047.553955 2268.455811,1067.433472 
	C2282.677490,1087.046753 2296.812500,1106.723022 2311.026855,1126.341797 
	C2326.793457,1148.102905 2342.680664,1169.777344 2358.360107,1191.600830 
	C2363.766357,1199.125854 2368.706543,1206.985596 2373.935303,1215.395752 
	C2368.593506,1216.212280 2363.176025,1216.325562 2356.879395,1216.219849 
z"/>
<path fill="#FFFFFF" opacity="1.000000" stroke="none" 
	d="
M1966.910400,1216.201660 
	C1964.551514,1213.954712 1963.551147,1211.169067 1961.585815,1209.984863 
	C1936.541138,1194.893921 1911.420532,1179.926514 1886.194946,1165.139404 
	C1853.802612,1146.151123 1821.406250,1127.164795 1788.806030,1108.537598 
	C1764.271973,1094.519287 1739.430908,1081.037476 1714.696655,1067.370728 
	C1682.395752,1049.523193 1650.077881,1031.706055 1617.739990,1013.925781 
	C1608.412720,1008.797363 1599.053833,1003.718872 1589.600098,998.829041 
	C1565.053955,986.132751 1540.478271,973.492920 1515.857422,960.942078 
	C1475.800659,940.522461 1435.677979,920.232239 1395.652466,899.751892 
	C1392.171021,897.970459 1388.616699,895.656982 1386.216797,892.685608 
	C1384.742554,890.860413 1384.427246,886.866760 1385.426147,884.687866 
	C1386.151855,883.105225 1389.867310,882.315552 1392.276978,882.254395 
	C1394.437744,882.199585 1396.745972,883.401611 1398.801147,884.426147 
	C1431.305054,900.630127 1463.821777,916.809326 1496.241211,933.181274 
	C1513.176025,941.733459 1530.007202,950.499634 1546.744995,959.431763 
	C1581.958008,978.222839 1617.074585,997.194763 1652.238647,1016.077454 
	C1670.994751,1026.149170 1689.869019,1036.005737 1708.506470,1046.291870 
	C1730.332397,1058.337891 1751.990723,1070.689697 1773.662598,1083.012817 
	C1795.905884,1095.660645 1818.155640,1108.300171 1840.261108,1121.186035 
	C1867.818970,1137.250610 1895.273438,1153.493774 1922.694336,1169.791016 
	C1944.400391,1182.691772 1966.018433,1195.741455 1987.586426,1208.871460 
	C1989.977295,1210.326904 1991.783447,1212.742920 1993.938232,1215.423096 
	C1985.284058,1216.224243 1976.552368,1216.315796 1966.910400,1216.201660 
z"/>
<path fill="#364F4D" opacity="1.000000" stroke="none" 
	d="
M2379.824707,738.140198 
	C2381.978271,740.264587 2384.523926,742.115967 2386.224609,744.556030 
	C2401.807861,766.913086 2417.244141,789.372498 2432.661377,812.667542 
	C2432.341797,813.750061 2432.084229,813.967102 2431.826416,814.184082 
	C2425.050049,805.301758 2417.871582,796.693665 2411.586914,787.476013 
	C2400.800049,771.654785 2390.571045,755.453003 2380.015625,738.738220 
	C2379.923340,738.065491 2379.824707,738.140198 2379.824707,738.140198 
z"/>
<path fill="#9F616A" opacity="1.000000" stroke="none" 
	d="
M2288.658691,564.093506 
	C2292.066406,571.002625 2295.474365,577.911743 2298.882324,584.820801 
	C2298.041992,585.243164 2297.201416,585.665466 2296.361084,586.087830 
	C2292.892578,579.338318 2289.423828,572.588806 2286.653320,565.133179 
	C2287.786865,564.315918 2288.222900,564.204712 2288.658691,564.093506 
z"/>
<path fill="#9F616A" opacity="1.000000" stroke="none" 
	d="
M2442.951660,828.835693 
	C2439.987305,825.333008 2437.022705,821.830261 2434.243408,817.370605 
	C2434.428711,816.413635 2435.113525,815.813232 2435.113525,815.813232 
	C2438.046875,819.358704 2440.979980,822.904175 2443.772949,827.358276 
	C2443.632324,828.266846 2442.951660,828.835754 2442.951660,828.835693 
z"/>
<path fill="#CBCBCB" opacity="1.000000" stroke="none" 
	d="
M2334.040527,654.502869 
	C2335.439209,657.627686 2336.509766,660.182495 2337.580078,662.737305 
	C2336.872070,663.067505 2336.164062,663.397766 2335.456299,663.727966 
	C2333.896729,660.490295 2332.337158,657.252563 2330.777344,654.014893 
	C2331.755615,653.987610 2332.733643,653.960266 2334.040527,654.502869 
z"/>
<path fill="#CBCBCB" opacity="1.000000" stroke="none" 
	d="
M2340.497803,672.227417 
	C2343.845215,672.439453 2343.845215,672.439453 2345.269287,679.452148 
	C2342.824463,676.070679 2341.665771,674.468018 2340.497803,672.227417 
z"/>
<path fill="#364F4D" opacity="1.000000" stroke="none" 
	d="
M2375.952637,730.046509 
	C2377.428223,732.301575 2378.903809,734.556641 2380.102051,737.475952 
	C2379.824707,738.140198 2379.923340,738.065491 2379.972656,738.030396 
	C2378.517578,735.718445 2377.013184,733.441650 2375.773926,730.558105 
	C2376.039307,729.951355 2375.952637,730.046509 2375.952637,730.046509 
z"/>
<path fill="#364F4D" opacity="1.000000" stroke="none" 
	d="
M2376.079834,729.901550 
	C2374.561523,728.566101 2373.002686,727.280457 2371.444092,725.994812 
	C2371.953857,725.506042 2372.463623,725.017273 2372.973389,724.528564 
	C2373.959717,725.915649 2374.945801,727.302734 2375.942383,729.368164 
	C2375.952637,730.046509 2376.039307,729.951355 2376.079834,729.901550 
z"/>
<path fill="#9F616A" opacity="1.000000" stroke="none" 
	d="
M2445.728516,832.301331 
	C2444.927246,831.513977 2444.125977,830.726685 2443.138184,829.387573 
	C2442.951660,828.835754 2443.632324,828.266846 2443.973633,827.983398 
	C2445.047363,828.517273 2445.779785,829.334656 2446.368652,830.970825 
	C2446.224854,831.789673 2445.728516,832.301331 2445.728516,832.301331 
z"/>
<path fill="#FFFF" opacity="1.000000" stroke="none" 
	d="
M2285.841797,562.134399 
	C2285.287354,560.718384 2284.732666,559.302429 2284.177979,557.886475 
	C2284.956055,558.473206 2285.734375,559.059937 2286.411621,560.650513 
	C2286.310791,561.654419 2285.841797,562.134399 2285.841797,562.134399 
z"/>
<path fill="#9F616A" opacity="1.000000" stroke="none" 
	d="
M2301.306641,594.281677 
	C2300.821777,593.870544 2300.745117,593.144775 2300.668457,592.419006 
	C2301.017334,592.935059 2301.365967,593.451050 2301.306641,594.281677 
z"/>
<path fill="#FFFF" opacity="1.000000" stroke="none" 
	d="
M2288.414062,563.548218 
	C2288.222900,564.204712 2287.786865,564.315918 2286.677734,564.430176 
	C2285.887695,564.056396 2285.771484,563.679565 2285.748535,562.718567 
	C2285.841797,562.134399 2286.310791,561.654419 2286.541748,561.408569 
	C2287.238281,561.776123 2287.703613,562.389526 2288.414062,563.548218 
z"/>
<path fill="#9F616A" opacity="1.000000" stroke="none" 
	d="
M2354.022705,693.968994 
	C2353.609619,693.483398 2353.196533,692.997803 2352.783447,692.512207 
	C2353.210693,692.650330 2353.637939,692.788574 2354.028564,693.467285 
	C2353.991943,694.007751 2354.022705,693.968994 2354.022705,693.968994 
z"/>
<path fill="#9F616A" opacity="1.000000" stroke="none" 
	d="
M2298.622070,588.570190 
	C2299.141846,588.584595 2299.260254,589.009399 2299.378418,589.434204 
	C2298.992432,589.283020 2298.606445,589.131775 2298.622070,588.570190 
z"/>
<path fill="#CBCBCB" opacity="1.000000" stroke="none" 
	d="
M2339.176270,666.852295 
	C2339.305176,667.049133 2338.809814,667.148438 2338.809814,667.148438 
	C2338.809814,667.148438 2339.047119,666.655457 2339.176270,666.852295 
z"/>
<path fill="#9F616A" opacity="1.000000" stroke="none" 
	d="
M2346.730957,681.413391 
	C2346.685791,680.965759 2346.844971,680.798279 2347.004150,680.630859 
	C2347.140137,680.817505 2347.391357,681.011658 2347.379639,681.188721 
	C2347.368164,681.365906 2347.093994,681.526001 2346.730957,681.413391 
z"/>
<path fill="#9F616A" opacity="1.000000" stroke="none" 
	d="
M2349.281982,685.432800 
	C2348.788330,685.519470 2348.604980,685.284790 2348.421631,685.050171 
	C2348.812012,685.070618 2349.202148,685.091003 2349.281982,685.432800 
z"/>
<path fill="#9F616A" opacity="1.000000" stroke="none" 
	d="
M2351.265625,689.271179 
	C2350.760986,689.343811 2350.581543,689.101379 2350.402344,688.858887 
	C2350.798340,688.891296 2351.194580,688.923706 2351.265625,689.271179 
z"/>
<path fill="#CBCBCB" opacity="1.000000" stroke="none" 
	d="
M2453.226074,840.748779 
	C2453.372559,840.946899 2452.848389,841.064209 2452.848389,841.064209 
	C2452.848389,841.064209 2453.079346,840.550659 2453.226074,840.748779 
z"/>
<path fill="#9F616A" opacity="1.000000" stroke="none" 
	d="
M2353.972168,694.024719 
	C2354.427490,694.329834 2354.902588,694.617981 2355.377686,694.906128 
	C2354.985107,694.896179 2354.592773,694.886292 2354.111328,694.422729 
	C2354.022705,693.968994 2353.991943,694.007751 2353.972168,694.024719 
z"/>
<path fill="#9F616A" opacity="1.000000" stroke="none" 
	d="
M2357.400146,698.592529 
	C2357.381592,699.150269 2356.990967,699.276917 2356.600098,699.403564 
	C2356.742676,698.989502 2356.885254,698.575439 2357.400146,698.592529 
z"/>
<path fill="#9F616A" opacity="1.000000" stroke="none" 
	d="
M2359.213867,703.206543 
	C2358.841553,703.251831 2358.719482,703.054138 2358.597656,702.856445 
	C2358.886475,702.892090 2359.175293,702.927795 2359.213867,703.206543 
z"/>
<path fill="#364F4D" opacity="1.000000" stroke="none" 
	d="
M2433.023926,813.259277 
	C2433.849609,813.596741 2434.250732,814.207886 2434.882812,815.316162 
	C2435.113525,815.813232 2434.428711,816.413635 2434.125977,816.753906 
	C2433.247559,816.527954 2432.671875,815.961731 2431.961426,814.789795 
	C2432.084229,813.967102 2432.341797,813.750061 2433.023926,813.259277 
z"/>
<path fill="#9F616A" opacity="1.000000" stroke="none" 
	d="
M2448.093994,835.710205 
	C2447.495850,835.000732 2446.897705,834.291199 2446.014160,832.941528 
	C2445.728516,832.301331 2446.224854,831.789673 2446.480957,831.537109 
	C2447.443359,831.959717 2448.149658,832.634888 2448.804688,834.008728 
	C2448.533447,835.041687 2448.313721,835.375916 2448.093994,835.710205 
z"/>
<path fill="#CBCBCB" opacity="1.000000" stroke="none" 
	d="
M2449.327148,834.532471 
	C2449.901367,834.357483 2450.494629,834.977051 2450.254150,835.475037 
	C2450.013672,835.973022 2449.389648,836.516541 2449.389648,836.516541 
	C2449.389648,836.516541 2448.808594,836.544556 2448.808594,836.544556 
	C2448.808594,836.544556 2448.341064,836.200623 2448.217529,835.955444 
	C2448.313721,835.375916 2448.533447,835.041687 2449.327148,834.532471 
z"/>
<path fill="#CBCBCB" opacity="1.000000" stroke="none" 
	d="
M2450.314453,835.688965 
	C2450.856934,836.089050 2451.098877,836.773193 2451.340576,837.457397 
	C2450.855225,837.464355 2450.369629,837.471252 2449.636963,836.997375 
	C2449.389648,836.516541 2450.013672,835.973022 2450.314453,835.688965 
z"/>
<path fill="#FFFF" opacity="1.000000" stroke="none" 
	d="
M1681.886475,826.136475 
	C1682.652954,826.336060 1683.101318,826.870178 1683.549561,827.404358 
	C1683.019531,827.529175 1682.489502,827.653992 1681.477051,827.486572 
	C1680.994507,827.194336 1681.568359,826.471008 1681.886475,826.136475 
z"/>
<path fill="#CBCBCB" opacity="1.000000" stroke="none" 
	d="
M1940.000000,3557.662354 
	C2335.933105,3557.662354 2730.866211,3557.762695 3125.799072,3557.416748 
	C3149.818604,3557.395508 3172.769043,3573.374512 3178.911621,3597.135010 
	C3186.495361,3626.470947 3165.936035,3658.627441 3136.087891,3662.243652 
	C3128.536865,3663.158203 3120.883545,3663.632568 3113.277344,3663.633057 
	C2400.731445,3663.694580 1688.185547,3663.690186 975.639587,3663.690918 
	C962.512939,3663.690918 949.877319,3662.032959 938.552551,3654.470459 
	C918.504944,3641.082031 909.621094,3616.929199 916.704895,3594.274170 
	C923.591248,3572.250732 943.596558,3557.672852 967.162964,3557.671875 
	C1291.108643,3557.657715 1615.054321,3557.662354 1940.000000,3557.662354 
z"/>
<path fill="#32FE59" opacity="1.000000" stroke="none" 
	d="
M1576.366699,1927.680542 
	C1543.262207,1928.979248 1517.134888,1901.853638 1520.234497,1869.711792 
	C1522.574829,1845.443115 1541.803589,1825.418579 1566.762329,1822.335205 
	C1571.042725,1821.806519 1575.397705,1821.703491 1579.718140,1821.703125 
	C1891.311646,1821.675293 2202.905029,1821.693970 2514.498535,1821.627197 
	C2529.181152,1821.624023 2542.943115,1823.964355 2554.820557,1833.355225 
	C2572.417969,1847.268433 2577.679932,1866.008057 2573.365967,1886.882202 
	C2569.105469,1907.498291 2555.132324,1920.436401 2534.857422,1925.949585 
	C2529.508545,1927.404053 2523.695312,1927.613159 2518.095215,1927.614502 
	C2204.502197,1927.688965 1890.909180,1927.680664 1576.366699,1927.680542 
z"/>
<path fill="#344C4A" opacity="1.000000" stroke="none" 
	d="
M3006.000000,2201.827148 
	C3257.629150,2201.827148 3508.258789,2201.971680 3758.887451,2201.660400 
	C3793.427490,2201.617432 3824.141357,2225.721191 3832.574951,2255.505615 
	C3834.540283,2262.446777 3835.731445,2269.866455 3835.735107,2277.066650 
	C3835.888672,2587.020264 3835.851562,2896.974121 3835.886475,3206.927734 
	C3835.890869,3245.521484 3808.312500,3276.822510 3771.916260,3282.135254 
	C3765.700195,3283.042725 3759.389160,3283.783691 3753.121826,3283.787354 
	C3562.151123,3283.897705 3371.180664,3283.918945 3180.209961,3283.924805 
	C3064.894287,3283.928223 2949.578125,3283.971191 2834.262695,3283.797607 
	C2804.369385,3283.752686 2781.042969,3270.942871 2765.086914,3245.520020 
	C2757.278320,3233.078613 2754.428223,3219.017578 2754.222412,3204.556152 
	C2753.900146,3181.897461 2754.136719,3159.230957 2754.136719,3136.567627 
	C2754.136719,2851.610107 2754.102783,2566.652832 2754.201904,2281.695312 
	C2754.209717,2259.199951 2761.393799,2239.289307 2777.911377,2223.270508 
	C2792.738037,2208.891602 2810.437500,2201.829590 2831.024658,2201.828613 
	C2889.016357,2201.825928 2947.008301,2201.827393 3006.000000,2201.827148 
M3355.548096,3269.927979 
	C3473.935059,3269.948730 3592.322021,3269.972412 3710.708984,3269.972656 
	C3713.362061,3269.972656 3716.015137,3269.708740 3720.452148,3269.707764 
	C3732.449707,3269.748291 3744.448486,3269.921387 3756.444580,3269.804932 
	C3795.368652,3269.427002 3822.070801,3239.917969 3822.029785,3204.227051 
	C3821.675537,2896.599121 3821.826416,2588.970215 3821.826172,2281.341797 
	C3821.826172,2279.342041 3821.962891,2277.331055 3821.802734,2275.344238 
	C3819.960205,2252.494629 3809.504883,2235.107178 3789.398682,2223.591309 
	C3778.276611,2217.220947 3766.350586,2215.794678 3753.819336,2215.798096 
	C3448.523926,2215.882568 3143.228271,2215.863525 2837.932861,2215.870850 
	C2834.601562,2215.871094 2831.267334,2215.897217 2827.939697,2216.040771 
	C2810.774414,2216.781982 2796.439209,2223.724365 2784.836670,2236.232178 
	C2771.805664,2250.279785 2768.229004,2267.690674 2768.220215,2286.044434 
	C2768.144287,2441.025146 2768.176758,2596.006104 2768.176758,2750.986816 
	C2768.176758,2899.968262 2768.122803,3048.949951 2768.311768,3197.931152 
	C2768.322998,3206.802490 2769.164551,3215.983398 2771.538330,3224.484131 
	C2779.437988,3252.771973 2803.272461,3269.168945 2832.712646,3269.679199 
	C2868.363770,3270.297119 2904.034424,3269.803467 2941.622559,3269.929688 
	C3064.986572,3269.948730 3188.350830,3269.969482 3311.714844,3269.976807 
	C3314.040039,3269.977051 3316.365479,3269.818848 3320.450439,3269.800049 
	C3331.509521,3269.819580 3342.568848,3269.838867 3355.548096,3269.927979 
z"/>
<path fill="#344C4A" opacity="1.000000" stroke="none" 
	d="
M1758.237793,3283.534912 
	C1749.909668,3283.657715 1741.581543,3283.883057 1733.253418,3283.886475 
	C1684.254395,3283.906738 1635.254639,3284.036377 1586.256958,3283.770996 
	C1569.704834,3283.681152 1553.743042,3280.194824 1540.168213,3270.044922 
	C1522.170166,3256.587646 1509.352173,3239.754883 1507.787720,3216.296387 
	C1507.169678,3207.029785 1506.205322,3197.755127 1506.202637,3188.483643 
	C1506.119019,2887.819092 1506.105103,2587.154785 1506.216797,2286.490234 
	C1506.222534,2271.162842 1507.950806,2256.008301 1515.768433,2242.172852 
	C1530.220337,2216.596436 1551.940430,2203.013184 1581.314453,2201.860596 
	C1587.305176,2201.625488 1593.312988,2201.825928 1599.312988,2201.825928 
	C1903.310669,2201.825684 2207.308350,2201.935547 2511.305908,2201.667969 
	C2544.480225,2201.638672 2575.811768,2224.916992 2584.352783,2254.952881 
	C2586.414795,2262.205322 2587.725098,2269.949707 2587.729248,2277.468750 
	C2587.894287,2587.799805 2587.890869,2898.130615 2587.842285,3208.461670 
	C2587.836670,3244.332031 2562.058838,3275.108887 2526.376709,3281.810303 
	C2518.924316,3283.209961 2511.209961,3283.770508 2503.615723,3283.777100 
	C2379.952393,3283.881836 2256.288818,3283.836670 2132.625488,3283.817139 
	C2128.293213,3283.816406 2123.960693,3283.734863 2118.042480,3283.129639 
	C2113.815918,3282.378906 2111.174805,3282.024658 2108.533936,3282.023926 
	C1994.969971,3281.996338 1881.406128,3281.987549 1767.842163,3282.064453 
	C1764.640503,3282.066650 1761.439209,3283.023193 1758.237793,3283.534912 
M1809.846313,3269.929443 
	C1845.116943,3269.926025 1880.387451,3269.940430 1915.658081,3269.914551 
	C1970.892212,3269.874023 2026.126221,3269.806396 2083.311035,3269.885254 
	C2103.307373,3269.920166 2123.303711,3269.993164 2143.300049,3269.984131 
	C2215.620850,3269.951172 2287.941406,3269.890625 2362.103760,3269.819824 
	C2409.434326,3269.822266 2456.764893,3269.905518 2504.094971,3269.738281 
	C2511.024414,3269.713867 2518.192139,3269.415771 2524.832764,3267.664062 
	C2547.068115,3261.797607 2563.455322,3249.359863 2570.591309,3226.210449 
	C2573.616211,3216.397461 2574.123047,3206.651123 2574.123291,3196.674561 
	C2574.130859,2894.029053 2574.131104,2591.383789 2574.116699,2288.738281 
	C2574.116455,2283.407959 2574.395996,2278.018799 2573.736084,2272.758545 
	C2571.642334,2256.065918 2565.272949,2241.438721 2551.865479,2230.548584 
	C2538.923340,2220.036621 2524.168945,2215.744629 2507.447510,2215.753174 
	C2201.135742,2215.910645 1894.823853,2215.866455 1588.511963,2215.879395 
	C1584.514893,2215.879395 1580.481201,2215.751953 1576.527222,2216.217285 
	C1559.216797,2218.254395 1544.895874,2225.805908 1534.138306,2239.738281 
	C1522.500977,2254.810059 1520.207886,2272.476807 1520.205688,2290.675049 
	C1520.168945,2588.987549 1520.160767,2887.299805 1520.256348,3185.612305 
	C1520.259766,3196.213867 1520.530762,3206.955078 1522.215942,3217.382324 
	C1524.482544,3231.406982 1530.718994,3243.607178 1541.774658,3253.362549 
	C1556.190308,3266.083252 1573.014648,3270.311768 1593.548950,3269.913086 
	C1665.022095,3269.935547 1736.495239,3269.958008 1809.846313,3269.929443 
z"/>
<path fill="#354E4B" opacity="1.000000" stroke="none" 
	d="
M764.000000,2201.834473 
	C930.296936,2201.834961 1095.593994,2201.957275 1260.890625,2201.711670 
	C1287.536255,2201.671875 1308.765991,2211.760010 1325.016479,2232.323486 
	C1333.833740,2243.481201 1338.783813,2256.554932 1339.840698,2270.880127 
	C1340.158936,2275.193604 1340.153931,2279.537109 1340.154175,2283.866943 
	C1340.167725,2589.799561 1340.103638,2895.732422 1340.294312,3201.665039 
	C1340.308472,3224.412842 1334.198364,3244.096924 1318.221436,3260.638672 
	C1302.951782,3276.448730 1283.887207,3283.574951 1262.635620,3283.680420 
	C1179.657471,3284.091553 1096.675903,3283.827637 1013.695679,3283.854492 
	C927.715332,3283.882324 841.734924,3284.006104 755.754578,3283.998535 
	C617.119263,3283.986328 478.483948,3283.924561 339.848663,3283.829834 
	C307.019073,3283.807373 282.066895,3269.734375 266.717468,3240.584473 
	C262.815765,3233.174805 261.879395,3224.148926 259.965302,3215.777832 
	C259.312988,3212.925049 259.830994,3209.802490 259.830994,3206.803223 
	C259.829498,2897.537842 260.055511,2588.272217 259.491302,2279.008057 
	C259.432831,2246.948975 279.214905,2216.220703 309.757629,2206.312500 
	C318.440063,2203.495605 327.956085,2202.033203 337.093689,2202.016602 
	C479.062103,2201.755371 621.031128,2201.834473 764.000000,2201.834473 
M1015.348572,3269.868408 
	C1078.998535,3269.853516 1142.648560,3269.838867 1208.135132,3269.751709 
	C1226.131104,3269.779541 1244.147339,3270.361816 1262.118652,3269.710449 
	C1292.268555,3268.618408 1316.054810,3252.397217 1323.949951,3222.566406 
	C1325.952515,3215.000000 1326.056763,3206.778320 1326.059326,3198.857422 
	C1326.157959,2894.916016 1326.143921,2590.974365 1326.131104,2287.032959 
	C1326.130859,2283.036377 1325.904541,2279.040527 1325.863037,2275.043457 
	C1325.611328,2250.786621 1306.653198,2224.117676 1280.667358,2218.267090 
	C1272.971436,2216.534424 1264.869141,2215.950684 1256.952759,2215.947998 
	C952.011414,2215.836182 647.070068,2215.852295 342.128754,2215.864258 
	C338.132019,2215.864258 334.115295,2215.798096 330.141998,2216.148682 
	C311.984406,2217.751465 297.154755,2225.546387 285.920624,2240.067139 
	C274.464691,2254.874756 272.246124,2272.292480 272.240173,2290.069824 
	C272.141907,2583.679932 272.146027,2877.290283 272.242401,3170.900391 
	C272.247192,3185.501709 272.484863,3200.198486 274.180939,3214.666992 
	C275.157776,3223.000244 278.019562,3231.697510 282.231201,3238.955322 
	C294.469147,3260.044922 314.061584,3269.609863 337.953125,3269.738037 
	C393.940186,3270.038330 449.930023,3269.820312 507.807983,3269.843994 
	C670.401062,3269.863281 832.994080,3269.883301 995.587158,3269.895752 
	C997.584961,3269.895996 999.582825,3269.799561 1003.286133,3269.809570 
	C1006.657227,3269.810059 1010.028381,3269.810791 1015.348572,3269.868408 
z"/>
<path fill="#354E4B" opacity="1.000000" stroke="none" 
	d="
M1759.143799,3283.664551 
	C1761.439209,3283.023193 1764.640503,3282.066650 1767.842163,3282.064453 
	C1881.406128,3281.987549 1994.969971,3281.996338 2108.533936,3282.023926 
	C2111.174805,3282.024658 2113.815918,3282.378906 2117.093994,3283.030273 
	C2105.084229,3283.650635 2092.437500,3283.947266 2079.790527,3283.944824 
	C1973.210327,3283.925781 1866.630005,3283.851807 1759.143799,3283.664551 
z"/>
<path fill="#364F4D" opacity="1.000000" stroke="none" 
	d="
M399.463013,1301.303589 
	C417.814575,1288.120605 436.541199,1285.547241 456.247589,1296.078735 
	C467.292725,1301.981567 474.548462,1311.155029 478.684357,1322.987305 
	C487.333160,1347.730469 474.416473,1370.527344 459.754791,1380.195923 
	C442.045776,1391.874146 412.446747,1393.043701 393.764435,1371.068359 
	C378.201050,1352.761841 378.332520,1324.425293 394.726349,1306.076660 
	C396.056519,1304.587891 397.523834,1303.221802 399.463013,1301.303589 
z"/>
<path fill="#364F4D" opacity="1.000000" stroke="none" 
	d="
M335.545441,1361.067871 
	C321.210022,1390.916626 283.080902,1395.208252 261.670227,1379.155640 
	C238.127777,1361.504639 236.998413,1330.873047 249.803101,1311.449219 
	C265.967529,1286.928467 302.919098,1280.519653 327.067749,1304.656250 
	C340.036957,1317.619019 342.702698,1334.262207 338.866638,1351.932983 
	C338.238312,1354.827271 336.886993,1357.564819 335.545441,1361.067871 
z"/>
<path fill="#364F4D" opacity="1.000000" stroke="none" 
	d="
M172.957367,1383.428955 
	C148.286423,1394.730225 120.402420,1385.678223 108.199570,1365.379395 
	C98.531807,1349.297607 97.955635,1332.293457 106.379379,1316.029053 
	C114.895164,1299.587036 129.316635,1290.535889 148.271088,1289.866211 
	C167.544128,1289.185303 182.648987,1297.004761 192.595993,1313.423096 
	C203.234619,1330.983032 202.665192,1349.208984 191.555618,1366.161011 
	C187.176392,1372.843262 179.703384,1377.498169 172.957367,1383.428955 
z"/>
<path fill="#FFFF" opacity="1.000000" stroke="none" 
	d="
M2939.696777,3269.791016 
	C2904.034424,3269.803467 2868.363770,3270.297119 2832.712646,3269.679199 
	C2803.272461,3269.168945 2779.437988,3252.771973 2771.538330,3224.484131 
	C2769.164551,3215.983398 2768.322998,3206.802490 2768.311768,3197.931152 
	C2768.122803,3048.949951 2768.176758,2899.968262 2768.176758,2750.986816 
	C2768.176758,2596.006104 2768.144287,2441.025146 2768.220215,2286.044434 
	C2768.229004,2267.690674 2771.805664,2250.279785 2784.836670,2236.232178 
	C2796.439209,2223.724365 2810.774414,2216.781982 2827.939697,2216.040771 
	C2831.267334,2215.897217 2834.601562,2215.871094 2837.932861,2215.870850 
	C3143.228271,2215.863525 3448.523926,2215.882568 3753.819336,2215.798096 
	C3766.350586,2215.794678 3778.276611,2217.220947 3789.398682,2223.591309 
	C3809.504883,2235.107178 3819.960205,2252.494629 3821.802734,2275.344238 
	C3821.962891,2277.331055 3821.826172,2279.342041 3821.826172,2281.341797 
	C3821.826416,2588.970215 3821.675537,2896.599121 3822.029785,3204.227051 
	C3822.070801,3239.917969 3795.368652,3269.427002 3756.444580,3269.804932 
	C3744.448486,3269.921387 3732.449707,3269.748291 3719.386230,3268.796143 
	C3716.043945,3249.136719 3714.122559,3230.337158 3711.401123,3211.654053 
	C3707.964600,3188.060791 3704.050049,3164.532471 3700.024170,3141.030762 
	C3695.156982,3112.618164 3690.240967,3084.208496 3684.819824,3055.898438 
	C3679.644775,3028.874023 3672.525146,3002.163330 3668.574463,2974.978516 
	C3664.062012,2943.924805 3647.908203,2921.353516 3622.784912,2904.633301 
	C3590.448730,2883.113037 3553.440918,2875.052246 3515.649902,2870.100586 
	C3504.823975,2868.682129 3493.807373,2868.771240 3482.918457,2867.743164 
	C3480.140625,2867.480957 3477.310791,2865.922119 3474.860596,2864.389893 
	C3467.812500,2859.982910 3461.025879,2855.158936 3453.989014,2850.733398 
	C3445.080322,2845.130127 3437.552002,2846.905029 3430.232910,2855.653809 
	C3383.248291,2837.431641 3335.897217,2831.690674 3287.361816,2843.908936 
	C3272.679443,2847.605225 3258.620361,2853.777344 3243.671387,2858.377930 
	C3242.602783,2857.463867 3242.072266,2857.035645 3241.684570,2856.503662 
	C3234.149170,2846.158691 3227.202148,2844.818604 3216.491943,2851.766113 
	C3209.791260,2856.112549 3203.282471,2860.772217 3196.431152,2864.861816 
	C3193.728271,2866.475342 3190.386963,2867.465088 3187.235596,2867.806152 
	C3172.409180,2869.412354 3157.416992,2869.884766 3142.725342,2872.256836 
	C3110.412598,2877.474365 3078.825684,2885.444092 3050.960938,2903.677734 
	C3031.630371,2916.327393 3015.626221,2932.084473 3008.688232,2954.953613 
	C3006.097412,2963.493652 3004.670654,2972.383789 3002.639404,2981.097168 
	C2994.875732,3014.402344 2986.597900,3047.596436 2979.409668,3081.024902 
	C2967.833496,3134.858154 2956.990723,3188.849365 2945.781006,3242.761719 
	C2943.901123,3251.802490 2941.732178,3260.782959 2939.696777,3269.791016 
M3469.207275,2719.799561 
	C3478.763184,2710.181396 3488.600098,2700.823730 3497.811279,2690.885986 
	C3513.151611,2674.335205 3524.488770,2655.135254 3531.512207,2633.773438 
	C3540.239746,2607.227539 3542.715332,2579.959961 3537.907471,2552.205078 
	C3534.933350,2535.033691 3529.672363,2518.556885 3521.397705,2503.322266 
	C3509.883301,2482.123291 3495.208984,2463.326660 3475.601562,2448.779053 
	C3459.443115,2436.790771 3441.927002,2427.530029 3422.601807,2421.746338 
	C3406.933105,2417.057129 3390.808594,2415.322021 3374.607910,2413.917725 
	C3363.850098,2412.985352 3353.410156,2410.453857 3345.114502,2403.236816 
	C3340.174561,2398.938965 3336.682617,2393.021240 3332.050049,2388.313721 
	C3326.514160,2382.688232 3321.113037,2376.496582 3314.487793,2372.466553 
	C3300.258789,2363.811768 3284.788818,2362.468994 3268.438721,2366.760254 
	C3240.165283,2374.181885 3214.090820,2386.530762 3189.261230,2401.478271 
	C3178.527100,2407.940430 3167.945557,2415.438721 3159.272949,2424.384277 
	C3139.416992,2444.864990 3130.146484,2469.268311 3133.553711,2498.641113 
	C3136.333252,2522.602783 3145.810059,2542.500732 3162.541748,2559.323242 
	C3169.067627,2565.884277 3175.860352,2572.179688 3182.395508,2580.202148 
	C3178.771729,2594.798340 3177.496094,2609.583008 3177.556396,2624.645020 
	C3177.730469,2668.128174 3193.317627,2705.501221 3223.720215,2735.868896 
	C3260.393555,2772.500000 3305.239258,2788.091309 3357.161865,2782.383545 
	C3385.946533,2779.219238 3411.738770,2768.739258 3435.088135,2751.800293 
	C3447.570312,2742.744873 3457.683105,2731.314697 3469.207275,2719.799561 
z"/>
<path fill="#283C3A" opacity="1.000000" stroke="none" 
	d="
M2940.659668,3269.860352 
	C2941.732178,3260.782959 2943.901123,3251.802490 2945.781006,3242.761719 
	C2956.990723,3188.849365 2967.833496,3134.858154 2979.409668,3081.024902 
	C2986.597900,3047.596436 2994.875732,3014.402344 3002.639404,2981.097168 
	C3004.670654,2972.383789 3006.097412,2963.493652 3008.688232,2954.953613 
	C3015.626221,2932.084473 3031.630371,2916.327393 3050.960938,2903.677734 
	C3078.825684,2885.444092 3110.412598,2877.474365 3142.725342,2872.256836 
	C3157.416992,2869.884766 3172.409180,2869.412354 3187.235596,2867.806152 
	C3190.386963,2867.465088 3193.728271,2866.475342 3196.431152,2864.861816 
	C3203.282471,2860.772217 3209.791260,2856.112549 3216.491943,2851.766113 
	C3227.202148,2844.818604 3234.149170,2846.158691 3241.684570,2856.503662 
	C3242.072266,2857.035645 3242.602783,2857.463867 3243.418701,2859.108643 
	C3244.183594,2862.848389 3244.218506,2865.552979 3245.069824,2867.969971 
	C3251.474854,2886.154541 3257.968994,2904.308838 3264.633057,2922.399658 
	C3265.633545,2925.115967 3267.278076,2927.823486 3269.279053,2929.906494 
	C3285.094727,2946.368164 3294.778320,2966.247559 3301.862793,2987.604492 
	C3314.851807,3026.760742 3319.739014,3067.372803 3321.504883,3108.237305 
	C3323.831543,3162.076660 3322.970947,3215.960449 3318.690674,3269.734619 
	C3316.365479,3269.818848 3314.040039,3269.977051 3311.714844,3269.976807 
	C3188.350830,3269.969482 3064.986572,3269.948730 2940.659668,3269.860352 
z"/>
<path fill="#283C3A" opacity="1.000000" stroke="none" 
	d="
M3430.994629,2855.865234 
	C3437.552002,2846.905029 3445.080322,2845.130127 3453.989014,2850.733398 
	C3461.025879,2855.158936 3467.812500,2859.982910 3474.860596,2864.389893 
	C3477.310791,2865.922119 3480.140625,2867.480957 3482.918457,2867.743164 
	C3493.807373,2868.771240 3504.823975,2868.682129 3515.649902,2870.100586 
	C3553.440918,2875.052246 3590.448730,2883.113037 3622.784912,2904.633301 
	C3647.908203,2921.353516 3664.062012,2943.924805 3668.574463,2974.978516 
	C3672.525146,3002.163330 3679.644775,3028.874023 3684.819824,3055.898438 
	C3690.240967,3084.208496 3695.156982,3112.618164 3700.024170,3141.030762 
	C3704.050049,3164.532471 3707.964600,3188.060791 3711.401123,3211.654053 
	C3714.122559,3230.337158 3716.043945,3249.136719 3718.494385,3268.726318 
	C3716.015137,3269.708740 3713.362061,3269.972656 3710.708984,3269.972656 
	C3592.322021,3269.972412 3473.935059,3269.948730 3354.653809,3269.012207 
	C3352.598145,3247.856201 3350.569824,3227.620117 3350.465820,3207.374268 
	C3350.281250,3171.474609 3350.715820,3135.550537 3351.921143,3099.671387 
	C3353.027344,3066.735107 3357.465332,3034.121338 3366.212402,3002.248291 
	C3372.405762,2979.680420 3380.004639,2957.471680 3395.484863,2939.464844 
	C3404.192871,2929.335693 3410.113037,2918.338379 3413.860107,2905.810547 
	C3414.715820,2902.948975 3415.952148,2900.203369 3416.916504,2897.371582 
	C3421.627441,2883.542236 3426.305420,2869.701904 3430.994629,2855.865234 
z"/>
<path fill="#32FE59" opacity="1.000000" stroke="none" 
	d="
M3430.232910,2855.653809 
	C3426.305420,2869.701904 3421.627441,2883.542236 3416.916504,2897.371582 
	C3415.952148,2900.203369 3414.715820,2902.948975 3413.860107,2905.810547 
	C3410.113037,2918.338379 3404.192871,2929.335693 3395.484863,2939.464844 
	C3380.004639,2957.471680 3372.405762,2979.680420 3366.212402,3002.248291 
	C3357.465332,3034.121338 3353.027344,3066.735107 3351.921143,3099.671387 
	C3350.715820,3135.550537 3350.281250,3171.474609 3350.465820,3207.374268 
	C3350.569824,3227.620117 3352.598145,3247.856201 3353.693848,3268.977539 
	C3342.568848,3269.838867 3331.509521,3269.819580 3319.570557,3269.767334 
	C3322.970947,3215.960449 3323.831543,3162.076660 3321.504883,3108.237305 
	C3319.739014,3067.372803 3314.851807,3026.760742 3301.862793,2987.604492 
	C3294.778320,2966.247559 3285.094727,2946.368164 3269.279053,2929.906494 
	C3267.278076,2927.823486 3265.633545,2925.115967 3264.633057,2922.399658 
	C3257.968994,2904.308838 3251.474854,2886.154541 3245.069824,2867.969971 
	C3244.218506,2865.552979 3244.183594,2862.848389 3244.023193,2859.545898 
	C3258.620361,2853.777344 3272.679443,2847.605225 3287.361816,2843.908936 
	C3335.897217,2831.690674 3383.248291,2837.431641 3430.232910,2855.653809 
z"/>
<path fill="#FFFF" opacity="1.000000" stroke="none" 
	d="
M1591.601562,3269.756348 
	C1573.014648,3270.311768 1556.190308,3266.083252 1541.774658,3253.362549 
	C1530.718994,3243.607178 1524.482544,3231.406982 1522.215942,3217.382324 
	C1520.530762,3206.955078 1520.259766,3196.213867 1520.256348,3185.612305 
	C1520.160767,2887.299805 1520.168945,2588.987549 1520.205688,2290.675049 
	C1520.207886,2272.476807 1522.500977,2254.810059 1534.138306,2239.738281 
	C1544.895874,2225.805908 1559.216797,2218.254395 1576.527222,2216.217285 
	C1580.481201,2215.751953 1584.514893,2215.879395 1588.511963,2215.879395 
	C1894.823853,2215.866455 2201.135742,2215.910645 2507.447510,2215.753174 
	C2524.168945,2215.744629 2538.923340,2220.036621 2551.865479,2230.548584 
	C2565.272949,2241.438721 2571.642334,2256.065918 2573.736084,2272.758545 
	C2574.395996,2278.018799 2574.116455,2283.407959 2574.116699,2288.738281 
	C2574.131104,2591.383789 2574.130859,2894.029053 2574.123291,3196.674561 
	C2574.123047,3206.651123 2573.616211,3216.397461 2570.591309,3226.210449 
	C2563.455322,3249.359863 2547.068115,3261.797607 2524.832764,3267.664062 
	C2518.192139,3269.415771 2511.024414,3269.713867 2504.094971,3269.738281 
	C2456.764893,3269.905518 2409.434326,3269.822266 2360.991699,3269.117676 
	C2346.728516,3233.941895 2333.626709,3199.449463 2320.413818,3165.000000 
	C2304.343750,3123.101318 2288.191650,3081.234131 2272.049072,3039.363525 
	C2266.787842,3025.717773 2262.647949,3011.474365 2255.910889,2998.594482 
	C2236.202881,2960.915771 2193.980957,2940.394531 2150.708008,2951.946777 
	C2147.982910,2952.674561 2144.879150,2952.757080 2142.082764,2952.312988 
	C2127.024902,2949.922119 2111.982178,2947.411377 2096.984863,2944.666748 
	C2083.130859,2942.131348 2070.870850,2944.370361 2062.541260,2956.662842 
	C2059.476562,2961.185791 2058.153320,2966.888916 2055.243408,2972.012695 
	C2033.678223,2965.954346 2012.502075,2962.113281 1990.957275,2960.332520 
	C1957.614868,2957.576416 1925.412964,2962.737549 1894.054932,2973.710449 
	C1887.194336,2953.893311 1863.535522,2943.164795 1842.963257,2962.244385 
	C1839.305542,2965.636475 1835.767456,2969.158447 1832.195068,2972.641602 
	C1826.734863,2977.965820 1820.674438,2981.268311 1812.583618,2980.046631 
	C1808.353149,2979.407715 1803.946289,2979.789307 1799.625488,2979.919678 
	C1771.708374,2980.761475 1748.624268,2991.732178 1732.062988,3014.307861 
	C1723.667969,3025.751709 1716.728638,3038.330811 1709.798340,3050.768555 
	C1690.887085,3084.707764 1672.321655,3118.839844 1653.635986,3152.905029 
	C1634.951416,3186.968262 1616.228394,3221.010498 1597.682373,3255.149170 
	C1595.178223,3259.759033 1593.605591,3264.875000 1591.601562,3269.756348 
M2069.395020,2874.035400 
	C2077.102783,2870.981934 2084.925537,2868.187988 2092.496582,2864.827148 
	C2116.378174,2854.226318 2134.786377,2837.598145 2146.881592,2814.295166 
	C2159.838867,2789.331787 2168.614014,2762.907959 2174.207764,2735.377930 
	C2175.367432,2729.670166 2176.935303,2724.045410 2178.630127,2717.088867 
	C2180.651611,2729.962646 2181.921875,2741.181396 2184.233643,2752.180908 
	C2190.998291,2784.363281 2205.617188,2811.853760 2231.692139,2833.004395 
	C2251.844482,2849.351562 2274.833740,2857.742188 2300.159912,2859.707031 
	C2320.347656,2861.273438 2340.659668,2861.687500 2360.919189,2861.753174 
	C2378.512695,2861.810059 2395.947021,2859.415527 2413.221680,2855.852295 
	C2437.518799,2850.840332 2459.275879,2840.466064 2478.123779,2824.531494 
	C2499.332031,2806.601318 2515.477539,2784.767578 2524.678955,2758.335205 
	C2531.649170,2738.311523 2534.834717,2717.663574 2533.120850,2696.359131 
	C2532.107910,2697.367676 2531.522461,2698.472168 2531.181152,2699.647461 
	C2526.440186,2715.964600 2515.421631,2727.184814 2501.216797,2735.384766 
	C2472.483398,2751.971680 2441.069824,2756.229736 2408.930176,2751.436279 
	C2369.789307,2745.598145 2336.894043,2727.370605 2311.261475,2696.554688 
	C2288.290283,2668.938232 2277.093506,2636.858887 2274.180664,2601.583984 
	C2272.433594,2580.429932 2271.607422,2559.201660 2270.050781,2538.030029 
	C2267.398193,2501.950195 2252.292725,2471.274170 2226.710693,2446.379150 
	C2206.883301,2427.084473 2182.932129,2414.203613 2155.341064,2408.676025 
	C2133.750977,2404.350830 2113.008789,2406.009521 2093.441162,2416.349365 
	C2074.645020,2426.281738 2056.982910,2451.571533 2063.540527,2476.243652 
	C2063.926758,2477.696777 2063.436279,2479.383057 2063.289795,2482.186279 
	C2051.644287,2479.954590 2040.553467,2478.338623 2029.604492,2482.410645 
	C2018.536133,2486.527100 2010.644165,2494.283936 2004.651367,2503.807129 
	C2003.006958,2503.807129 2001.952881,2504.028320 2001.036133,2503.767334 
	C1997.840942,2502.856934 1994.697021,2501.767334 1991.526733,2500.768555 
	C1964.811279,2492.349121 1937.574829,2489.743652 1909.915649,2494.460938 
	C1872.300903,2500.876465 1840.468872,2518.677979 1813.782715,2545.581299 
	C1801.373657,2558.091064 1790.761353,2572.161621 1781.707642,2587.396240 
	C1765.111938,2615.322021 1755.160400,2645.594971 1752.402954,2677.709229 
	C1749.701172,2709.174561 1754.270264,2740.134277 1766.292236,2769.579834 
	C1774.287476,2789.162842 1785.571899,2806.762695 1800.862427,2821.551758 
	C1802.868042,2823.491699 1805.777710,2824.497070 1809.240845,2826.872070 
	C1819.350464,2848.150146 1833.026001,2866.749512 1851.283569,2881.727539 
	C1889.287720,2912.904541 1932.870239,2924.811523 1981.296997,2917.411377 
	C2014.630615,2912.317871 2043.500854,2897.390625 2069.395020,2874.035400 
z"/>
<path fill="#283C3A" opacity="1.000000" stroke="none" 
	d="
M2056.035889,2972.053711 
	C2058.153320,2966.888916 2059.476562,2961.185791 2062.541260,2956.662842 
	C2070.870850,2944.370361 2083.130859,2942.131348 2096.984863,2944.666748 
	C2111.982178,2947.411377 2127.024902,2949.922119 2142.082764,2952.312988 
	C2144.879150,2952.757080 2147.982910,2952.674561 2150.708008,2951.946777 
	C2193.980957,2940.394531 2236.202881,2960.915771 2255.910889,2998.594482 
	C2262.647949,3011.474365 2266.787842,3025.717773 2272.049072,3039.363525 
	C2288.191650,3081.234131 2304.343750,3123.101318 2320.413818,3165.000000 
	C2333.626709,3199.449463 2346.728516,3233.941895 2360.070801,3269.127930 
	C2287.941406,3269.890625 2215.620850,3269.951172 2143.300049,3269.984131 
	C2123.303711,3269.993164 2103.307373,3269.920166 2082.450195,3268.908691 
	C2082.296875,3255.307129 2083.509521,3242.686279 2083.618896,3230.056152 
	C2083.959229,3190.786865 2084.666748,3151.493408 2083.652588,3112.250244 
	C2083.096191,3090.721436 2079.565430,3069.250732 2077.008057,3047.797852 
	C2073.874023,3021.510986 2063.512939,2997.169434 2056.035889,2972.053711 
z"/>
<path fill="#32FE59" opacity="1.000000" stroke="none" 
	d="
M2055.243408,2972.012695 
	C2063.512939,2997.169434 2073.874023,3021.510986 2077.008057,3047.797852 
	C2079.565430,3069.250732 2083.096191,3090.721436 2083.652588,3112.250244 
	C2084.666748,3151.493408 2083.959229,3190.786865 2083.618896,3230.056152 
	C2083.509521,3242.686279 2082.296875,3255.307129 2081.474609,3268.841309 
	C2026.126221,3269.806396 1970.892212,3269.874023 1915.658081,3269.914551 
	C1880.387451,3269.940430 1845.116943,3269.926025 1808.865723,3269.163086 
	C1809.486450,3262.646484 1810.940308,3256.850830 1812.711548,3251.153564 
	C1838.751099,3167.399170 1864.797607,3083.646729 1890.958984,2999.930420 
	C1893.574707,2991.560303 1895.201416,2983.202881 1894.171143,2974.440186 
	C1925.412964,2962.737549 1957.614868,2957.576416 1990.957275,2960.332520 
	C2012.502075,2962.113281 2033.678223,2965.954346 2055.243408,2972.012695 
z"/>
<path fill="#283C3A" opacity="1.000000" stroke="none" 
	d="
M1894.054932,2973.710449 
	C1895.201416,2983.202881 1893.574707,2991.560303 1890.958984,2999.930420 
	C1864.797607,3083.646729 1838.751099,3167.399170 1812.711548,3251.153564 
	C1810.940308,3256.850830 1809.486450,3262.646484 1807.926758,3269.188477 
	C1736.495239,3269.958008 1665.022095,3269.935547 1592.575317,3269.834717 
	C1593.605591,3264.875000 1595.178223,3259.759033 1597.682373,3255.149170 
	C1616.228394,3221.010498 1634.951416,3186.968262 1653.635986,3152.905029 
	C1672.321655,3118.839844 1690.887085,3084.707764 1709.798340,3050.768555 
	C1716.728638,3038.330811 1723.667969,3025.751709 1732.062988,3014.307861 
	C1748.624268,2991.732178 1771.708374,2980.761475 1799.625488,2979.919678 
	C1803.946289,2979.789307 1808.353149,2979.407715 1812.583618,2980.046631 
	C1820.674438,2981.268311 1826.734863,2977.965820 1832.195068,2972.641602 
	C1835.767456,2969.158447 1839.305542,2965.636475 1842.963257,2962.244385 
	C1863.535522,2943.164795 1887.194336,2953.893311 1894.054932,2973.710449 
z"/>
<path fill="#FFFF" opacity="1.000000" stroke="none" 
	d="
M505.918762,3269.812500 
	C449.930023,3269.820312 393.940186,3270.038330 337.953125,3269.738037 
	C314.061584,3269.609863 294.469147,3260.044922 282.231201,3238.955322 
	C278.019562,3231.697510 275.157776,3223.000244 274.180939,3214.666992 
	C272.484863,3200.198486 272.247192,3185.501709 272.242401,3170.900391 
	C272.146027,2877.290283 272.141907,2583.679932 272.240173,2290.069824 
	C272.246124,2272.292480 274.464691,2254.874756 285.920624,2240.067139 
	C297.154755,2225.546387 311.984406,2217.751465 330.141998,2216.148682 
	C334.115295,2215.798096 338.132019,2215.864258 342.128754,2215.864258 
	C647.070068,2215.852295 952.011414,2215.836182 1256.952759,2215.947998 
	C1264.869141,2215.950684 1272.971436,2216.534424 1280.667358,2218.267090 
	C1306.653198,2224.117676 1325.611328,2250.786621 1325.863037,2275.043457 
	C1325.904541,2279.040527 1326.130859,2283.036377 1326.131104,2287.032959 
	C1326.143921,2590.974365 1326.157959,2894.916016 1326.059326,3198.857422 
	C1326.056763,3206.778320 1325.952515,3215.000000 1323.949951,3222.566406 
	C1316.054810,3252.397217 1292.268555,3268.618408 1262.118652,3269.710449 
	C1244.147339,3270.361816 1226.131104,3269.779541 1207.172607,3268.989502 
	C1198.074219,3235.319824 1190.432617,3202.280518 1181.680420,3169.537842 
	C1170.097046,3126.203125 1158.666504,3082.780273 1145.235352,3040.002686 
	C1134.887329,3007.044189 1115.035156,2979.620605 1088.745605,2956.810547 
	C1076.435669,2946.129639 1062.340576,2938.082764 1049.846436,2927.612549 
	C1011.122070,2895.161865 966.899109,2872.444824 918.601562,2857.791016 
	C857.632812,2839.292480 795.831482,2836.058350 733.454895,2849.398926 
	C691.137024,2858.449463 650.820374,2872.356689 613.437439,2895.260498 
	C585.808472,2912.188232 571.351990,2934.446045 571.534546,2966.824707 
	C571.626221,2983.080566 571.875000,2999.625488 569.156250,3015.544922 
	C564.129700,3044.977783 557.903198,3074.285156 550.502869,3103.216553 
	C536.258057,3158.906250 520.846436,3214.297363 505.918762,3269.812500 
M662.224121,2583.662354 
	C656.879150,2605.109131 654.628357,2626.673584 657.591431,2648.816406 
	C663.441711,2692.535156 683.399963,2728.206543 717.955139,2755.357422 
	C755.298401,2784.698242 797.979370,2794.840088 844.657349,2787.504150 
	C862.069153,2784.767822 878.969482,2779.666992 895.277649,2770.740723 
	C909.711304,2781.382324 926.859863,2780.452148 940.975525,2768.142334 
	C945.731750,2763.994385 950.509705,2759.865234 955.400513,2755.878418 
	C987.104614,2730.036133 1012.403870,2699.083496 1029.021240,2661.593506 
	C1044.980713,2625.587646 1048.518188,2587.934570 1040.644653,2549.428711 
	C1033.050415,2512.288086 1010.295898,2484.913574 981.650879,2461.936768 
	C957.891296,2442.879150 931.140320,2428.550049 903.564453,2415.929443 
	C886.591980,2408.161377 868.953247,2402.847900 849.665649,2403.718018 
	C826.678162,2404.755127 800.862732,2419.038574 796.874695,2446.416992 
	C796.470703,2449.190186 795.834839,2451.929688 795.165955,2455.418213 
	C793.366821,2454.043945 792.235779,2453.391357 791.368286,2452.486084 
	C772.785400,2433.094482 750.124084,2420.118896 725.222351,2410.844971 
	C708.437134,2404.593994 691.050476,2402.669189 673.457031,2406.608643 
	C655.468567,2410.636230 641.654602,2421.061035 630.894958,2435.902588 
	C611.564026,2462.567871 601.769531,2491.715576 608.000854,2524.822754 
	C613.089600,2551.859375 628.483765,2570.421631 654.836975,2579.396484 
	C657.351562,2580.252930 659.850342,2581.155762 662.224121,2583.662354 
z"/>
<path fill="#32FE59" opacity="1.000000" stroke="none" 
	d="
M506.863403,3269.828125 
	C520.846436,3214.297363 536.258057,3158.906250 550.502869,3103.216553 
	C557.903198,3074.285156 564.129700,3044.977783 569.156250,3015.544922 
	C571.875000,2999.625488 571.626221,2983.080566 571.534546,2966.824707 
	C571.351990,2934.446045 585.808472,2912.188232 613.437439,2895.260498 
	C650.820374,2872.356689 691.137024,2858.449463 733.454895,2849.398926 
	C795.831482,2836.058350 857.632812,2839.292480 918.601562,2857.791016 
	C966.899109,2872.444824 1011.122070,2895.161865 1049.846436,2927.612549 
	C1062.340576,2938.082764 1076.435669,2946.129639 1088.745605,2956.810547 
	C1115.035156,2979.620605 1134.887329,3007.044189 1145.235352,3040.002686 
	C1158.666504,3082.780273 1170.097046,3126.203125 1181.680420,3169.537842 
	C1190.432617,3202.280518 1198.074219,3235.319824 1206.254272,3269.025879 
	C1142.648560,3269.838867 1078.998535,3269.853516 1014.158630,3269.211914 
	C1010.958069,3264.380615 1008.947449,3260.205811 1006.936829,3256.031006 
	C1006.300110,3256.062988 1005.663391,3256.095215 1005.026672,3256.127441 
	C1003.877991,3260.667725 1002.729370,3265.208252 1001.580688,3269.748535 
	C999.582825,3269.799561 997.584961,3269.895996 995.587158,3269.895752 
	C832.994080,3269.883301 670.401062,3269.863281 506.863403,3269.828125 
z"/>
<path fill="#000000" opacity="1.000000" stroke="none" 
	d="
M1002.433411,3269.779053 
	C1002.729370,3265.208252 1003.877991,3260.667725 1005.026672,3256.127441 
	C1005.663391,3256.095215 1006.300110,3256.062988 1006.936829,3256.031006 
	C1008.947449,3260.205811 1010.958069,3264.380615 1013.184082,3269.183594 
	C1010.028381,3269.810791 1006.657227,3269.810059 1002.433411,3269.779053 
z"/>
<path fill="#2F2E41" opacity="1.000000" stroke="none" 
	d="
M3182.531738,2578.595947 
	C3175.860352,2572.179688 3169.067627,2565.884277 3162.541748,2559.323242 
	C3145.810059,2542.500732 3136.333252,2522.602783 3133.553711,2498.641113 
	C3130.146484,2469.268311 3139.416992,2444.864990 3159.272949,2424.384277 
	C3167.945557,2415.438721 3178.527100,2407.940430 3189.261230,2401.478271 
	C3214.090820,2386.530762 3240.165283,2374.181885 3268.438721,2366.760254 
	C3284.788818,2362.468994 3300.258789,2363.811768 3314.487793,2372.466553 
	C3321.113037,2376.496582 3326.514160,2382.688232 3332.050049,2388.313721 
	C3336.682617,2393.021240 3340.174561,2398.938965 3345.114502,2403.236816 
	C3353.410156,2410.453857 3363.850098,2412.985352 3374.607910,2413.917725 
	C3390.808594,2415.322021 3406.933105,2417.057129 3422.601807,2421.746338 
	C3441.927002,2427.530029 3459.443115,2436.790771 3475.601562,2448.779053 
	C3495.208984,2463.326660 3509.883301,2482.123291 3521.397705,2503.322266 
	C3529.672363,2518.556885 3534.933350,2535.033691 3537.907471,2552.205078 
	C3542.715332,2579.959961 3540.239746,2607.227539 3531.512207,2633.773438 
	C3524.488770,2655.135254 3513.151611,2674.335205 3497.811279,2690.885986 
	C3488.600098,2700.823730 3478.763184,2710.181396 3468.630615,2719.155273 
	C3472.282227,2711.746094 3476.747070,2705.115723 3480.690674,2698.188721 
	C3489.952393,2681.921143 3495.285400,2664.854492 3491.779053,2645.726318 
	C3482.268311,2593.839600 3434.310059,2566.755859 3393.581299,2573.630371 
	C3383.130127,2575.394531 3372.790771,2578.138428 3362.616699,2581.161133 
	C3339.360107,2588.069824 3316.665283,2596.951904 3292.164307,2599.139160 
	C3255.949951,2602.372559 3220.965820,2599.517822 3188.899902,2580.223633 
	C3187.101807,2579.141602 3184.668945,2579.114258 3182.531738,2578.595947 
z"/>
<path fill="#FEB7B7" opacity="1.000000" stroke="none" 
	d="
M3182.463623,2579.398926 
	C3184.668945,2579.114258 3187.101807,2579.141602 3188.899902,2580.223633 
	C3220.965820,2599.517822 3255.949951,2602.372559 3292.164307,2599.139160 
	C3316.665283,2596.951904 3339.360107,2588.069824 3362.616699,2581.161133 
	C3372.790771,2578.138428 3383.130127,2575.394531 3393.581299,2573.630371 
	C3434.310059,2566.755859 3482.268311,2593.839600 3491.779053,2645.726318 
	C3495.285400,2664.854492 3489.952393,2681.921143 3480.690674,2698.188721 
	C3476.747070,2705.115723 3472.282227,2711.746094 3467.940430,2719.200439 
	C3457.683105,2731.314697 3447.570312,2742.744873 3435.088135,2751.800293 
	C3411.738770,2768.739258 3385.946533,2779.219238 3357.161865,2782.383545 
	C3305.239258,2788.091309 3260.393555,2772.500000 3223.720215,2735.868896 
	C3193.317627,2705.501221 3177.730469,2668.128174 3177.556396,2624.645020 
	C3177.496094,2609.583008 3178.771729,2594.798340 3182.463623,2579.398926 
z"/>
<path fill="#2F2E41" opacity="1.000000" stroke="none" 
	d="
M1808.268677,2825.935303 
	C1805.777710,2824.497070 1802.868042,2823.491699 1800.862427,2821.551758 
	C1785.571899,2806.762695 1774.287476,2789.162842 1766.292236,2769.579834 
	C1754.270264,2740.134277 1749.701172,2709.174561 1752.402954,2677.709229 
	C1755.160400,2645.594971 1765.111938,2615.322021 1781.707642,2587.396240 
	C1790.761353,2572.161621 1801.373657,2558.091064 1813.782715,2545.581299 
	C1840.468872,2518.677979 1872.300903,2500.876465 1909.915649,2494.460938 
	C1937.574829,2489.743652 1964.811279,2492.349121 1991.526733,2500.768555 
	C1994.697021,2501.767334 1997.840942,2502.856934 2001.036133,2503.767334 
	C2001.952881,2504.028320 2003.006958,2503.807129 2004.651367,2503.807129 
	C2010.644165,2494.283936 2018.536133,2486.527100 2029.604492,2482.410645 
	C2040.553467,2478.338623 2051.644287,2479.954590 2063.289795,2482.186279 
	C2063.436279,2479.383057 2063.926758,2477.696777 2063.540527,2476.243652 
	C2056.982910,2451.571533 2074.645020,2426.281738 2093.441162,2416.349365 
	C2113.008789,2406.009521 2133.750977,2404.350830 2155.341064,2408.676025 
	C2182.932129,2414.203613 2206.883301,2427.084473 2226.710693,2446.379150 
	C2252.292725,2471.274170 2267.398193,2501.950195 2270.050781,2538.030029 
	C2271.607422,2559.201660 2272.433594,2580.429932 2274.180664,2601.583984 
	C2277.093506,2636.858887 2288.290283,2668.938232 2311.261475,2696.554688 
	C2336.894043,2727.370605 2369.789307,2745.598145 2408.930176,2751.436279 
	C2441.069824,2756.229736 2472.483398,2751.971680 2501.216797,2735.384766 
	C2515.421631,2727.184814 2526.440186,2715.964600 2531.181152,2699.647461 
	C2531.522461,2698.472168 2532.107910,2697.367676 2533.120850,2696.359131 
	C2534.834717,2717.663574 2531.649170,2738.311523 2524.678955,2758.335205 
	C2515.477539,2784.767578 2499.332031,2806.601318 2478.123779,2824.531494 
	C2459.275879,2840.466064 2437.518799,2850.840332 2413.221680,2855.852295 
	C2395.947021,2859.415527 2378.512695,2861.810059 2360.919189,2861.753174 
	C2340.659668,2861.687500 2320.347656,2861.273438 2300.159912,2859.707031 
	C2274.833740,2857.742188 2251.844482,2849.351562 2231.692139,2833.004395 
	C2205.617188,2811.853760 2190.998291,2784.363281 2184.233643,2752.180908 
	C2181.921875,2741.181396 2180.651611,2729.962646 2178.630127,2717.088867 
	C2176.935303,2724.045410 2175.367432,2729.670166 2174.207764,2735.377930 
	C2168.614014,2762.907959 2159.838867,2789.331787 2146.881592,2814.295166 
	C2134.786377,2837.598145 2116.378174,2854.226318 2092.496582,2864.827148 
	C2084.925537,2868.187988 2077.102783,2870.981934 2068.838867,2873.345215 
	C2101.248779,2837.872803 2122.744629,2782.595947 2114.267578,2753.752686 
	C2111.401367,2753.752686 2108.418457,2753.617676 2105.451416,2753.778076 
	C2096.981445,2754.236328 2091.520752,2750.206299 2088.462402,2742.569824 
	C2086.977295,2738.861816 2085.855957,2734.999268 2084.229492,2731.358643 
	C2078.803955,2719.215088 2073.819092,2706.817383 2067.485107,2695.158203 
	C2063.578369,2687.966309 2058.216797,2681.218506 2052.290771,2675.542725 
	C2040.312500,2664.070557 2025.868286,2661.928223 2010.638672,2668.241699 
	C2004.238892,2670.894775 1998.249390,2674.710449 1992.428711,2678.537842 
	C1986.593506,2682.374512 1981.258301,2686.963379 1975.604980,2691.086670 
	C1951.548828,2708.631836 1925.221680,2719.516357 1894.844116,2718.298584 
	C1864.162109,2717.069092 1840.795044,2703.474609 1825.100342,2676.937744 
	C1823.859741,2674.840088 1822.414307,2672.863525 1821.009644,2670.748779 
	C1819.981323,2671.730225 1819.424683,2672.131836 1819.040527,2672.658691 
	C1818.454102,2673.462891 1817.974976,2674.347412 1817.470215,2675.209473 
	C1795.228882,2713.197510 1788.792603,2753.629395 1799.197144,2796.475098 
	C1801.617554,2806.441650 1805.213623,2816.122803 1808.268677,2825.935303 
M2115.725586,2554.241455 
	C2113.174072,2558.805664 2114.011719,2562.377686 2118.586670,2565.184814 
	C2123.116943,2567.964600 2127.572021,2570.886963 2131.904785,2573.965088 
	C2150.655029,2587.284912 2165.914307,2603.505371 2174.671875,2625.222168 
	C2179.897949,2638.182129 2181.698975,2651.782471 2183.232422,2665.648438 
	C2187.382324,2643.492188 2190.438965,2621.232422 2194.382324,2599.131104 
	C2198.069824,2578.465820 2194.590332,2558.726074 2187.461914,2539.611572 
	C2178.200439,2514.775879 2159.677979,2500.243896 2133.539307,2496.526611 
	C2121.859131,2494.865234 2110.712158,2497.907471 2101.304688,2506.566650 
	C2104.624756,2511.344727 2107.884277,2515.174072 2110.181396,2519.513184 
	C2115.662842,2529.867188 2120.416748,2540.509521 2115.725586,2554.241455 
z"/>
<path fill="#FEB7B7" opacity="1.000000" stroke="none" 
	d="
M1808.754761,2826.403809 
	C1805.213623,2816.122803 1801.617554,2806.441650 1799.197144,2796.475098 
	C1788.792603,2753.629395 1795.228882,2713.197510 1817.470215,2675.209473 
	C1817.974976,2674.347412 1818.454102,2673.462891 1819.040527,2672.658691 
	C1819.424683,2672.131836 1819.981323,2671.730225 1821.009644,2670.748779 
	C1822.414307,2672.863525 1823.859741,2674.840088 1825.100342,2676.937744 
	C1840.795044,2703.474609 1864.162109,2717.069092 1894.844116,2718.298584 
	C1925.221680,2719.516357 1951.548828,2708.631836 1975.604980,2691.086670 
	C1981.258301,2686.963379 1986.593506,2682.374512 1992.428711,2678.537842 
	C1998.249390,2674.710449 2004.238892,2670.894775 2010.638672,2668.241699 
	C2025.868286,2661.928223 2040.312500,2664.070557 2052.290771,2675.542725 
	C2058.216797,2681.218506 2063.578369,2687.966309 2067.485107,2695.158203 
	C2073.819092,2706.817383 2078.803955,2719.215088 2084.229492,2731.358643 
	C2085.855957,2734.999268 2086.977295,2738.861816 2088.462402,2742.569824 
	C2091.520752,2750.206299 2096.981445,2754.236328 2105.451416,2753.778076 
	C2108.418457,2753.617676 2111.401367,2753.752686 2114.267578,2753.752686 
	C2122.744629,2782.595947 2101.248779,2837.872803 2068.067383,2873.295898 
	C2043.500854,2897.390625 2014.630615,2912.317871 1981.296997,2917.411377 
	C1932.870239,2924.811523 1889.287720,2912.904541 1851.283569,2881.727539 
	C1833.026001,2866.749512 1819.350464,2848.150146 1808.754761,2826.403809 
z"/>
<path fill="#2F2E41" opacity="1.000000" stroke="none" 
	d="
M662.356506,2582.036865 
	C659.850342,2581.155762 657.351562,2580.252930 654.836975,2579.396484 
	C628.483765,2570.421631 613.089600,2551.859375 608.000854,2524.822754 
	C601.769531,2491.715576 611.564026,2462.567871 630.894958,2435.902588 
	C641.654602,2421.061035 655.468567,2410.636230 673.457031,2406.608643 
	C691.050476,2402.669189 708.437134,2404.593994 725.222351,2410.844971 
	C750.124084,2420.118896 772.785400,2433.094482 791.368286,2452.486084 
	C792.235779,2453.391357 793.366821,2454.043945 795.165955,2455.418213 
	C795.834839,2451.929688 796.470703,2449.190186 796.874695,2446.416992 
	C800.862732,2419.038574 826.678162,2404.755127 849.665649,2403.718018 
	C868.953247,2402.847900 886.591980,2408.161377 903.564453,2415.929443 
	C931.140320,2428.550049 957.891296,2442.879150 981.650879,2461.936768 
	C1010.295898,2484.913574 1033.050415,2512.288086 1040.644653,2549.428711 
	C1048.518188,2587.934570 1044.980713,2625.587646 1029.021240,2661.593506 
	C1012.403870,2699.083496 987.104614,2730.036133 955.400513,2755.878418 
	C950.509705,2759.865234 945.731750,2763.994385 940.975525,2768.142334 
	C926.859863,2780.452148 909.711304,2781.382324 894.623535,2769.645996 
	C890.572388,2759.939209 885.861877,2751.592529 884.057190,2742.658447 
	C880.515442,2725.125488 878.573730,2707.267822 876.001953,2689.540039 
	C872.571045,2665.890137 869.434387,2642.193604 865.647766,2618.600830 
	C863.693359,2606.423584 860.314148,2594.621826 851.950073,2584.830811 
	C838.971680,2569.638428 821.914429,2563.343506 802.683228,2561.957275 
	C787.975525,2560.897461 773.463928,2562.630127 759.232666,2566.553467 
	C750.261047,2569.027100 741.230347,2571.304932 732.326111,2574.000488 
	C709.473816,2580.919434 686.153381,2583.482666 662.356506,2582.036865 
z"/>
<path fill="#9F616A" opacity="1.000000" stroke="none" 
	d="
M662.290283,2582.849609 
	C686.153381,2583.482666 709.473816,2580.919434 732.326111,2574.000488 
	C741.230347,2571.304932 750.261047,2569.027100 759.232666,2566.553467 
	C773.463928,2562.630127 787.975525,2560.897461 802.683228,2561.957275 
	C821.914429,2563.343506 838.971680,2569.638428 851.950073,2584.830811 
	C860.314148,2594.621826 863.693359,2606.423584 865.647766,2618.600830 
	C869.434387,2642.193604 872.571045,2665.890137 876.001953,2689.540039 
	C878.573730,2707.267822 880.515442,2725.125488 884.057190,2742.658447 
	C885.861877,2751.592529 890.572388,2759.939209 894.028687,2769.277344 
	C878.969482,2779.666992 862.069153,2784.767822 844.657349,2787.504150 
	C797.979370,2794.840088 755.298401,2784.698242 717.955139,2755.357422 
	C683.399963,2728.206543 663.441711,2692.535156 657.591431,2648.816406 
	C654.628357,2626.673584 656.879150,2605.109131 662.290283,2582.849609 
z"/>
<path fill="#FFFF" opacity="1.000000" stroke="none" 
	d="
M2115.925781,2553.461914 
	C2120.416748,2540.509521 2115.662842,2529.867188 2110.181396,2519.513184 
	C2107.884277,2515.174072 2104.624756,2511.344727 2101.304688,2506.566650 
	C2110.712158,2497.907471 2121.859131,2494.865234 2133.539307,2496.526611 
	C2159.677979,2500.243896 2178.200439,2514.775879 2187.461914,2539.611572 
	C2194.590332,2558.726074 2198.069824,2578.465820 2194.382324,2599.131104 
	C2190.438965,2621.232422 2187.382324,2643.492188 2183.232422,2665.648438 
	C2181.698975,2651.782471 2179.897949,2638.182129 2174.671875,2625.222168 
	C2165.914307,2603.505371 2150.655029,2587.284912 2131.904785,2573.965088 
	C2127.572021,2570.886963 2123.116943,2567.964600 2118.586670,2565.184814 
	C2114.011719,2562.377686 2113.174072,2558.805664 2115.925781,2553.461914 
z"/>
</svg>