<svg width="4088" height="4021.9999999999995" xmlns="http://www.w3.org/2000/svg" xml:space="preserve" enable-background="new 0 0 4088 4022" version="1.1">
 <title>team_page</title>

 <g>
  <title>Layer 1</title>
  <path id="svg_1" d="m2.00001,1258c-0.00001,-418.57312 -0.00001,-837.14627 -0.00001,-1256c810.05872,0 1620.11755,0 2431.58838,0.49278c1.00464,1.32351 0.59692,2.15423 -0.53223,3.28759c-2.88647,0.98016 -5.00781,1.89459 -7.22241,2.30002c-38.7312,7.09038 -73.66772,22.86573 -103.46729,48.41337c-35.67309,30.58289 -59.48413,69.51538 -74.32128,113.90756c-13.13843,39.30968 -18.89185,79.91802 -19.61646,121.24925c-0.19751,11.25904 0.64917,22.54709 1.28003,33.80707c0.72339,12.91117 0.75317,25.96756 2.8352,38.67398c4.28272,26.13794 8.88648,52.28211 14.90455,78.06272c8.30615,35.58358 20.27514,70.09918 33.91723,104.01019c1.2876,3.20087 2.32105,6.50391 3.47266,9.75952c-0.61719,0.26465 -1.23438,0.5293 -1.85156,0.79395c-1.18018,-1.84302 -2.56128,-3.58832 -3.5105,-5.54346c-25.39917,-52.32291 -51.18652,-104.44113 -80.04932,-154.97821c-33.21997,-58.16672 -70.1997,-113.73664 -115.87475,-162.94074c-35.85401,-38.62448 -75.28113,-73.26962 -120.63099,-100.65854c-25.11975,-15.17102 -51.45336,-27.69859 -79.6361,-36.09075c-27.04798,-8.05422 -54.70642,-11.00382 -82.76368,-8.13554c-29.59741,3.0257 -56.42858,14.16357 -81.70605,29.50453c-19.72485,11.97109 -37.04285,26.98058 -53.71863,42.68697c-11.10632,10.46079 -21.18188,22.01587 -32.45886,33.03618c-6.76453,-0.25401 -6.0719,4.58379 -7.54468,8.54187c-9.60547,10.51352 -18.86267,20.52117 -27.60412,30.96082c-28.96021,34.58659 -54.1117,71.54793 -70.83594,113.80412c-19.11707,48.30191 -24.68628,98.21445 -18.24512,149.56378c4.02564,32.0929 12.84876,62.98993 24.1731,93.22376c21.50012,57.40155 51.74255,110.06012 88.05786,159.15985c19.51318,26.38251 40.98022,51.31988 61.24744,77.24384c-0.31812,0.33453 -0.89197,1.05786 -1.6023,0.89953c-34.58704,-15.85657 -69.69849,-27.77252 -106.53601,-34.21539c-35.9856,-6.29389 -71.83008,-7.28931 -107.46106,2.83117c-47.40723,13.46521 -77.81848,44.04602 -92.05286,90.87549c-11.2705,37.07904 -10.16272,74.88501 -3.45788,112.3617c10.52417,58.8255 32.58532,113.43011 64.65759,163.8714c11.39673,17.92407 23.50501,35.39563 34.31116,53.18615c-5.64075,0.14575 -10.30432,0.20874 -14.96778,0.20874c-463.07067,0.00464 -926.14141,0.01868 -1389.21209,-0.03125c-27.81994,-0.00305 -47.74741,11.8722 -59.21885,37.51013c-0.78424,1.75269 -2.86733,2.92408 -4.34639,4.36585z" fill="none"/>
  <path id="svg_2" d="m2518,2c523.84521,0 1047.69067,0 1572,0c0,415.38928 0,830.77875 -0.70703,1247.1709c-1.48316,0.41199 -2.53711,-0.01526 -2.99439,-0.79321c-13.15429,-22.3783 -32.32714,-32.43824 -58.61035,-32.41639c-354.28369,0.29505 -708.56762,0.19873 -1062.85156,0.19031c-4.99805,-0.00012 -9.99634,-0.11474 -14.90161,-1.02832c4.58032,-38.99182 9.40356,-77.09558 13.44897,-115.28149c3.24561,-30.63721 5.89698,-61.34827 8.17383,-92.07392c2.42627,-32.7387 4.22168,-65.5263 6.05664,-98.30578c0.94678,-16.90644 1.55054,-33.83692 2.00977,-50.76465c0.80249,-29.58051 1.77905,-59.16535 1.92138,-88.75202c0.12818,-26.60192 -0.63794,-53.21179 -1.25268,-79.8125c-0.44531,-19.26031 -1.50025,-38.50701 -1.90381,-57.76776c-0.61182,-29.23004 -4.25561,-58.15625 -8.06714,-87.07928c-6.30054,-47.8132 -16.83325,-94.6463 -31.94775,-140.46744c-30.81153,-93.40771 -77.59571,-177.54167 -144.25977,-250.30095c-28.67163,-31.29316 -60.25683,-59.0922 -95.74243,-82.43122c-44.31152,-29.14359 -92.05151,-50.22187 -144.08105,-61.07664c-11.01514,-2.29809 -22.23999,-3.58866 -33.36231,-5.38075c-1.98218,-0.31941 -5.01147,0.04228 -2.92871,-3.62889z" fill="none"/>
  <path id="svg_3" d="m2949.84229,1215.97583c4.99804,0.06104 9.99633,0.17566 14.99438,0.17578c354.28394,0.00842 708.56787,0.10474 1062.85156,-0.19031c26.28321,-0.02185 45.45606,10.03809 58.61035,32.41639c0.45728,0.77795 1.51123,1.2052 2.99439,1.70922c0.70703,912.62159 0.70703,1825.33008 0.00537,2738.92872c-1.61499,1.7998 -2.82202,2.55468 -3.396,3.64306c-6.20361,11.76319 -14.96777,20.87354 -26.90869,26.94409c-1.38501,0.70435 -2.01391,2.89551 -2.99365,4.39722c-1338.04175,0 -2676.08362,0 -4015.01614,-0.7041c-1.51367,-1.45606 -1.98245,-2.52783 -2.78219,-2.91358c-15.66968,-7.56567 -26.64572,-19.32226 -32.58321,-35.78027c-0.41559,-1.15259 -2.37629,-1.74756 -3.61849,-2.60205c0.00003,-907.375 0.00003,-1814.75024 0.00004,-2723.06274c1.47906,-2.37903 3.56215,-3.55042 4.34639,-5.30311c11.47144,-25.63793 31.39891,-37.51318 59.21885,-37.51013c463.07068,0.04993 926.14142,0.03589 1389.21209,0.03125c4.66346,0 9.32703,-0.06299 15.84851,-0.05249c5.17823,0.18677 8.49842,0.45386 11.81861,0.45423c157.87585,0.02063 315.75183,0.0216 473.62768,-0.00586c3.30933,-0.00061 6.61878,-0.36194 10.83826,-0.34949c9.64197,0.11414 18.37366,0.02258 28.01929,0.15478c117.66113,0.22217 234.4082,0.22498 351.15551,0.19434c3.30494,-0.00085 6.60987,-0.3584 10.79419,-0.33093c6.29664,0.10571 11.71412,-0.00757 18.04786,0.09302c123.32104,0.23059 245.72607,0.25036 368.13086,0.2434c2.31152,-0.00012 4.6228,-0.31481 7.81543,-0.27087c6.29785,0.06421 11.71484,-0.08325 18.04736,-0.01221c58.27856,0.24646 115.64209,0.28247 173.00537,0.27662c2.63867,-0.00037 5.27734,-0.37415 7.91602,-0.57398m-1396.84229,2791.86816c824.9773,0 1649.95435,0 2474.93164,0.00025c2.33325,0 4.6792,0.156 6.99805,-0.02735c17.00049,-1.3435 30.00342,-9.0122 36.29199,-25.23193c2.31787,-5.97729 2.82642,-12.96289 2.82715,-19.48852c0.11841,-828.64478 0.11181,-1657.28931 0.11133,-2485.93396c0,-2.66663 0.15796,-5.34668 -0.06031,-7.99561c-0.17968,-2.18249 -0.80859,-4.328 -1.34204,-7.01257c-5.20849,0 -9.84668,0 -14.48486,0c-1340.29761,0 -2680.59534,-0.00147 -4020.89303,0.01379c-19.10051,0.00025 -17.20743,-1.85351 -17.20783,17.08691c-0.01701,826.64466 -0.01468,1653.28943 -0.01442,2479.93421c0,3.33325 -0.16373,6.67749 0.05936,9.99585c0.1761,2.61987 0.66494,5.24878 1.2984,7.80322c4.78777,19.30689 24.44989,31.10156 42.52423,31.09082c495.65327,-0.29419 991.3069,-0.23535 1488.96034,-0.23511m1906,-2561.99865c204.31396,-0.17847 408.62793,-0.35657 612.94189,-0.55994c0.26001,-0.00024 0.52735,-0.36731 0.7771,-0.57971c0.25196,-0.2146 0.48584,-0.4502 0.96851,-0.9021c0.14307,-1.73474 0.44751,-3.71033 0.44849,-5.68616c0.02588,-55.66638 0.18286,-111.33337 -0.08814,-166.99853c-0.0708,-14.5282 -7.92456,-25.0409 -20.21753,-32.28931c-7.75049,-4.5697 -16.30444,-5.06311 -25.10229,-5.05945c-363.66284,0.15344 -727.32569,0.23914 -1090.98853,0.30103c-191.99805,0.03259 -383.99634,0.0354 -575.99438,-0.00086c-297.32959,-0.05615 -594.65943,-0.20325 -891.98914,-0.22864c-465.33044,-0.03991 -930.66095,-0.01061 -1395.99138,-0.01049c-3.66665,0 -7.33341,-0.01783 -10.99992,0.00476c-25.73911,0.15869 -42.58042,16.93225 -42.59776,42.54907c-0.03451,50.99963 -0.0213,101.99939 -0.00424,152.99902c0.00611,18.27784 -1.45246,16.44886 16.85852,16.4491c1139.99296,0.01355 2279.98588,0.01196 3421.9788,0.01221z" fill="#364F4D"/>
  <path id="svg_4" d="m2949.93506,1215.12329c-2.73145,1.05237 -5.37012,1.42615 -8.00879,1.42652c-57.36328,0.00585 -114.72681,-0.03016 -173.0083,-1.20948c-0.25903,-11.0647 0.61621,-20.96948 1.01391,-30.89331c0.82422,-20.56738 1.50733,-41.14221 2.02125,-61.7196c0.26611,-10.65283 0.21386,-21.32093 0.01538,-31.97681c-0.58106,-31.2345 -1.30616,-62.46606 -1.98194,-93.69873c-0.02881,-1.33014 -0.07739,-2.66345 -0.20288,-3.98718c-1.24951,-13.16913 -2.66113,-26.32489 -3.73584,-39.50806c-0.91528,-11.22729 -0.97388,-22.54034 -2.25708,-33.71832c-2.22363,-19.37116 -4.93042,-38.69208 -7.7456,-57.98877c-3.96241,-27.16223 -7.24097,-54.47424 -12.55786,-81.37726c-8.15259,-41.25452 -16.88648,-82.44086 -27.05347,-123.23743c-10.26514,-41.18939 -22.20947,-81.97583 -34.08618,-122.74426c-14.41187,-49.47116 -31.32788,-98.13779 -50.29273,-146.03641c-14.42505,-36.4324 -29.56177,-72.60022 -45.19555,-108.53164c-13.92066,-31.99404 -28.1482,-63.90583 -43.70923,-95.12185c-19.43311,-38.98332 -40.26075,-77.2752 -60.71485,-115.74395c-7.32641,-13.77897 -15.46338,-27.12455 -22.94873,-40.82202c-4.09961,-7.50148 -7.61108,-15.32437 -10.63354,-23.22739c3.20971,-0.35956 5.68188,-0.3786 8.10498,-0.73236c0.44848,-0.0655 0.6997,-1.48201 1.04199,-2.27497c19.37524,-0.00001 38.75024,-0.00001 59.06274,-0.00001c-1.1455,3.67117 1.88379,3.30948 3.86597,3.62889c11.12232,1.79209 22.34717,3.08266 33.36231,5.38076c52.02954,10.85476 99.76953,31.93304 144.08105,61.07663c35.4856,23.33902 67.0708,51.13806 95.74243,82.43122c66.66406,72.75928 113.44824,156.89324 144.25977,250.30095c15.1145,45.82114 25.64721,92.65424 31.94775,140.46744c3.81153,28.92303 7.45532,57.84924 8.06714,87.07928c0.40356,19.26075 1.4585,38.50745 1.90381,57.76776c0.61474,26.60071 1.38086,53.21058 1.25268,79.8125c-0.14233,29.58667 -1.11889,59.17151 -1.92138,88.75202c-0.45923,16.92773 -1.06299,33.85821 -2.00977,50.76465c-1.83496,32.77948 -3.63037,65.56708 -6.05664,98.30578c-2.27685,30.72565 -4.92822,61.43671 -8.17383,92.07392c-4.04541,38.18591 -8.86865,76.28967 -13.44897,115.28149z" fill="#F2F2F2"/>
  <path id="svg_5" d="m2448.09863,5.23244c3.77686,7.67792 7.28833,15.50081 11.38794,23.00229c7.48535,13.69747 15.62232,27.04305 22.94873,40.82202c20.4541,38.46875 41.28174,76.76063 60.71485,115.74395c15.56103,31.21602 29.78857,63.12781 43.70923,95.12185c15.63378,35.93142 30.7705,72.09924 45.19555,108.53164c18.96485,47.89862 35.88086,96.56525 50.29273,146.03641c11.87671,40.76843 23.82104,81.55487 34.08618,122.74426c10.16699,40.79657 18.90088,81.98291 27.05347,123.23743c5.31689,26.90302 8.59545,54.21503 12.55786,81.37726c2.81518,19.29669 5.52197,38.61761 7.7456,57.98877c1.2832,11.17798 1.3418,22.49103 2.25708,33.71832c1.07471,13.18317 2.48633,26.33893 3.73584,39.50806c0.12549,1.32373 0.17407,2.65704 0.20288,3.98718c0.67578,31.23267 1.40088,62.46423 1.98194,93.69873c0.19848,10.65588 0.25073,21.32398 -0.01538,31.97681c-0.51392,20.57739 -1.19703,41.15222 -2.02125,61.7196c-0.3977,9.92383 -1.27294,19.82861 -1.92919,30.67481c-5.41431,1.08032 -10.8313,1.22778 -17.1272,0.24365c-0.18604,-15.04773 0.47632,-28.96546 1.20508,-42.87964c1.2832,-24.50391 3.33374,-48.99487 3.70092,-73.5116c0.33789,-22.56762 -1.08178,-45.16321 -1.79223,-67.74438c-0.62647,-19.91754 -1.33594,-39.83246 -2.0332,-59.74768c-0.04639,-1.32349 -0.31104,-2.63861 -0.45777,-3.95954c-1.16748,-10.51629 -2.46069,-21.02075 -3.45776,-31.55322c-0.90528,-9.56445 -1.06177,-19.21466 -2.2959,-28.73004c-2.97681,-22.95319 -6.13574,-45.88946 -9.69263,-68.75915c-4.62744,-29.75379 -8.93042,-59.59192 -14.8042,-89.10895c-6.65991,-33.4682 -14.07641,-66.83637 -22.66845,-99.85663c-10.52979,-40.46729 -22.4397,-80.58075 -34.08057,-120.75226c-13.70337,-47.28839 -30.13062,-93.6871 -48.11743,-139.47638c-14.93848,-38.03018 -31.01221,-75.63342 -47.38257,-113.07629c-14.38379,-32.89914 -29.35132,-65.56862 -45.04565,-97.86084c-12.64747,-26.02275 -26.47046,-51.49127 -40.31348,-76.9109c-13.82666,-25.38902 -28.38062,-50.38124 -42.49341,-75.61579c-3.54639,-6.34117 -7.81885,-12.51419 -7.36841,-20.34444c0.40747,-0.83074 0.81519,-1.66146 0.72266,-2.98497c2.27734,-0.49278 5.05517,-0.49278 8.24292,0.06329c2.05835,1.26283 3.70678,1.96961 5.35522,2.67637z" fill="#FFFFFF"/>
  <path id="svg_6" d="m1.99997,3982.93774c1.2422,-0.08325 3.2029,0.51172 3.61849,1.66431c5.93748,16.45801 16.91353,28.2146 32.58321,35.78027c0.79974,0.38575 1.26852,1.45752 1.84488,2.91358c-12.57284,0.7041 -25.09914,0.7041 -38.04655,0.7041c0,-13.37183 0,-26.74829 -0.00003,-41.06226z" fill="#000000"/>
  <path id="svg_7" d="m4056.94092,4024c0.03882,-1.50171 0.66772,-3.69287 2.05273,-4.39722c11.94092,-6.07055 20.70508,-15.1809 26.90869,-26.94409c0.57398,-1.08838 1.78101,-1.84326 3.396,-2.70581c0.70166,11.2312 0.70166,22.41553 0.70166,34.04712c-10.7019,0 -21.40991,0 -33.05908,0z" fill="#000000"/>
  <path id="svg_8" d="m2448.85303,5.00734c-2.40284,-0.48166 -4.05127,-1.18844 -5.27637,-2.45127c4.50659,-0.55607 8.59009,-0.55607 13.54834,-0.55606c0.53271,0.79296 0.28149,2.20947 -0.16699,2.27497c-2.4231,0.35376 -4.89527,0.3728 -8.10498,0.73236z" fill="#344C4A"/>
  <path id="svg_9" d="m2433.05615,5.78039c0.27124,7.52761 4.5437,13.70063 8.09009,20.0418c14.11279,25.23455 28.66675,50.22677 42.49341,75.61579c13.84302,25.41963 27.66601,50.88815 40.31348,76.9109c15.69433,32.29222 30.66186,64.9617 45.04565,97.86084c16.37036,37.44287 32.44409,75.04611 47.38257,113.07629c17.98681,45.78928 34.41406,92.18799 48.11743,139.47638c11.64087,40.17151 23.55078,80.28497 34.08057,120.75226c8.59204,33.02026 16.00854,66.38843 22.66845,99.85663c5.87378,29.51703 10.17676,59.35516 14.8042,89.10895c3.55689,22.86969 6.71582,45.80596 9.69263,68.75915c1.23413,9.51538 1.39062,19.16559 2.2959,28.73004c0.99707,10.53247 2.29028,21.03693 3.45776,31.55322c0.14673,1.32093 0.41138,2.63605 0.45777,3.95954c0.69726,19.91522 1.40673,39.83014 2.0332,59.74768c0.71045,22.58117 2.13012,45.17676 1.79223,67.74438c-0.36718,24.51673 -2.41772,49.00769 -3.70092,73.5116c-0.72876,13.91418 -1.39112,27.83191 -2.08594,42.66797c-2.31372,1.08765 -4.625,1.40234 -6.93652,1.40246c-122.40479,0.00696 -244.80982,-0.01281 -368.20655,-0.94677c-6.14502,-8.6239 -11.0852,-16.48365 -16.49145,-24.00867c-15.67945,-21.82349 -31.56665,-43.49793 -47.33325,-65.25903c-14.21436,-19.61878 -28.34937,-39.29505 -42.57105,-58.90833c-14.41479,-19.87951 -28.96143,-39.66333 -43.32373,-59.58057c-14.94556,-20.7268 -29.7063,-41.58697 -44.60815,-62.34564c-18.3833,-25.60876 -36.83838,-51.16583 -55.24317,-76.75909c-13.9519,-19.40131 -27.80762,-38.87256 -41.82739,-58.22467c-17.12964,-23.64472 -34.51636,-47.10376 -51.55615,-70.81268c-23.8252,-33.14991 -47.31043,-66.54413 -71.16297,-99.6742c-30.82788,-42.81842 -61.92444,-85.44324 -92.80884,-128.22119c-19.23242,-26.63889 -38.16418,-53.49527 -57.44995,-80.09512c-25.90527,-35.72937 -52.13879,-71.22092 -78.01733,-106.96949c-29.77075,-41.12542 -59.23755,-82.47117 -89.08276,-123.54219c-2.34461,-3.22624 -6.61951,-5.04976 -9.99732,-7.52516c10.53687,-11.06534 20.61243,-22.62042 31.71875,-33.08121c16.67578,-15.70639 33.99378,-30.71588 53.71863,-42.68697c25.27747,-15.34096 52.10864,-26.47883 81.70605,-29.50453c28.05726,-2.86828 55.7157,0.08132 82.76368,8.13554c28.18274,8.39216 54.51635,20.91973 79.6361,36.09075c45.34986,27.38892 84.77698,62.03406 120.63099,100.65854c45.67505,49.2041 82.65478,104.77402 115.87475,162.94074c28.8628,50.53708 54.65015,102.6553 80.04932,154.97821c0.94922,1.95514 2.33032,3.70044 3.5105,5.54346c0.61718,-0.26465 1.23437,-0.5293 1.85156,-0.79395c-1.15161,-3.25561 -2.18506,-6.55865 -3.47266,-9.75952c-13.64209,-33.91101 -25.61108,-68.42661 -33.91723,-104.01019c-6.01807,-25.78061 -10.62183,-51.92478 -14.90455,-78.06272c-2.08203,-12.70642 -2.11181,-25.76281 -2.8352,-38.67398c-0.63086,-11.25998 -1.47754,-22.54803 -1.28003,-33.80707c0.72461,-41.33123 6.47803,-81.93957 19.61646,-121.24925c14.83715,-44.39218 38.64819,-83.32467 74.32128,-113.90756c29.79957,-25.54764 64.73609,-41.32299 103.46729,-48.41337c2.2146,-0.40543 4.33594,-1.31986 7.22241,-2.3m16.82813,831.69782c0.48535,-0.00696 0.97094,-0.01386 1.4563,-0.02081c-0.2417,-0.68421 -0.48365,-1.36835 -0.84595,-2.48035c0,0 -0.59326,-0.61957 -1.63843,-1.66699c-0.70654,-0.67517 -1.41284,-1.35034 -2.34399,-3.15808c-0.73242,-0.81732 -1.46485,-1.63471 -2.59888,-3.70233c-2.93335,-3.54547 -5.86645,-7.09095 -9.26147,-11.63062c-0.40113,-0.61114 -0.80225,-1.22229 -1.92823,-3.01703c-15.47949,-22.4295 -30.91577,-44.88891 -46.49902,-67.24597c-1.70068,-2.44006 -4.24634,-4.29144 -5.84522,-7.74432c-1.47558,-2.25507 -2.95117,-4.51014 -4.44726,-8.12189c-0.98633,-1.38709 -1.97241,-2.77417 -2.95874,-4.16126c-0.50977,0.48871 -1.01953,0.97748 -1.5293,1.46625c1.5586,1.28565 3.11743,2.57129 4.0647,5.17005c1.50439,2.27679 3.00879,4.55358 4.59912,8.24609c10.46314,16.04205 20.69214,32.24383 31.479,48.06506c6.28467,9.21766 13.46314,17.82575 20.50928,27.9195c0.57569,0.56622 1.15137,1.13244 1.96192,2.93207c2.96459,3.50268 5.9292,7.00543 9.2666,11.61175c0.80127,0.78735 1.60254,1.57465 2.97485,3.64234c0.59814,0.70953 1.19629,1.41906 2.0415,2.61895c0,0 0.46753,0.34394 0.46753,0.34394c0,0 0.58106,-0.02802 1.07569,0.93365m-95.68409,-142.60181c0.39258,0.00989 0.78492,0.01978 1.1775,0.02973c-0.4751,-0.28815 -0.9502,-0.5763 -1.3125,-1.97931c-0.42725,-0.13825 -0.8545,-0.27649 -1.28174,-0.41461c0.41308,0.48559 0.82617,0.97119 1.41674,2.36419m-68.54516,-131.57367c0.11645,0.37684 0.23266,0.75367 0.30029,2.53656c3.46851,6.74952 6.93726,13.49903 10.40576,20.24854c0.84034,-0.42236 1.68091,-0.84467 2.52124,-1.26703c-3.40795,-6.90906 -6.81591,-13.81818 -10.71313,-21.81787c-0.46558,-0.6134 -0.93091,-1.22681 -1.65674,-3.35626c-0.77807,-0.58673 -1.55639,-1.17346 -2.33447,-1.76019c0.55469,1.41595 1.10937,2.8319 1.47705,5.41625m48.05688,90.63019c-0.97827,0.02735 -1.95629,0.05469 -2.93457,0.08197c1.55982,3.23767 3.11939,6.4754 4.67896,9.71308c0.70776,-0.3302 1.41577,-0.66047 2.12378,-0.99067c-1.07031,-2.5548 -2.14087,-5.10961 -3.86817,-8.80438m6.79493,18.93237c1.15893,1.60273 2.31762,3.20539 4.76245,6.58686c-1.42408,-7.0127 -1.42408,-7.0127 -4.76245,-6.58686m-38.792,-78.89825c-0.34887,-0.51599 -0.69751,-1.03198 -1.04638,-1.54803c0.07666,0.72576 0.15332,1.45153 1.04638,1.54803m-3.49438,-4.98645c0.38598,0.15118 0.77197,0.30243 1.1582,0.45355c-0.11841,-0.42474 -0.23681,-0.84954 -1.1582,-0.45355m40.82666,77.67487c0,0 -0.23731,0.49298 -0.23731,0.49298c0,0 0.49537,-0.09931 0.23731,-0.49298m7.88769,15.03808c0.15918,-0.16754 0.43335,-0.32763 0.44483,-0.50482c0.01172,-0.17706 -0.2395,-0.37122 -0.37549,-0.55786c-0.15918,0.16742 -0.31836,0.3349 -0.06934,1.06268m2.65772,3.41791c-0.39038,-0.02045 -0.78052,-0.04083 -1.1709,-0.06134c0.18335,0.23468 0.3667,0.46936 1.1709,0.06134m1.99805,3.84467c-0.396,-0.03241 -0.79224,-0.06482 -1.18824,-0.09717c0.1792,0.24243 0.35865,0.48486 1.18824,0.09717m101.48877,151.59454c0,0 -0.23096,0.51355 -0.23096,0.51355c0,0 0.52417,-0.11731 0.23096,-0.51355m-96.05152,-142.38928c-0.14258,0.41406 -0.28515,0.82812 -0.42773,1.24225c0.39087,-0.12671 0.78149,-0.25336 0.42773,-1.24225m2.43628,4.80212c-0.28882,-0.03571 -0.57764,-0.07141 -0.86645,-0.10705c0.12182,0.19769 0.24389,0.39538 0.86645,0.10705z" fill="#F2F2F2"/>
  <path id="svg_10" d="m1966.00024,1215.99609c-3.30932,0.19312 -6.61877,0.55445 -9.9281,0.55506c-157.87585,0.02746 -315.75183,0.02649 -473.62768,0.00586c-3.32019,-0.00037 -6.64038,-0.26746 -10.84131,-0.56641c-12.66418,-17.83459 -24.77246,-35.30615 -36.16919,-53.23022c-32.07227,-50.44129 -54.13342,-105.0459 -64.65759,-163.8714c-6.70484,-37.47669 -7.81262,-75.28266 3.45788,-112.3617c14.23438,-46.82947 44.64563,-77.41028 92.05286,-90.87549c35.63098,-10.12048 71.47546,-9.12506 107.46106,-2.83117c36.83752,6.44287 71.94897,18.35882 107.01855,34.50757c1.72278,0.3258 2.25281,0.20099 2.78284,0.07617c-0.44824,-0.53418 -0.89661,-1.0683 -1.34497,-1.60242c-20.58533,-25.58942 -42.05237,-50.52679 -61.56555,-76.9093c-36.31531,-49.09973 -66.55774,-101.7583 -88.05786,-159.15985c-11.32434,-30.23383 -20.14746,-61.13086 -24.1731,-93.22376c-6.44116,-51.34933 -0.87195,-101.26187 18.24512,-149.56378c16.72424,-42.25619 41.87573,-79.21753 70.83594,-113.80412c8.74145,-10.43965 17.99865,-20.4473 28.23449,-30.66591c2.11719,0.94862 3.14356,1.8217 3.90332,2.88522c14.26917,19.97447 28.40515,40.04473 42.77613,59.9455c18.05773,25.0061 36.37512,49.82477 54.44384,74.82303c14.96192,20.70019 29.69068,41.56884 44.58643,62.31704c18.37573,25.59555 36.80566,51.15213 55.23462,76.70945c14.3573,19.9107 28.77441,39.77838 43.11914,59.69812c18.41333,25.56976 36.76367,51.18499 55.17322,76.7575c14.14782,19.65259 28.35888,39.25959 42.51757,58.90436c18.4231,25.56177 36.80762,51.15149 55.23621,76.70923c14.35645,19.91034 28.77124,39.77869 43.13037,59.6872c15.32862,21.25262 30.60889,42.53985 45.93433,63.79437c13.96777,19.37121 27.98364,38.70758 41.94922,58.08026c15.12866,20.98608 30.20727,42.00836 45.33838,62.99268c14.16259,19.64153 28.34472,39.26879 42.55566,58.87536c14.20899,19.60388 28.49683,39.15051 42.69043,58.76563c17.30542,23.91552 34.69385,47.77307 51.74805,71.86706c7.04614,9.95496 13.3164,20.45923 19.93945,30.71375c-3.30493,0.1914 -6.60986,0.54895 -9.9148,0.5498c-116.74731,0.03064 -233.49438,0.02783 -351.23315,-0.90393c-3.0686,-2.90393 -4.87476,-5.31995 -7.26562,-6.77539c-21.568,-13.13 -43.18604,-26.17969 -64.89209,-39.08044c-27.4209,-16.29725 -54.87537,-32.54041 -82.43323,-48.60499c-22.10547,-12.88586 -44.35523,-25.52539 -66.59851,-38.17321c-21.67188,-12.32312 -43.3302,-24.67493 -65.15613,-36.72095c-18.63745,-10.28613 -37.51172,-20.1427 -56.26782,-30.21442c-35.16406,-18.88269 -70.28064,-37.85461 -105.49365,-56.64569c-16.7378,-8.93213 -33.56898,-17.6983 -50.50379,-26.25049c-32.41943,-16.37194 -64.93616,-32.55114 -97.44006,-48.75512c-2.05518,-1.02454 -4.36341,-2.22657 -6.52417,-2.17175c-2.40967,0.06115 -6.12512,0.85083 -6.85083,2.43347c-0.9989,2.17889 -0.6836,6.17254 0.79065,7.99774c2.3999,2.97137 5.95422,5.28485 9.43567,7.06628c40.02551,20.48035 80.14819,40.77057 120.20495,61.19019c24.62085,12.55084 49.19654,25.19067 73.74268,37.88696c9.45373,4.88983 18.81262,9.96832 28.13989,15.09674c32.33789,17.78028 64.65576,35.59741 96.95666,53.44495c24.73426,13.66675 49.57532,27.14856 74.10938,41.16687c32.60022,18.62719 64.99658,37.61352 97.38892,56.6018c25.22558,14.78711 50.34619,29.75452 75.39086,44.84546c1.96534,1.18421 2.9657,3.96985 4.41443,6.01123z" fill="#F2F2F2"/>
  <path id="svg_11" d="m2356.87939,1216.21985c-7.50244,-10.47339 -13.7727,-20.97766 -20.81884,-30.93262c-17.0542,-24.09399 -34.44263,-47.95154 -51.74805,-71.86706c-14.1936,-19.61512 -28.48144,-39.16175 -42.69043,-58.76563c-14.21094,-19.60657 -28.39307,-39.23383 -42.55566,-58.87536c-15.13111,-20.98432 -30.20972,-42.0066 -45.33838,-62.99268c-13.96558,-19.37268 -27.98145,-38.70905 -41.94922,-58.08026c-15.32544,-21.25452 -30.60571,-42.54175 -45.93433,-63.79437c-14.35913,-19.90851 -28.77392,-39.77686 -43.13037,-59.6872c-18.42859,-25.55774 -36.81311,-51.14746 -55.23621,-76.70923c-14.15869,-19.64477 -28.36975,-39.25177 -42.51757,-58.90436c-18.40955,-25.57251 -36.75989,-51.18774 -55.17322,-76.7575c-14.34473,-19.91974 -28.76184,-39.78742 -43.11914,-59.69812c-18.42896,-25.55732 -36.85889,-51.1139 -55.23462,-76.70945c-14.89575,-20.7482 -29.62451,-41.61685 -44.58643,-62.31704c-18.06872,-24.99826 -36.38611,-49.81693 -54.44384,-74.82303c-14.37098,-19.90077 -28.50696,-39.97103 -42.77613,-59.9455c-0.75976,-1.06352 -1.78613,-1.9366 -3.31884,-3.19327c0.25793,-3.94494 -0.4347,-8.78274 6.32983,-8.52874c4.11792,2.52044 8.39282,4.34396 10.73743,7.5702c29.84521,41.07102 59.31201,82.41677 89.08276,123.54219c25.87854,35.74857 52.11206,71.24012 78.01733,106.96949c19.28577,26.59985 38.21753,53.45623 57.44995,80.09512c30.8844,42.77795 61.98096,85.40277 92.80884,128.22119c23.85254,33.13007 47.33777,66.52429 71.16297,99.6742c17.03979,23.70892 34.42651,47.16796 51.55615,70.81268c14.01977,19.35211 27.87549,38.82336 41.82739,58.22467c18.40479,25.59326 36.85987,51.15033 55.24317,76.75909c14.90185,20.75867 29.66259,41.61884 44.60815,62.34564c14.3623,19.91724 28.90894,39.70106 43.32373,59.58057c14.22168,19.61328 28.35669,39.28955 42.57105,58.90833c15.7666,21.7611 31.6538,43.43554 47.33325,65.25903c5.40625,7.52502 10.34643,15.38477 15.57519,23.79492c-5.34179,0.81653 -10.75927,0.92981 -17.05591,0.8241z" fill="#FFFFFF"/>
  <path id="svg_12" d="m1552,4007.84375c-496.65344,0 -992.30707,-0.05884 -1487.96033,0.23535c-18.07435,0.01074 -37.73647,-11.78393 -42.52424,-31.09082c-0.63346,-2.55444 -1.1223,-5.18335 -1.2984,-7.80322c-0.22309,-3.31836 -0.05936,-6.6626 -0.05936,-9.99585c-0.00026,-826.64478 -0.00259,-1653.28955 0.01442,-2479.93421c0.0004,-18.94042 -1.89268,-17.08666 17.20783,-17.08691c1340.29769,-0.01526 2680.59542,-0.01379 4020.89303,-0.01379c4.63818,0 9.27637,0 14.48486,0c0.53345,2.68457 1.16236,4.83008 1.34204,7.01257c0.21827,2.64893 0.06031,5.32898 0.06031,7.99561c0.00048,828.64465 0.00708,1657.28918 -0.11133,2485.93396c-0.00073,6.52563 -0.50928,13.51123 -2.82715,19.48852c-6.28857,16.21973 -19.2915,23.88843 -36.29199,25.23193c-2.31885,0.18335 -4.6648,0.02735 -6.99805,0.02735c-824.97729,-0.00025 -1649.95434,-0.00025 -2475.93164,-0.00049m208.04981,-724.04956c106.58019,0.05762 213.16052,0.13159 319.74072,0.15063c12.64697,0.00245 25.2937,-0.29419 39.83789,-0.25366c4.33227,0.0437 8.66479,0.12525 12.99707,0.12598c123.66333,0.01953 247.3269,0.0647 370.99023,-0.04004c7.59424,-0.00659 15.3086,-0.56714 22.76099,-1.9668c35.68213,-6.70141 61.45996,-37.47827 61.46558,-73.34863c0.04858,-310.33105 0.052,-620.66186 -0.11304,-930.99292c-0.00415,-7.51904 -1.31445,-15.26343 -3.37647,-22.51587c-8.54101,-30.03589 -39.87256,-53.31421 -73.04687,-53.28491c-303.99756,0.26758 -607.99524,0.15771 -911.99292,0.15796c-6,0 -12.00781,-0.20044 -17.99854,0.03467c-29.37402,1.15258 -51.09411,14.73584 -65.54602,40.31225c-7.81762,13.83545 -9.5459,28.98999 -9.55163,44.31738c-0.1117,300.66456 -0.09778,601.32886 -0.01416,901.99341c0.00268,9.27149 0.96704,18.54615 1.58508,27.81275c1.56445,23.45849 14.38245,40.29126 32.38049,53.74853c13.57483,10.1499 29.53662,13.63623 46.08875,13.72608c48.99768,0.26538 97.99743,0.13574 146.99646,0.11547c8.32812,-0.00341 16.65625,-0.22876 26.79639,-0.09228m178.95019,273.86816c-323.94568,0 -647.89136,-0.00464 -971.83704,0.00953c-23.5664,0.00097 -43.57171,14.57885 -50.45807,36.60229c-7.0838,22.65503 1.80005,46.80786 21.84766,60.19629c11.32477,7.5625 23.96039,9.22046 37.08704,9.22046c712.54596,-0.00073 1425.09185,0.00366 2137.63775,-0.05786c7.60621,-0.00049 15.25953,-0.47486 22.81055,-1.38941c29.84815,-3.61621 50.40747,-35.7727 42.82373,-65.10864c-6.14258,-23.7605 -29.09302,-39.7395 -53.11255,-39.71826c-394.93286,0.34594 -789.86596,0.2456 -1186.79907,0.2456m-361.68384,-1629.98169c313.59302,0 627.18604,0.00831 940.77905,-0.06616c5.6001,-0.00134 11.41334,-0.21045 16.76221,-1.66491c20.2749,-5.51319 34.24805,-18.4513 38.50855,-39.06739c4.31396,-20.87414 -0.948,-39.61377 -18.54541,-53.52697c-11.87744,-9.39087 -25.63941,-11.73121 -40.32202,-11.72803c-311.59351,0.06677 -623.18689,0.04809 -934.7804,0.07593c-4.32043,0.00036 -8.67541,0.10339 -12.95581,0.63208c-24.95874,3.08337 -44.1875,23.10791 -46.52783,47.37658c-3.09961,32.14185 23.02771,59.26746 57.08166,57.96887m1427.68384,274.14673c-57.9917,0 -115.98364,-0.00146 -173.97534,0.00122c-20.58716,0.00098 -38.28662,7.06299 -53.11328,21.4419c-16.51758,16.0188 -23.70166,35.92944 -23.70948,58.4248c-0.09912,284.95752 -0.06518,569.9148 -0.06518,854.87232c0,22.66333 -0.23657,45.32983 0.08569,67.98852c0.20581,14.46143 3.05591,28.52246 10.8645,40.96387c15.95606,25.42285 39.28247,38.23267 69.17578,38.27759c115.31544,0.17358 230.6316,0.13061 345.94727,0.1272c190.9707,-0.00587 381.94116,-0.02711 572.91187,-0.13746c6.26733,-0.00366 12.57836,-0.74463 18.79443,-1.6521c36.39624,-5.31274 63.97461,-36.61377 63.97021,-75.20752c-0.03491,-309.95361 0.0022,-619.90747 -0.15136,-929.86108c-0.00367,-7.2002 -1.19483,-14.61987 -3.16016,-21.56103c-8.43359,-29.78443 -39.14746,-53.88819 -73.6875,-53.84522c-250.62866,0.31128 -501.2583,0.16675 -753.88745,0.16699m-2242,0.00733c-141.96887,-0.00025 -283.9379,-0.07935 -425.90631,0.18188c-9.13761,0.0166 -18.65363,1.47901 -27.33606,4.2959c-30.54273,9.9082 -50.3248,40.63647 -50.26633,72.69556c0.56421,309.26416 0.3382,618.52978 0.33969,927.79516c0,2.99927 -0.518,6.12183 0.13431,8.97461c1.91409,8.3711 2.85046,17.39698 6.75217,24.80664c15.34942,29.14991 40.3016,43.2229 73.13119,43.24536c138.63529,0.09473 277.2706,0.1565 415.90592,0.16871c85.98034,0.00756 171.96075,-0.11622 257.9411,-0.14405c82.98022,-0.02685 165.96179,0.23706 248.93994,-0.17407c21.25159,-0.10547 40.31616,-7.23169 55.58582,-23.04175c15.97692,-16.54175 22.08703,-36.22583 22.07287,-58.97363c-0.19067,-305.93262 -0.12658,-611.86548 -0.14014,-917.7981c-0.00024,-4.32983 0.00477,-8.67334 -0.31347,-12.98681c-1.05689,-14.3252 -6.00696,-27.39893 -14.82422,-38.55664c-16.25049,-20.56348 -37.48023,-30.65161 -64.12585,-30.61182c-165.29664,0.24561 -330.59369,0.12329 -497.89063,0.12305z" fill="none"/>
  <path id="svg_13" d="m3458,1445.84522c-1140.99292,-0.00013 -2280.98584,0.00146 -3420.9788,-0.01209c-18.31098,-0.00024 -16.85241,1.82874 -16.85852,-16.4491c-0.01706,-50.99963 -0.03027,-101.99939 0.00424,-152.99902c0.01734,-25.61682 16.85865,-42.39038 42.59776,-42.54907c3.66651,-0.02259 7.33327,-0.00476 10.99991,-0.00476c465.33044,-0.00012 930.66095,-0.02942 1395.99139,0.01049c297.32971,0.02539 594.65955,0.17249 891.98914,0.22864c191.99804,0.03626 383.99633,0.03345 575.99438,0.00086c363.66284,-0.06189 727.32569,-0.14759 1090.98853,-0.30103c8.79785,-0.00366 17.3518,0.48975 25.10229,5.05945c12.29297,7.24841 20.14673,17.76111 20.21753,32.28931c0.271,55.66516 0.11402,111.33215 0.08814,166.99853c-0.00098,1.97583 -0.30542,3.95142 -0.44849,5.68616c-0.48267,0.4519 -0.71655,0.6875 -0.96851,0.9021c-0.24975,0.2124 -0.51709,0.57947 -0.7771,0.57971c-204.31396,0.20337 -408.62793,0.38147 -613.94189,0.55982m-3059.0726,-144.04651c-1.40357,1.42309 -2.87088,2.78918 -4.20105,4.27795c-16.39383,18.34863 -16.5253,46.68518 -0.96192,64.9917c18.68232,21.97534 48.28135,20.80579 65.99036,9.12756c14.66168,-9.66858 27.57837,-32.46545 18.92957,-57.20861c-4.1359,-11.83228 -11.39163,-21.00574 -22.43677,-26.90857c-19.70639,-10.5315 -38.43302,-7.95813 -57.32019,5.71997m-63.05759,58.57605c1.01718,-2.80994 2.3685,-5.54749 2.99683,-8.44178c3.83606,-17.67077 1.17032,-34.31396 -11.79889,-47.27673c-24.14865,-24.1366 -61.10022,-17.72778 -77.26465,6.79297c-12.80469,19.42383 -11.67532,50.05542 11.86713,67.70642c21.41067,16.05261 59.53979,11.76099 74.19958,-18.78088m-162.23062,22.70141c6.06419,-5.578 13.5372,-10.23291 17.91643,-16.91516c11.10957,-16.95203 11.679,-35.17798 1.04037,-52.73791c-9.947,-16.41834 -25.05186,-24.2378 -44.3249,-23.55689c-18.95446,0.66968 -33.37593,9.72083 -41.89171,26.16284c-8.42374,16.26441 -7.84757,33.26856 1.82019,49.35034c12.20285,20.29883 40.08685,29.35084 65.43962,17.69678z" fill="none"/>
  <path id="svg_14" d="m1966.9104,1216.20166c-2.35889,-2.24695 -3.35925,-5.03259 -5.32459,-6.2168c-25.04467,-15.09094 -50.16528,-30.05835 -75.39086,-44.84546c-32.39234,-18.98828 -64.7887,-37.97461 -97.38892,-56.6018c-24.53406,-14.01831 -49.37512,-27.50012 -74.10938,-41.16687c-32.3009,-17.84754 -64.61877,-35.66467 -96.95666,-53.44495c-9.32727,-5.12842 -18.68616,-10.20691 -28.13989,-15.09674c-24.54614,-12.69629 -49.12183,-25.33612 -73.74268,-37.88696c-40.05676,-20.41962 -80.17944,-40.70984 -120.20495,-61.19019c-3.48145,-1.78143 -7.03577,-4.09491 -9.43567,-7.06628c-1.47425,-1.8252 -1.78955,-5.81885 -0.79065,-7.99774c0.72571,-1.58264 4.44116,-2.37232 6.85083,-2.43347c2.16076,-0.05482 4.46899,1.14721 6.52417,2.17175c32.5039,16.20398 65.02063,32.38318 97.44006,48.75512c16.93481,8.55219 33.76599,17.31836 50.50379,26.25049c35.21301,18.79108 70.32959,37.763 105.49365,56.64569c18.7561,10.07172 37.63037,19.92829 56.26782,30.21442c21.82593,12.04602 43.48425,24.39783 65.15613,36.72095c22.24328,12.64782 44.49304,25.28735 66.59851,38.17321c27.55786,16.06458 55.01233,32.30774 82.43323,48.60499c21.70605,12.90075 43.32409,25.95044 64.89209,39.08044c2.39086,1.45544 4.19702,3.87146 6.3518,6.55164c-8.65417,0.80114 -17.38586,0.8927 -27.02783,0.77856z" fill="#FFFFFF"/>
  <path id="svg_15" d="m2379.82471,738.1402c2.15356,2.12439 4.69922,3.97577 6.3999,6.41583c15.58325,22.35706 31.01953,44.81647 46.43677,68.11151c-0.31958,1.08252 -0.57715,1.29956 -0.83496,1.51654c-6.77637,-8.88232 -13.95484,-17.49041 -20.23951,-26.70807c-10.78686,-15.82123 -21.01586,-32.02301 -31.57128,-48.73779c-0.09229,-0.67273 -0.19092,-0.59802 -0.19092,-0.59802z" fill="none"/>
  <path id="svg_16" d="m2288.65869,564.09351c3.40772,6.90911 6.81568,13.81823 10.22363,20.72729c-0.84033,0.42236 -1.6809,0.84467 -2.52124,1.26703c-3.4685,-6.74951 -6.93725,-13.49902 -9.70776,-20.95465c1.13355,-0.81726 1.56958,-0.92847 2.00537,-1.03967z" fill="none"/>
  <path id="svg_17" d="m2442.95166,828.83569c-2.96435,-3.50268 -5.92896,-7.00543 -8.70825,-11.46509c0.1853,-0.95697 0.87012,-1.55737 0.87012,-1.55737c2.93335,3.54547 5.86645,7.09095 8.65942,11.54505c-0.14063,0.90857 -0.82129,1.47747 -0.82129,1.47741z" fill="none"/>
  <path id="svg_18" d="m2334.04053,654.50287c1.39868,3.12482 2.46924,5.67963 3.53955,8.23443c-0.70801,0.3302 -1.41602,0.66047 -2.12378,0.99067c-1.55957,-3.23768 -3.11914,-6.47541 -4.67896,-9.71308c0.97828,-0.02728 1.9563,-0.05462 3.26319,0.48798z" fill="#CBCBCB"/>
  <path id="svg_19" d="m2340.4978,672.22742c3.34741,0.21203 3.34741,0.21203 4.77149,7.22473c-2.44483,-3.38147 -3.60352,-4.98413 -4.77149,-7.22473z" fill="#CBCBCB"/>
  <path id="svg_20" d="m2375.95264,730.04651c1.47558,2.25506 2.95117,4.51013 4.14941,7.42944c-0.27734,0.66425 -0.17871,0.58954 -0.12939,0.55445c-1.45508,-2.31196 -2.95948,-4.58875 -4.19873,-7.4723c0.26538,-0.60674 0.17871,-0.51159 0.17871,-0.51159z" fill="#364F4D"/>
  <path id="svg_22" d="m2445.72852,832.30133c-0.80127,-0.78735 -1.60254,-1.57465 -2.59034,-2.91376c-0.18652,-0.55182 0.49414,-1.12072 0.83545,-1.40417c1.07373,0.53387 1.80616,1.35126 2.39502,2.98742c-0.1438,0.81885 -0.64013,1.33051 -0.64013,1.33051z" fill="none"/>
  <path id="svg_23" d="m2285.8418,562.1344c-0.55445,-1.41602 -1.10913,-2.83197 -1.66382,-4.24792c0.77808,0.58673 1.5564,1.17346 2.23364,2.76403c-0.10083,1.00391 -0.56982,1.48389 -0.56982,1.48389z" fill="#000000"/>
  <path id="svg_24" d="m2301.30664,594.28168c-0.48486,-0.41114 -0.56152,-1.13691 -0.63818,-1.86267c0.34887,0.51605 0.69751,1.03204 0.63818,1.86267z" fill="#9F616A"/>
  <path id="svg_26" d="m2354.0227,693.96899c-0.41308,-0.48559 -0.82617,-0.97119 -1.23925,-1.45678c0.42724,0.13812 0.85449,0.27636 1.24511,0.95507c-0.03662,0.54047 -0.00586,0.50171 -0.00586,0.50171z" fill="#9F616A"/>
  <path id="svg_27" d="m2298.62207,588.57019c0.51978,0.01441 0.63818,0.43921 0.75635,0.86401c-0.38599,-0.15118 -0.77198,-0.30243 -0.75635,-0.86401z" fill="#9F616A"/>
  <path id="svg_28" d="m2339.17627,666.8523c0.12891,0.19683 -0.36646,0.29614 -0.36646,0.29614c0,0 0.23731,-0.49298 0.36646,-0.29614z" fill="#CBCBCB"/>
  <path id="svg_29" d="m2346.73096,681.41339c-0.04517,-0.44763 0.11401,-0.61511 0.27319,-0.78253c0.13599,0.18664 0.38721,0.3808 0.37549,0.55786c-0.01148,0.17719 -0.28565,0.33728 -0.64868,0.22467z" fill="#9F616A"/>
  <path id="svg_30" d="m2349.28198,685.4328c-0.49365,0.08667 -0.677,-0.14801 -0.86035,-0.38263c0.39038,0.02045 0.78052,0.04083 0.86035,0.38263z" fill="#9F616A"/>
  <path id="svg_31" d="m2351.26563,689.27118c-0.50464,0.07263 -0.68409,-0.1698 -0.86329,-0.41229c0.396,0.03241 0.79224,0.06482 0.86329,0.41229z" fill="#9F616A"/>
  <path id="svg_32" d="m2453.22607,840.74878c0.14649,0.19812 -0.37768,0.31543 -0.37768,0.31543c0,0 0.23096,-0.51355 0.37768,-0.31543z" fill="#CBCBCB"/>
  <path id="svg_33" d="m2353.97217,694.02472c0.45532,0.30511 0.93042,0.59326 1.40552,0.88141c-0.39258,-0.00995 -0.78492,-0.01984 -1.26636,-0.4834c-0.08863,-0.45374 -0.11939,-0.41498 -0.13916,-0.39801z" fill="#9F616A"/>
  <path id="svg_34" d="m2357.40015,698.59253c-0.01856,0.55774 -0.40918,0.68439 -0.80005,0.81103c0.14258,-0.41406 0.28515,-0.82812 0.80005,-0.81103z" fill="#9F616A"/>
  <path id="svg_35" d="m2359.21387,703.20654c-0.37232,0.04529 -0.49439,-0.1524 -0.61621,-0.35009c0.28881,0.03564 0.57763,0.07134 0.61621,0.35009z" fill="#9F616A"/>
  <path id="svg_36" d="m2433.02393,813.25928c0.82568,0.33746 1.2268,0.94861 1.85888,2.05688c0.23072,0.49707 -0.4541,1.09747 -0.75683,1.43775c-0.87842,-0.22596 -1.4541,-0.79218 -2.16455,-1.96411c0.1228,-0.8227 0.38037,-1.03974 1.0625,-1.53052z" fill="#364F4D"/>
  <path id="svg_37" d="m2448.09399,835.7102c-0.59814,-0.70947 -1.19629,-1.419 -2.07983,-2.76867c-0.28564,-0.6402 0.21069,-1.15186 0.4668,-1.40442c0.9624,0.42261 1.6687,1.09778 2.32373,2.47162c-0.27124,1.03296 -0.49097,1.36719 -0.7107,1.70147z" fill="#9F616A"/>
  <path id="svg_38" d="m2449.32715,834.53247c0.57422,-0.17499 1.16748,0.44458 0.927,0.94257c-0.24048,0.49798 -0.8645,1.0415 -0.8645,1.0415c0,0 -0.58106,0.02802 -0.58106,0.02802c0,0 -0.46753,-0.34394 -0.59106,-0.58912c0.09619,-0.57952 0.31592,-0.91375 1.10962,-1.42297z" fill="#CBCBCB"/>
  <path id="svg_39" d="m2450.31445,835.68897c0.54248,0.40008 0.78443,1.08422 1.02613,1.76843c-0.48536,0.00695 -0.97095,0.01385 -1.70362,-0.46002c-0.24731,-0.48084 0.37671,-1.02436 0.67749,-1.30841z" fill="#CBCBCB"/>
  <path id="svg_40" d="m1681.88648,826.13648c0.76647,0.19958 1.21484,0.7337 1.66308,1.26788c-0.53003,0.12482 -1.06006,0.24963 -2.07251,0.08221c-0.48254,-0.29223 0.09131,-1.01556 0.40943,-1.35009z" fill="#000000"/>
  <path id="svg_41" d="m1940,3557.66235c395.93311,0 790.86621,0.10034 1185.79907,-0.2456c24.01953,-0.02124 46.96997,15.95776 53.11255,39.71826c7.58374,29.33594 -12.97558,61.49243 -42.82373,65.10864c-7.55102,0.91455 -15.20434,1.38892 -22.81055,1.38941c-712.5459,0.06152 -1425.09179,0.05713 -2137.63775,0.05786c-13.12665,0 -25.76227,-1.65796 -37.08704,-9.22046c-20.04761,-13.38843 -28.93146,-37.54126 -21.84766,-60.19629c6.88636,-22.02344 26.89167,-36.60132 50.45807,-36.60229c323.94568,-0.01417 647.89136,-0.00953 972.83704,-0.00953z" fill="#CBCBCB"/>
  <path id="svg_42" d="m1576.3667,1927.68054c-33.10449,1.29871 -59.23181,-25.8269 -56.1322,-57.96875c2.34033,-24.26867 21.56909,-44.29321 46.52783,-47.37658c4.2804,-0.52869 8.63538,-0.63172 12.95581,-0.63208c311.59351,-0.02784 623.18689,-0.00916 934.7804,-0.07593c14.68261,-0.00318 28.44458,2.33716 40.32202,11.72803c17.59741,13.9132 22.85937,32.65283 18.54541,53.52697c-4.2605,20.61609 -18.23365,33.5542 -38.50855,39.06739c-5.34887,1.45446 -11.16211,1.66357 -16.76221,1.66491c-313.59301,0.07447 -627.18603,0.06616 -941.72851,0.06604z" fill="#32FE59"/>
  <path id="svg_43" d="m3006,2201.82715c251.62915,0 502.25879,0.14453 752.88745,-0.16675c34.54004,-0.04297 65.25391,24.06079 73.6875,53.84522c1.96533,6.94116 3.15649,14.36083 3.16016,21.56103c0.15356,309.95361 0.11645,619.90747 0.15136,929.86108c0.0044,38.59375 -27.57397,69.89478 -63.97021,75.20752c-6.21607,0.90747 -12.5271,1.64844 -18.79443,1.6521c-190.97071,0.11035 -381.94117,0.13159 -572.91187,0.13746c-115.31567,0.00341 -230.63183,0.04638 -345.94727,-0.1272c-29.89331,-0.04492 -53.21972,-12.85474 -69.17578,-38.27759c-7.80859,-12.44141 -10.65869,-26.50244 -10.8645,-40.96387c-0.32226,-22.65869 -0.08569,-45.32519 -0.08569,-67.98852c0,-284.95752 -0.03394,-569.9148 0.06518,-854.87232c0.00782,-22.49536 7.1919,-42.406 23.70948,-58.4248c14.82666,-14.37891 32.52612,-21.44092 53.11328,-21.4419c57.9917,-0.00268 115.98364,-0.00122 174.97534,-0.00146m349.5481,1068.10083c118.38696,0.02075 236.77392,0.04443 355.16088,0.04468c2.65308,0 5.30616,-0.26392 9.74317,-0.2649c11.99756,0.04053 23.99634,0.21363 35.99243,0.09717c38.92407,-0.37793 65.62622,-29.88696 65.58521,-65.57788c-0.35425,-307.62793 -0.20337,-615.25684 -0.20362,-922.88525c0,-1.99976 0.13672,-4.01074 -0.02344,-5.99756c-1.84253,-22.84961 -12.29785,-40.23706 -32.40405,-51.75293c-11.12207,-6.37036 -23.04809,-7.79663 -35.57934,-7.79321c-305.29541,0.08447 -610.59107,0.06543 -915.88648,0.07275c-3.3313,0.00024 -6.66553,0.02637 -9.99316,0.16992c-17.16529,0.74121 -31.50049,7.6836 -43.10303,20.19141c-13.03101,14.04761 -16.60767,31.45849 -16.61646,49.81225c-0.07592,154.98072 -0.04345,309.96167 -0.04345,464.94239c0,148.98144 -0.05396,297.96313 0.13501,446.94433c0.01123,8.87134 0.85278,18.05225 3.22656,26.55298c7.89966,28.28784 31.73413,44.68481 61.17432,45.19507c35.65112,0.61792 71.32177,0.12427 108.90991,0.25049c123.36401,0.01904 246.72827,0.03979 370.09228,0.04712c2.3252,0.00024 4.65064,-0.15796 8.7356,-0.17676c11.05908,0.01953 22.11841,0.03882 35.09766,0.12793z" fill="#344C4A"/>
  <path id="svg_44" d="m1758.23779,3283.53491c-8.32812,0.1228 -16.65625,0.34815 -24.98437,0.35156c-48.99903,0.02027 -97.99878,0.14991 -146.99646,-0.11547c-16.55213,-0.08985 -32.51392,-3.57618 -46.08875,-13.72608c-17.99804,-13.45727 -30.81604,-30.29004 -32.38049,-53.74853c-0.61804,-9.2666 -1.5824,-18.54126 -1.58508,-27.81275c-0.08362,-300.66455 -0.09754,-601.32885 0.01416,-901.99341c0.00573,-15.32739 1.73401,-30.48193 9.55163,-44.31738c14.45191,-25.57641 36.172,-39.15967 65.54602,-40.31225c5.99073,-0.23511 11.99854,-0.03467 17.99854,-0.03467c303.99768,-0.00025 607.99536,0.10962 911.99292,-0.15796c33.17431,-0.0293 64.50586,23.24902 73.04687,53.28491c2.06202,7.25244 3.37232,14.99683 3.37647,22.51587c0.16504,310.33106 0.16162,620.66187 0.11304,930.99292c-0.00562,35.87036 -25.78345,66.64722 -61.46558,73.34863c-7.45239,1.39966 -15.16675,1.96021 -22.76099,1.9668c-123.66333,0.10474 -247.3269,0.05957 -370.99023,0.04004c-4.33228,-0.00073 -8.6648,-0.08228 -14.58301,-0.6875c-4.22656,-0.75073 -6.86767,-1.10498 -9.50854,-1.10571c-113.56397,-0.02759 -227.12781,-0.03638 -340.69178,0.04052c-3.20166,0.0022 -6.40295,0.95874 -9.60437,1.47046m51.60852,-13.60547c35.27063,-0.00341 70.54114,0.01099 105.81177,-0.01489c55.23413,-0.04053 110.46814,-0.10815 167.65296,-0.0293c19.99633,0.03492 39.99267,0.10791 59.98901,0.09888c72.3208,-0.03296 144.64136,-0.0935 218.80371,-0.16431c47.33057,0.00245 94.66113,0.0857 141.99121,-0.08154c6.92944,-0.02441 14.09717,-0.32251 20.73779,-2.07422c22.23536,-5.86645 38.62256,-18.3042 45.75855,-41.45361c3.0249,-9.81299 3.53174,-19.55933 3.53198,-29.53589c0.00757,-302.64551 0.00781,-605.29077 -0.00659,-907.93628c-0.00025,-5.33032 0.2793,-10.71948 -0.38062,-15.97973c-2.09375,-16.69263 -8.46313,-31.31983 -21.8706,-42.20997c-12.94214,-10.51196 -27.69654,-14.80395 -44.41797,-14.79541c-306.31177,0.15747 -612.62366,0.11328 -918.93555,0.12622c-3.99707,0 -8.03076,-0.12744 -11.98474,0.3379c-17.31042,2.0371 -31.63135,9.58862 -42.38891,23.52099c-11.63733,15.07178 -13.93042,32.73853 -13.93262,50.93677c-0.03675,298.3125 -0.04492,596.62476 0.05066,894.93726c0.00342,10.60156 0.27441,21.34277 1.95959,31.77001c2.2666,14.02466 8.50305,26.22486 19.55872,35.98023c14.41565,12.7207 31.23999,16.94922 51.77429,16.55054c71.47315,0.02246 142.94629,0.04492 216.29736,0.01635z" fill="#344C4A"/>
  <path id="svg_45" d="m764,2201.83447c166.29694,0.00049 331.59399,0.12281 496.89063,-0.1228c26.64562,-0.03979 47.87536,10.04834 64.12585,30.61182c8.81726,11.15771 13.76733,24.23144 14.82422,38.55664c0.31824,4.31347 0.31323,8.65698 0.31347,12.98681c0.01356,305.93262 -0.05053,611.86548 0.14014,917.7981c0.01416,22.7478 -6.09595,42.43188 -22.07287,58.97363c-15.26966,15.81006 -34.33423,22.93628 -55.58582,23.04175c-82.97815,0.41113 -165.95972,0.14722 -248.93994,0.17407c-85.98035,0.02783 -171.96076,0.15161 -257.9411,0.14405c-138.63532,-0.01221 -277.27063,-0.07398 -415.90592,-0.16871c-32.82959,-0.02246 -57.78177,-14.09545 -73.13119,-43.24536c-3.90171,-7.40966 -4.83808,-16.43554 -6.75217,-24.80664c-0.65231,-2.85278 -0.13431,-5.97534 -0.13431,-8.97461c-0.00149,-309.26538 0.22452,-618.531 -0.33969,-927.79516c-0.05847,-32.05909 19.7236,-62.78736 50.26633,-72.69556c8.68243,-2.81689 18.19845,-4.2793 27.33606,-4.2959c141.96841,-0.26123 283.93744,-0.18213 426.90631,-0.18213m251.34857,1068.03394c63.64996,-0.01489 127.29999,-0.02954 192.78656,-0.1167c17.99597,0.02783 36.01221,0.61011 53.98352,-0.04126c30.14991,-1.09204 53.93616,-17.31323 61.8313,-47.14404c2.00256,-7.56641 2.10681,-15.78809 2.10938,-23.70899c0.09863,-303.9414 0.08459,-607.88305 0.07177,-911.82446c-0.00024,-3.99658 -0.22656,-7.99243 -0.26806,-11.9895c-0.25171,-24.25684 -19.20984,-50.92578 -45.19568,-56.77637c-7.69592,-1.73267 -15.79822,-2.31641 -23.7146,-2.31909c-304.94135,-0.11182 -609.88269,-0.0957 -914.82401,-0.08374c-3.99673,0 -8.01345,-0.06616 -11.98675,0.28442c-18.15759,1.60278 -32.98724,9.39771 -44.22138,23.91846c-11.45593,14.80762 -13.6745,32.22534 -13.68045,50.00268c-0.09826,293.61011 -0.09414,587.22046 0.00223,880.83057c0.00479,14.60132 0.24246,29.2981 1.93854,43.7666c0.97684,8.33325 3.83862,17.03052 8.05026,24.28833c12.23795,21.0896 31.83038,30.65454 55.72193,30.78272c55.98706,0.30029 111.97689,0.08227 169.85485,0.10595c162.59308,0.01929 325.1861,0.03931 487.77918,0.05176c1.9978,0.00025 3.99566,-0.09619 7.69897,-0.08618c3.3711,0.00049 6.74225,0.00122 12.06244,0.05884z" fill="#354E4B"/>
  <path id="svg_46" d="m1759.1438,3283.66455c2.29541,-0.64136 5.4967,-1.5979 8.69836,-1.6001c113.56397,-0.0769 227.12781,-0.06811 340.69178,-0.04052c2.64087,0.00073 5.28198,0.35498 8.56005,1.00634c-12.00976,0.62036 -24.65649,0.917 -37.30346,0.91455c-106.5802,-0.01904 -213.16053,-0.09301 -320.64673,-0.28027z" fill="#354E4B"/>
  <path id="svg_47" d="m399.46301,1301.30359c18.35156,-13.18298 37.07819,-15.75635 56.78458,-5.22485c11.04514,5.90283 18.30087,15.07629 22.43677,26.90857c8.6488,24.74316 -4.26789,47.54003 -18.92957,57.20861c-17.70901,11.67823 -47.30804,12.84778 -65.99036,-9.12756c-15.56338,-18.30652 -15.43191,-46.64307 0.96192,-64.9917c1.33017,-1.48877 2.79748,-2.85486 4.73666,-4.77307z" fill="#364F4D"/>
  <path id="svg_48" d="m335.54544,1361.06787c-14.33542,29.84876 -52.46454,34.14038 -73.87521,18.08777c-23.54245,-17.651 -24.67182,-48.28259 -11.86713,-67.70642c16.16443,-24.52075 53.116,-30.92957 77.26465,-6.79297c12.96921,12.96277 15.63495,29.60596 11.79889,47.27673c-0.62833,2.89429 -1.97965,5.63184 -3.3212,9.13489z" fill="#364F4D"/>
  <path id="svg_49" d="m172.95737,1383.42896c-24.67095,11.30127 -52.55495,2.24926 -64.7578,-18.04957c-9.66776,-16.08178 -10.24393,-33.08593 -1.82019,-49.35034c8.51578,-16.44201 22.93725,-25.49316 41.89171,-26.16284c19.27304,-0.68091 34.3779,7.13855 44.3249,23.55689c10.63863,17.55993 10.0692,35.78588 -1.04037,52.73791c-4.37923,6.68225 -11.85224,11.33716 -18.59825,17.26795z" fill="#364F4D"/>
  <path id="svg_50" d="m2939.69678,3269.79102c-35.66236,0.01245 -71.33301,0.5061 -106.98413,-0.11182c-29.44019,-0.51026 -53.27466,-16.90723 -61.17432,-45.19507c-2.37378,-8.50073 -3.21533,-17.68164 -3.22656,-26.55298c-0.18897,-148.9812 -0.13501,-297.96289 -0.13501,-446.94433c0,-154.98072 -0.03247,-309.96167 0.04345,-464.94239c0.00879,-18.35376 3.58545,-35.76464 16.61646,-49.81225c11.60254,-12.50781 25.93774,-19.4502 43.10303,-20.19141c3.32763,-0.14355 6.66186,-0.16968 9.99316,-0.16992c305.29541,-0.00732 610.59107,0.01172 915.88648,-0.07275c12.53125,-0.00342 24.45727,1.42285 35.57934,7.79321c20.1062,11.51587 30.56152,28.90332 32.40405,51.75293c0.16016,1.98682 0.02344,3.9978 0.02344,5.99756c0.00025,307.62841 -0.15063,615.25732 0.20362,922.88525c0.04101,35.69092 -26.66114,65.19995 -65.58521,65.57788c-11.99609,0.11646 -23.99487,-0.05664 -37.05835,-1.00879c-3.34229,-19.65942 -5.26367,-38.45898 -7.98511,-57.14209c-3.43652,-23.59326 -7.35107,-47.12158 -11.37695,-70.62329c-4.86719,-28.4126 -9.7832,-56.82226 -15.20435,-85.13232c-5.17504,-27.02442 -12.29467,-53.73511 -16.24536,-80.91992c-4.51245,-31.05371 -20.66626,-53.625 -45.78955,-70.34522c-32.33618,-21.52026 -69.34399,-29.58105 -107.13501,-34.53271c-10.82593,-1.41846 -21.84253,-1.32935 -32.73144,-2.35743c-2.77783,-0.2622 -5.60767,-1.82104 -8.05786,-3.35327c-7.0481,-4.40698 -13.83472,-9.23095 -20.87159,-13.65649c-8.90869,-5.60327 -16.43701,-3.82837 -23.7561,4.92041c-46.98462,-18.22217 -94.33569,-23.96314 -142.87109,-11.74487c-14.68238,3.69628 -28.74146,9.8684 -43.69043,14.46899c-1.06861,-0.91406 -1.59912,-1.34229 -1.98682,-1.87427c-7.5354,-10.34497 -14.48242,-11.68506 -25.19263,-4.73755c-6.70068,4.34644 -13.20947,9.00611 -20.06079,13.09571c-2.70288,1.61352 -6.04419,2.60327 -9.19555,2.94433c-14.82642,1.6062 -29.81861,2.07862 -44.51026,4.45069c-32.31274,5.21753 -63.89966,13.18725 -91.7644,31.42089c-19.33057,12.64966 -35.33472,28.40674 -42.27271,51.27588c-2.59082,8.54004 -4.01758,17.43018 -6.04883,26.14356c-7.76367,33.30517 -16.0415,66.49927 -23.22973,99.92773c-11.57617,53.83325 -22.41895,107.82447 -33.62866,161.73682c-1.87989,9.04077 -4.04883,18.02124 -6.08423,27.0293m529.5105,-549.99146c9.5559,-9.61816 19.39282,-18.97583 28.604,-28.91357c15.34033,-16.55079 26.67749,-35.75074 33.70093,-57.11255c8.72754,-26.5459 11.20312,-53.81348 6.39526,-81.56836c-2.97412,-17.17139 -8.23511,-33.6482 -16.50977,-48.88281c-11.5144,-21.19898 -26.18872,-39.99561 -45.79614,-54.54322c-16.15844,-11.98828 -33.67456,-21.24902 -52.99975,-27.03271c-15.6687,-4.68921 -31.79322,-6.42432 -47.9939,-7.82862c-10.75781,-0.93237 -21.19775,-3.46386 -29.49341,-10.6809c-4.93994,-4.29786 -8.43188,-10.21558 -13.06445,-14.9231c-5.53589,-5.62549 -10.93701,-11.81714 -17.56226,-15.84717c-14.229,-8.65478 -29.69897,-9.99756 -46.04907,-5.7063c-28.27344,7.42163 -54.3479,19.77051 -79.17749,34.71802c-10.73413,6.46216 -21.31567,13.96045 -29.98828,22.90601c-19.85596,20.48071 -29.12647,44.88403 -25.71924,74.25683c2.77954,23.96167 12.25635,43.85962 28.98804,60.68213c6.52588,6.56104 13.3186,12.85645 19.85376,20.87891c-3.62378,14.59619 -4.89942,29.38086 -4.83911,44.44287c0.17407,43.48315 15.76123,80.8562 46.16381,111.22388c36.67335,36.6311 81.51905,52.22241 133.44166,46.51465c28.78466,-3.16431 54.5769,-13.64429 77.92626,-30.58326c12.48218,-9.05542 22.59498,-20.48559 34.11915,-32.00073z" fill="none"/>
  <path id="svg_51" d="m2940.65967,3269.86035c1.07251,-9.07739 3.24145,-18.05786 5.12134,-27.09863c11.20971,-53.91235 22.05249,-107.90357 33.62866,-161.73682c7.18823,-33.42846 15.46606,-66.62256 23.22973,-99.92773c2.03125,-8.71338 3.45801,-17.60352 6.04883,-26.14356c6.93799,-22.86914 22.94214,-38.62622 42.27271,-51.27588c27.86474,-18.23364 59.45166,-26.20336 91.7644,-31.42089c14.69165,-2.37207 29.68384,-2.84449 44.51026,-4.45069c3.15136,-0.34106 6.49267,-1.33081 9.19555,-2.94433c6.85132,-4.0896 13.36011,-8.74927 20.06079,-13.09571c10.71021,-6.94751 17.65723,-5.60742 25.19263,4.73755c0.3877,0.53198 0.91821,0.96021 1.73413,2.60498c0.76489,3.73975 0.79981,6.44434 1.65112,8.86133c6.40503,18.18457 12.89917,36.33887 19.56324,54.42969c1.00049,2.71631 2.64502,5.42383 4.64599,7.50683c15.81568,16.46167 25.49927,36.34107 32.58374,57.698c12.98902,39.15625 17.87622,79.76831 19.64209,120.63282c2.32666,53.83935 1.46607,107.72314 -2.81421,161.49731c-2.32519,0.08423 -4.65063,0.24243 -6.97583,0.24219c-123.36401,-0.00733 -246.72827,-0.02808 -371.05517,-0.11646z" fill="#283C3A"/>
  <path id="svg_52" d="m3430.99463,2855.86523c6.55737,-8.9602 14.08569,-10.7351 22.99438,-5.13183c7.03687,4.42554 13.82349,9.24951 20.87159,13.65649c2.45019,1.53223 5.28003,3.09107 8.05786,3.35327c10.88891,1.02808 21.90551,0.93897 32.73144,2.35743c37.79102,4.95166 74.79883,13.01245 107.13501,34.53271c25.12329,16.72022 41.2771,39.29151 45.78955,70.34522c3.95069,27.18481 11.07032,53.8955 16.24536,80.91992c5.42115,28.31006 10.33716,56.71972 15.20435,85.13232c4.02588,23.50171 7.94043,47.03003 11.37695,70.62329c2.72144,18.68311 4.64282,37.48267 7.09326,57.07227c-2.47924,0.98242 -5.13232,1.24634 -7.7854,1.24634c-118.38696,-0.00025 -236.77392,-0.02393 -356.05517,-0.96045c-2.05567,-21.15601 -4.08399,-41.39209 -4.18799,-61.63794c-0.18457,-35.89966 0.25,-71.82373 1.45532,-107.70288c1.1062,-32.93628 5.54419,-65.55005 14.29126,-97.4231c6.19336,-22.56787 13.79224,-44.77661 29.27246,-62.78345c8.70801,-10.12915 14.62818,-21.12646 18.37525,-33.65429c0.85571,-2.86158 2.09204,-5.60718 3.05639,-8.43897c4.71094,-13.82934 9.38892,-27.66968 14.07813,-41.50635z" fill="#283C3A"/>
  <path id="svg_53" d="m3430.23291,2855.65381c-3.92749,14.04809 -8.60547,27.88843 -13.31641,41.71777c-0.96435,2.83179 -2.20068,5.57739 -3.05639,8.43897c-3.74707,12.52783 -9.66724,23.52514 -18.37525,33.65429c-15.48022,18.00684 -23.0791,40.21558 -29.27246,62.78345c-8.74707,31.87305 -13.18506,64.48682 -14.29126,97.4231c-1.20532,35.87915 -1.63989,71.80322 -1.45532,107.70288c0.104,20.24585 2.13232,40.48193 3.22803,61.60327c-11.125,0.86133 -22.18433,0.84204 -34.12329,0.78979c3.40039,-53.80688 4.26098,-107.69067 1.93432,-161.53002c-1.76587,-40.86451 -6.65307,-81.47657 -19.64209,-120.63282c-7.08447,-21.35693 -16.76806,-41.23633 -32.58374,-57.698c-2.00097,-2.083 -3.6455,-4.79052 -4.64599,-7.50683c-6.66407,-18.09082 -13.15821,-36.24512 -19.56324,-54.42969c-0.85131,-2.41699 -0.88623,-5.12158 -1.04663,-8.42407c14.59717,-5.76856 28.65625,-11.94068 43.33863,-15.63696c48.5354,-12.21827 95.88647,-6.4773 142.87109,11.74487z" fill="#32FE59"/>
  <path id="svg_54" d="m1591.60156,3269.75635c-18.58691,0.55542 -35.41125,-3.6731 -49.8269,-16.3938c-11.05567,-9.75537 -17.29212,-21.95557 -19.55872,-35.98023c-1.68518,-10.42724 -1.95617,-21.16845 -1.95959,-31.77001c-0.09558,-298.3125 -0.08741,-596.62476 -0.05066,-894.93726c0.0022,-18.19824 2.29529,-35.86499 13.93262,-50.93677c10.75756,-13.93237 25.07849,-21.48389 42.38891,-23.52099c3.95398,-0.46534 7.98767,-0.3379 11.98474,-0.3379c306.31189,-0.01294 612.62378,0.03125 918.93555,-0.12622c16.72143,-0.00854 31.47583,4.28345 44.41797,14.79541c13.40747,10.89014 19.77685,25.51734 21.8706,42.20997c0.65992,5.26025 0.38037,10.64941 0.38062,15.97973c0.0144,302.64551 0.01416,605.29077 0.00659,907.93628c-0.00024,9.97656 -0.50708,19.7229 -3.53198,29.53589c-7.13599,23.14941 -23.52319,35.58716 -45.75855,41.45361c-6.64062,1.75171 -13.80835,2.04981 -20.73779,2.07422c-47.33008,0.16724 -94.66064,0.08399 -143.10327,-0.6206c-14.26318,-35.17579 -27.36499,-69.66822 -40.57788,-104.11768c-16.07007,-41.89868 -32.22217,-83.76587 -48.36475,-125.63647c-5.26123,-13.64576 -9.40112,-27.88916 -16.13818,-40.76905c-19.70801,-37.67871 -61.92993,-58.19995 -105.20288,-46.6477c-2.7251,0.72778 -5.82886,0.8103 -8.62525,0.36621c-15.05786,-2.39087 -30.10058,-4.90161 -45.0979,-7.64624c-13.854,-2.5354 -26.11401,-0.29639 -34.4436,11.99609c-3.0647,4.52295 -4.38794,10.22608 -7.29785,15.34985c-21.56519,-6.05834 -42.74133,-9.89941 -64.28614,-11.68017c-33.3424,-2.7561 -65.54431,2.40503 -96.90234,13.37793c-6.86059,-19.81714 -30.51941,-30.54565 -51.09167,-11.46607c-3.65772,3.39209 -7.1958,6.91407 -10.76819,10.39722c-5.46021,5.32422 -11.52063,8.62671 -19.61145,7.40503c-4.23047,-0.63892 -8.63733,-0.25732 -12.95813,-0.12695c-27.91712,0.84179 -51.00122,11.8125 -67.5625,34.38818c-8.39502,11.44385 -15.33435,24.02295 -22.26465,36.4607c-18.91125,33.9392 -37.47669,68.07128 -56.16235,102.13647c-18.68457,34.06323 -37.4076,68.10547 -55.95362,102.24414c-2.50415,4.60986 -4.07678,9.72583 -6.08081,14.60718m477.79346,-395.72095c7.70776,-3.05347 15.53052,-5.84741 23.10156,-9.20825c23.88159,-10.60083 42.2898,-27.22901 54.38501,-50.53198c12.95728,-24.96338 21.73242,-51.38721 27.32617,-78.91724c1.15967,-5.70776 2.72754,-11.33252 4.42237,-18.28906c2.02148,12.87378 3.29175,24.09253 5.60351,35.09204c6.76465,32.18237 21.38355,59.67285 47.4585,80.82348c20.15234,16.34717 43.1416,24.7378 68.46777,26.70264c20.18775,1.56641 40.49976,1.98047 60.75928,2.04614c17.5935,0.05689 35.02783,-2.33764 52.30249,-5.90087c24.29712,-5.01197 46.0542,-15.38624 64.9021,-31.32081c21.20825,-17.93017 37.35376,-39.76391 46.55517,-66.19629c6.97022,-20.02368 10.15577,-40.67163 8.4419,-61.97607c-1.01294,1.00855 -1.59839,2.11304 -1.9397,3.28833c-4.74096,16.31714 -15.75952,27.53735 -29.96435,35.73731c-28.7334,16.58691 -60.14698,20.84497 -92.28662,16.05151c-39.14087,-5.83814 -72.03614,-24.06567 -97.66871,-54.88159c-22.97119,-27.61646 -34.16796,-59.6958 -37.08081,-94.97071c-1.74707,-21.15405 -2.57324,-42.38232 -4.12988,-63.55395c-2.65259,-36.07984 -17.75806,-66.75586 -43.34009,-91.65088c-19.82739,-19.29468 -43.77856,-32.17554 -71.36963,-37.70312c-21.59008,-4.3252 -42.33227,-2.66651 -61.8999,7.67334c-18.79614,9.93237 -36.45825,35.22216 -29.90063,59.89428c0.38623,1.45313 -0.10425,3.13941 -0.25073,5.94263c-11.64551,-2.23169 -22.73633,-3.84766 -33.68531,0.22436c-11.06836,4.11646 -18.96033,11.8733 -24.95312,21.39649c-1.64441,0 -2.69849,0.22119 -3.61524,-0.0398c-3.19519,-0.9104 -6.33911,-2 -9.5094,-2.99877c-26.71545,-8.41944 -53.9519,-11.02491 -81.61108,-6.30762c-37.61475,6.41552 -69.44678,24.21704 -96.13293,51.12036c-12.40906,12.50976 -23.02137,26.58032 -32.07508,41.81494c-16.5957,27.92578 -26.54724,58.19873 -29.30469,90.31299c-2.70178,31.46533 1.86731,62.42505 13.88929,91.8706c7.99524,19.58301 19.27966,37.18286 34.57019,51.97193c2.00561,1.93994 4.91528,2.94531 8.37842,5.32031c10.10961,21.27808 23.78515,39.87744 42.04272,54.85547c38.00415,31.177 81.58667,43.08398 130.01343,35.68384c33.33362,-5.09351 62.20385,-20.02075 88.09802,-43.37598z" fill="none"/>
  <path id="svg_55" d="m2056.03589,2972.05371c2.11743,-5.16479 3.44067,-10.86792 6.50537,-15.39087c8.32959,-12.29248 20.5896,-14.53149 34.4436,-11.99609c14.99732,2.74463 30.04004,5.25537 45.0979,7.64624c2.79639,0.44409 5.90015,0.36157 8.62525,-0.36621c43.27295,-11.55225 85.49487,8.96899 105.20288,46.6477c6.73706,12.87989 10.87695,27.12329 16.13818,40.76905c16.14258,41.8706 32.29468,83.73779 48.36475,125.63647c13.21289,34.44946 26.3147,68.94189 39.65698,104.12793c-72.12939,0.7627 -144.44995,0.82324 -216.77075,0.8562c-19.99634,0.00903 -39.99268,-0.06396 -60.84986,-1.07544c-0.15331,-13.60156 1.05933,-26.22241 1.16871,-38.85254c0.34033,-39.26928 1.04785,-78.56274 0.03369,-117.80591c-0.5564,-21.5288 -4.08716,-42.99951 -6.64453,-64.45239c-3.13404,-26.28686 -13.49512,-50.62842 -20.97217,-75.74414z" fill="#283C3A"/>
  <path id="svg_56" d="m2055.24341,2972.01269c8.26953,25.15674 18.63061,49.4983 21.76465,75.78516c2.55737,21.45288 6.08813,42.92359 6.64453,64.45239c1.01416,39.24317 0.30664,78.53663 -0.03369,117.80591c-0.10938,12.63013 -1.32202,25.25098 -2.14429,38.78516c-55.34839,0.96509 -110.5824,1.03271 -165.81653,1.07324c-35.27063,0.02588 -70.54114,0.01148 -106.79236,-0.75146c0.62073,-6.51661 2.07459,-12.31226 3.84583,-18.00953c26.03955,-83.75439 52.08606,-167.50683 78.24743,-251.22314c2.61573,-8.37012 4.24244,-16.72754 3.21216,-25.49023c31.24182,-11.70264 63.44373,-16.86377 96.78613,-14.10767c21.54481,1.78076 42.72095,5.62183 64.28614,11.68017z" fill="#32FE59"/>
  <path id="svg_57" d="m1894.05493,2973.71045c1.14649,9.49243 -0.48022,17.84985 -3.09595,26.21997c-26.16137,83.71631 -52.20788,167.46875 -78.24743,251.22314c-1.77124,5.69727 -3.2251,11.49292 -4.78479,18.03492c-71.43152,0.76953 -142.90466,0.74707 -215.35144,0.64624c1.03027,-4.95972 2.6029,-10.07569 5.10705,-14.68555c18.54602,-34.13867 37.26905,-68.18091 55.95362,-102.24414c18.68566,-34.06519 37.2511,-68.19727 56.16235,-102.13647c6.9303,-12.43775 13.86963,-25.01685 22.26465,-36.4607c16.56128,-22.57568 39.64538,-33.54639 67.5625,-34.38818c4.3208,-0.13037 8.72766,-0.51197 12.95813,0.12695c8.09082,1.22168 14.15124,-2.08081 19.61145,-7.40503c3.57239,-3.48315 7.11047,-7.00513 10.76819,-10.39722c20.57226,-19.07958 44.23108,-8.35107 51.09167,11.46607z" fill="#283C3A"/>
  <path id="svg_58" d="m505.91876,3269.8125c-55.98874,0.00781 -111.97857,0.22583 -167.96563,-0.07446c-23.89155,-0.12818 -43.48398,-9.69312 -55.72193,-30.78272c-4.21164,-7.25781 -7.07342,-15.95508 -8.05026,-24.28833c-1.69608,-14.4685 -1.93375,-29.16528 -1.93854,-43.7666c-0.09637,-293.61011 -0.10049,-587.22046 -0.00223,-880.83057c0.00595,-17.77734 2.22452,-35.19506 13.68045,-50.00268c11.23414,-14.52075 26.06379,-22.31568 44.22138,-23.91846c3.9733,-0.35058 7.99002,-0.28442 11.98675,-0.28442c304.94132,-0.01196 609.88266,-0.02808 914.82401,0.08374c7.91638,0.00268 16.01868,0.58642 23.7146,2.31909c25.98584,5.85059 44.94397,32.51953 45.19568,56.77637c0.0415,3.99707 0.26782,7.99292 0.26806,11.9895c0.01282,303.94141 0.02686,607.88306 -0.07177,911.82446c-0.00257,7.9209 -0.10682,16.14258 -2.10938,23.70899c-7.89514,29.83081 -31.68139,46.052 -61.8313,47.14404c-17.97131,0.65137 -35.98755,0.06909 -54.94604,-0.72095c-9.09839,-33.66968 -16.73999,-66.70898 -25.49219,-99.45166c-11.58337,-43.33471 -23.01392,-86.75757 -36.44507,-129.53515c-10.34802,-32.9585 -30.20019,-60.38208 -56.48974,-83.19214c-12.30994,-10.68091 -26.40503,-18.72779 -38.89917,-29.198c-38.72437,-32.45068 -82.94733,-55.16773 -131.24488,-69.82153c-60.96875,-18.49854 -122.77008,-21.73267 -185.14667,-8.39209c-42.31787,9.05053 -82.63452,22.95776 -120.01745,45.86157c-27.62897,16.92773 -42.08545,39.18555 -41.90289,71.56421c0.09167,16.25586 0.34045,32.80078 -2.3783,48.72021c-5.02655,29.43286 -11.25305,58.74024 -18.65338,87.67163c-14.24481,55.6897 -29.65643,111.08081 -44.58411,166.59595m156.30536,-686.15015c-5.34497,21.44678 -7.59576,43.01123 -4.63269,65.15406c5.85028,43.71875 25.80853,79.39013 60.36371,106.54101c37.34326,29.34082 80.02423,39.48267 126.70221,32.14673c17.4118,-2.73633 34.31213,-7.83716 50.6203,-16.76343c14.43365,10.6416 31.58221,9.71143 45.69787,-2.59839c4.75623,-4.14795 9.53419,-8.2771 14.42499,-12.26391c31.7041,-25.84229 57.00336,-56.79492 73.62073,-94.28491c15.95947,-36.00586 19.49695,-73.65894 11.62341,-112.1648c-7.59424,-37.14062 -30.34875,-64.51514 -58.99377,-87.49194c-23.75958,-19.05762 -50.51056,-33.38672 -78.08643,-46.00733c-16.97247,-7.76806 -34.6112,-13.08154 -53.8988,-12.21142c-22.98749,1.03711 -48.80292,15.32055 -52.79096,42.69897c-0.40399,2.7732 -1.03985,5.5127 -1.70873,9.00122c-1.79914,-1.37427 -2.93018,-2.02685 -3.79767,-2.93213c-18.58289,-19.3916 -41.24421,-32.36718 -66.14594,-41.64111c-16.78522,-6.25098 -34.17187,-8.17578 -51.76532,-4.23633c-17.98846,4.02759 -31.80243,14.4524 -42.56207,29.29395c-19.33093,26.66528 -29.12543,55.81299 -22.89411,88.92016c5.08875,27.03663 20.48291,45.59888 46.83613,54.57373c2.51458,0.85645 5.01336,1.75928 7.38714,4.26587z" fill="none"/>
  <path id="svg_59" d="m506.8634,3269.82813c13.98304,-55.53077 29.39466,-110.92188 43.63947,-166.61158c7.40033,-28.93139 13.62683,-58.23877 18.65338,-87.67163c2.71875,-15.91943 2.46997,-32.46435 2.3783,-48.72021c-0.18256,-32.37866 14.27392,-54.63648 41.90289,-71.56421c37.38293,-22.90381 77.69958,-36.81104 120.01745,-45.86157c62.37659,-13.34058 124.17792,-10.10645 185.14667,8.39209c48.29755,14.6538 92.52051,37.37085 131.24488,69.82153c12.49414,10.47021 26.58923,18.51709 38.89917,29.198c26.28955,22.81006 46.14172,50.23364 56.48974,83.19214c13.43115,42.77758 24.8617,86.20044 36.44507,129.53515c8.7522,32.74268 16.3938,65.78198 24.57385,99.48804c-63.60571,0.81299 -127.25574,0.82764 -192.09564,0.18603c-3.20056,-4.83129 -5.21118,-9.0061 -7.2218,-13.1809c-0.63672,0.03198 -1.27344,0.0642 -1.91016,0.09643c-1.14868,4.54028 -2.2973,9.08081 -3.44598,13.6211c-1.99787,0.05102 -3.99573,0.14746 -5.99353,0.14721c-162.59308,-0.01245 -325.1861,-0.03247 -488.72376,-0.06762z" fill="#32FE59"/>
  <path id="svg_60" d="m1002.43341,3269.77905c0.29596,-4.5708 1.44458,-9.11133 2.59326,-13.65161c0.63672,-0.03223 1.27344,-0.06445 1.91016,-0.09643c2.01062,4.1748 4.02124,8.34961 6.24725,13.15258c-3.1557,0.6272 -6.52685,0.62647 -10.75067,0.59546z" fill="#000000"/>
  <path id="svg_61" d="m3182.53174,2578.59595c-6.67139,-6.41626 -13.46411,-12.71167 -19.98999,-19.27271c-16.73169,-16.82251 -26.2085,-36.72046 -28.98804,-60.68213c-3.40723,-29.3728 5.86328,-53.77612 25.71924,-74.25683c8.67261,-8.94556 19.25415,-16.44385 29.98828,-22.90601c24.82959,-14.94751 50.90405,-27.29639 79.17749,-34.71802c16.3501,-4.29126 31.82007,-2.94848 46.04907,5.7063c6.62525,4.03003 12.02637,10.22168 17.56226,15.84717c4.63257,4.70752 8.12451,10.62524 13.06445,14.9231c8.29566,7.21704 18.7356,9.74853 29.49341,10.6809c16.20068,1.4043 32.3252,3.13941 47.9939,7.82862c19.32519,5.78369 36.84131,15.04443 52.99975,27.03271c19.60742,14.54761 34.28174,33.34424 45.79614,54.54322c8.27466,15.23461 13.53565,31.71142 16.50977,48.88281c4.80786,27.75488 2.33228,55.02246 -6.39526,81.56836c-7.02344,21.36181 -18.3606,40.56176 -33.70093,57.11255c-9.21118,9.93774 -19.0481,19.29541 -29.18066,28.26928c3.65161,-7.40918 8.11645,-14.03955 12.06005,-20.96655c9.26172,-16.26758 14.59473,-33.33423 11.08838,-52.4624c-9.51074,-51.88672 -57.46899,-78.97046 -98.19775,-72.09595c-10.45117,1.76416 -20.79053,4.50806 -30.9646,7.53076c-23.25659,6.90869 -45.95142,15.79077 -70.45239,17.97803c-36.21436,3.2334 -71.19849,0.37866 -103.26441,-18.91553c-1.79809,-1.08203 -4.23096,-1.10937 -6.36816,-1.62768z" fill="#2F2E41"/>
  <path id="svg_62" d="m3182.46362,2579.39893c2.20532,-0.28467 4.63819,-0.25733 6.43628,0.8247c32.06592,19.29419 67.05005,22.14893 103.26441,18.91553c24.50097,-2.18726 47.1958,-11.06934 70.45239,-17.97803c10.17407,-3.0227 20.51343,-5.7666 30.9646,-7.53076c40.72876,-6.87451 88.68701,20.20923 98.19775,72.09595c3.50635,19.12817 -1.82666,36.19482 -11.08838,52.4624c-3.9436,6.927 -8.40844,13.55737 -12.75024,21.01172c-10.25732,12.11426 -20.37012,23.54443 -32.8523,32.59985c-23.34936,16.93897 -49.1416,27.41895 -77.92626,30.58326c-51.92261,5.70776 -96.76831,-9.88355 -133.44166,-46.51465c-30.40258,-30.36768 -45.98974,-67.74073 -46.16381,-111.22388c-0.06031,-15.06201 1.21533,-29.84668 4.90722,-45.24609z" fill="#FEB7B7"/>
  <path id="svg_63" d="m1808.26868,2825.9353c-2.49097,-1.43823 -5.40064,-2.4436 -7.40625,-4.38354c-15.29053,-14.78907 -26.57495,-32.38892 -34.57019,-51.97193c-12.02198,-29.44555 -16.59107,-60.40527 -13.88929,-91.8706c2.75745,-32.11426 12.70899,-62.38721 29.30469,-90.31299c9.05371,-15.23462 19.66602,-29.30518 32.07508,-41.81494c26.68615,-26.90332 58.51818,-44.70484 96.13293,-51.12036c27.65918,-4.71729 54.89563,-2.11182 81.61108,6.30762c3.17029,0.99877 6.31421,2.08837 9.5094,2.99877c0.91675,0.26099 1.97083,0.0398 3.61524,0.0398c5.99279,-9.52319 13.88476,-17.28003 24.95312,-21.39649c10.94898,-4.07202 22.0398,-2.45605 33.68531,-0.22436c0.14648,-2.80322 0.63696,-4.4895 0.25073,-5.94263c-6.55762,-24.67212 11.10449,-49.96191 29.90063,-59.89428c19.56763,-10.33985 40.30982,-11.99854 61.8999,-7.67334c27.59107,5.52758 51.54224,18.40844 71.36963,37.70312c25.58203,24.89502 40.6875,55.57104 43.34009,91.65088c1.55664,21.17163 2.38281,42.3999 4.12988,63.55395c2.91285,35.27491 14.10962,67.35425 37.08081,94.97071c25.63257,30.81592 58.52784,49.04345 97.66871,54.88159c32.13964,4.79346 63.55322,0.5354 92.28662,-16.05151c14.20483,-8.19996 25.22339,-19.42017 29.96435,-35.73731c0.34131,-1.17529 0.92676,-2.27978 1.9397,-3.28833c1.71387,21.30444 -1.47168,41.95239 -8.4419,61.97607c-9.20141,26.43238 -25.34692,48.26612 -46.55517,66.19629c-18.8479,15.93457 -40.60498,26.30884 -64.9021,31.32081c-17.27466,3.56323 -34.70899,5.95776 -52.30249,5.90087c-20.25952,-0.06567 -40.57153,-0.47973 -60.75928,-2.04614c-25.32617,-1.96484 -48.31543,-10.35547 -68.46777,-26.70264c-26.07495,-21.15063 -40.69385,-48.64111 -47.4585,-80.82348c-2.31176,-10.99951 -3.58203,-22.21826 -5.60351,-35.09204c-1.69483,6.95654 -3.2627,12.5813 -4.42237,18.28906c-5.59375,27.53003 -14.36889,53.95386 -27.32617,78.91724c-12.09521,23.30297 -30.50342,39.93115 -54.38501,50.53198c-7.57104,3.36084 -15.3938,6.15478 -23.65771,8.51806c32.40991,-35.47241 53.90576,-90.74926 45.42871,-119.59252c-2.86621,0 -5.84912,-0.13501 -8.81616,0.02539c-8.46998,0.45825 -13.93067,-3.57178 -16.98902,-11.20826c-1.4851,-3.708 -2.60644,-7.57055 -4.23291,-11.21118c-5.42554,-12.14355 -10.4104,-24.54126 -16.74438,-36.20044c-3.90674,-7.19189 -9.26831,-13.93969 -15.19434,-19.61548c-11.97827,-11.47216 -26.42248,-13.6145 -41.6521,-7.30102c-6.39978,2.65308 -12.38928,6.46875 -18.20996,10.29614c-5.8352,3.83667 -11.17041,8.42554 -16.82373,12.54883c-24.05615,17.54517 -50.3833,28.42969 -80.76086,27.21191c-30.68201,-1.22949 -54.04908,-14.82397 -69.74378,-41.36084c-1.2406,-2.09765 -2.68603,-4.07421 -4.0907,-6.18896c-1.02832,0.98144 -1.58496,1.38306 -1.96911,1.90991c-0.58643,0.8042 -1.06555,1.68872 -1.57031,2.55078c-22.24134,37.98804 -28.67762,78.41992 -18.27308,121.26563c2.42041,9.96655 6.01648,19.6477 9.07154,29.4602m307.45691,-271.69385c-2.55152,4.56421 -1.71387,8.13624 2.86108,10.94336c4.53027,2.77979 8.98535,5.70215 13.31812,8.78028c18.75024,13.31982 34.00952,29.54028 42.76709,51.25708c5.22607,12.95996 7.02709,26.5603 8.56054,40.42627c4.1499,-22.15625 7.20654,-44.41602 11.1499,-66.51734c3.6875,-20.66528 0.20801,-40.40503 -6.92041,-59.51953c-9.26147,-24.83569 -27.78393,-39.36767 -53.9226,-43.08496c-11.68018,-1.66138 -22.82715,1.38086 -32.23462,10.04004c3.32007,4.77808 6.57959,8.60742 8.87671,12.94653c5.48144,10.35401 10.23535,20.99634 5.54419,34.72827z" fill="#2F2E41"/>
  <path id="svg_64" d="m1808.75476,2826.40381c-3.54114,-10.28101 -7.13721,-19.96216 -9.55762,-29.92871c-10.40454,-42.84571 -3.96826,-83.27759 18.27308,-121.26563c0.50476,-0.86206 0.98388,-1.74658 1.57031,-2.55078c0.38415,-0.52685 0.94079,-0.92847 1.96911,-1.90991c1.40467,2.11475 2.8501,4.09131 4.0907,6.18896c15.6947,26.53687 39.06177,40.13135 69.74378,41.36084c30.37756,1.21778 56.70471,-9.66674 80.76086,-27.21191c5.65332,-4.12329 10.98853,-8.71216 16.82373,-12.54883c5.82068,-3.82739 11.81018,-7.64306 18.20996,-10.29614c15.22962,-6.31348 29.67383,-4.17114 41.6521,7.30102c5.92603,5.67579 11.2876,12.42359 15.19434,19.61548c6.33398,11.65918 11.31884,24.05689 16.74438,36.20044c1.62647,3.64063 2.74781,7.50318 4.23291,11.21118c3.05835,7.63648 8.51904,11.66651 16.98902,11.20826c2.96704,-0.1604 5.94995,-0.02539 8.81616,-0.02539c8.47705,28.84326 -13.0188,84.12011 -46.2002,119.54321c-24.56653,24.09473 -53.43676,39.02197 -86.77038,44.11548c-48.42676,7.40014 -92.00928,-4.50684 -130.01343,-35.68384c-18.25757,-14.97803 -31.93311,-33.57739 -42.52881,-55.32373z" fill="#FEB7B7"/>
  <path id="svg_65" d="m662.35651,2582.03687c-2.50617,-0.88111 -5.00495,-1.78394 -7.51953,-2.64039c-26.35322,-8.97485 -41.74738,-27.5371 -46.83613,-54.57373c-6.23132,-33.10717 3.56318,-62.25488 22.89411,-88.92016c10.75964,-14.84155 24.57361,-25.26636 42.56207,-29.29395c17.59345,-3.93945 34.9801,-2.01465 51.76532,4.23633c24.90173,9.27393 47.56305,22.24951 66.14594,41.64111c0.86749,0.90528 1.99853,1.55786 3.79767,2.93213c0.66888,-3.48852 1.30474,-6.22802 1.70873,-9.00122c3.98804,-27.37842 29.80347,-41.66186 52.79096,-42.69897c19.2876,-0.87012 36.92633,4.44336 53.8988,12.21142c27.57587,12.62061 54.32685,26.94971 78.08643,46.00733c28.64502,22.9768 51.39953,50.35132 58.99377,87.49194c7.87354,38.50586 4.33606,76.15894 -11.62341,112.1648c-16.61737,37.48999 -41.91663,68.44262 -73.62073,94.28491c-4.8908,3.98681 -9.66876,8.11596 -14.42499,12.26391c-14.11566,12.30982 -31.26422,13.23999 -46.35199,1.50367c-4.05114,-9.70679 -8.76165,-18.05347 -10.56634,-26.98755c-3.54175,-17.53296 -5.48346,-35.39063 -8.05524,-53.11841c-3.4309,-23.6499 -6.56756,-47.34644 -10.35418,-70.93921c-1.95441,-12.17725 -5.33362,-23.979 -13.6977,-33.77002c-12.97839,-15.19238 -30.03564,-21.4873 -49.26684,-22.87353c-14.70771,-1.05982 -29.2193,0.67285 -43.45056,4.59619c-8.97162,2.47363 -18.00232,4.75146 -26.90656,7.44702c-22.85229,6.91894 -46.17273,9.48218 -69.9696,8.03638z" fill="#2F2E41"/>
  <path id="svg_66" d="m662.29028,2582.84961c23.8631,0.63306 47.18354,-1.93018 70.03583,-8.84912c8.90424,-2.69556 17.93494,-4.97339 26.90656,-7.44702c14.23126,-3.92334 28.74285,-5.65601 43.45056,-4.59619c19.2312,1.38623 36.28845,7.68115 49.26684,22.87353c8.36408,9.79102 11.74329,21.59277 13.6977,33.77002c3.78662,23.59277 6.92328,47.28931 10.35418,70.93921c2.57178,17.72778 4.51349,35.58545 8.05524,53.11841c1.80469,8.93408 6.5152,17.28076 9.9715,26.61889c-15.05921,10.38965 -31.95954,15.49048 -49.37134,18.22681c-46.67798,7.33594 -89.35895,-2.80591 -126.70221,-32.14673c-34.55518,-27.15088 -54.51343,-62.82226 -60.36371,-106.54101c-2.96307,-22.14283 -0.71228,-43.70728 4.69885,-65.9668z" fill="#9F616A"/>
  <path id="svg_67" d="m2115.92578,2553.46191c4.49097,-12.95239 -0.26294,-23.59472 -5.74438,-33.94873c-2.29712,-4.33911 -5.55664,-8.16845 -8.87671,-12.94653c9.40747,-8.65918 20.55444,-11.70142 32.23462,-10.04004c26.13867,3.71729 44.66113,18.24927 53.9226,43.08496c7.12842,19.1145 10.60791,38.85425 6.92041,59.51953c-3.94336,22.10132 -7,44.36109 -11.1499,66.51734c-1.53345,-13.86597 -3.33447,-27.46631 -8.56054,-40.42627c-8.75757,-21.7168 -24.01685,-37.93726 -42.76709,-51.25708c-4.33277,-3.07813 -8.78785,-6.00049 -13.31812,-8.78028c-4.57495,-2.80712 -5.4126,-6.37915 -2.66089,-11.7229z" fill="#000000"/>
 </g>
</svg>