<?xml version="1.0" encoding="UTF-8"?>
<svg xmlns="http://www.w3.org/2000/svg" xmlns:xlink="http://www.w3.org/1999/xlink" width="104px" height="92px" viewBox="0 0 104 92" version="1.1">
<g id="surface1">
<path style="fill:none;stroke-width:4;stroke-linecap:butt;stroke-linejoin:miter;stroke:rgb(41.960784%,63.921569%,40.784314%);stroke-opacity:1;stroke-miterlimit:4;" d="M 49.560059 17.619862 C 49.560059 9.370669 42.871019 2.680664 34.619216 2.680664 C 26.370005 2.680664 19.680965 9.370669 19.680965 17.619862 C 19.680965 25.871646 26.370005 32.559061 34.619216 32.559061 C 42.871019 32.559061 49.560059 25.871646 49.560059 17.619862 Z M 49.560059 17.619862 " transform="matrix(1.507246,0,0,1.508197,0,0)"/>
<path style="fill:none;stroke-width:4;stroke-linecap:butt;stroke-linejoin:miter;stroke:rgb(41.960784%,63.921569%,40.784314%);stroke-opacity:1;stroke-miterlimit:4;" d="M 65.706017 72.199219 C 65.706017 56.161855 51.788875 43.162576 34.619216 43.162576 C 17.452148 43.162576 3.535006 56.161855 3.535006 72.199219 C 3.535006 88.233993 17.452148 101.235861 34.619216 101.235861 C 51.788875 101.235861 65.706017 88.233993 65.706017 72.199219 Z M 65.706017 72.199219 " transform="matrix(1.507246,0,0,1.508197,0,0)"/>
</g>
</svg>
